<svg width="32" height="32" viewBox="0 0 32 32" fill="none" xmlns="http://www.w3.org/2000/svg">
<rect width="32" height="32" rx="8" fill="#ECEAF6"/>
<path fill-rule="evenodd" clip-rule="evenodd" d="M9 7.625C8.24061 7.625 7.625 8.24061 7.625 9V23C7.625 23.7594 8.24061 24.375 9 24.375H23C23.7594 24.375 24.375 23.7594 24.375 23V9C24.375 8.24061 23.7594 7.625 23 7.625H9ZM6.375 9C6.375 7.55025 7.55025 6.375 9 6.375H23C24.4497 6.375 25.625 7.55025 25.625 9V23C25.625 24.4497 24.4497 25.625 23 25.625H9C7.55025 25.625 6.375 24.4497 6.375 23V9Z" fill="#4129A8"/>
<path fill-rule="evenodd" clip-rule="evenodd" d="M6.375 16C6.375 15.6548 6.65482 15.375 7 15.375H25C25.3452 15.375 25.625 15.6548 25.625 16C25.625 16.3452 25.3452 16.625 25 16.625H7C6.65482 16.625 6.375 16.3452 6.375 16Z" fill="#4129A8"/>
<path fill-rule="evenodd" clip-rule="evenodd" d="M16 6.375C16.3452 6.375 16.625 6.65482 16.625 7V25C16.625 25.3452 16.3452 25.625 16 25.625C15.6548 25.625 15.375 25.3452 15.375 25V7C15.375 6.65482 15.6548 6.375 16 6.375Z" fill="#4129A8"/>
</svg>
