<svg width="32" height="32" viewBox="0 0 32 32" fill="none" xmlns="http://www.w3.org/2000/svg">
<rect width="32" height="32" rx="8" fill="#ECEAF6"/>
<path fill-rule="evenodd" clip-rule="evenodd" d="M10.9504 7.45043C12.1993 6.20159 13.8931 5.5 15.6592 5.5C17.4253 5.5 19.1191 6.20159 20.3679 7.45043C21.6168 8.69927 22.3184 10.3931 22.3184 12.1592C22.3184 13.6106 21.7615 15.0762 20.6297 16.0993C19.8243 16.9058 19.3638 17.5694 19.177 18.5035C19.1346 18.7156 18.9282 18.8532 18.7161 18.8108C18.504 18.7683 18.3664 18.562 18.4088 18.3498C18.6393 17.1975 19.2212 16.3998 20.0828 15.5382C20.0876 15.5334 20.0926 15.5286 20.0977 15.524C21.0498 14.6672 21.5349 13.4203 21.5349 12.1592C21.5349 10.6008 20.9159 9.10632 19.814 8.0044C18.712 6.90248 17.2175 6.28343 15.6592 6.28343C14.1008 6.28343 12.6063 6.90248 11.5044 8.0044C10.4025 9.10632 9.78343 10.6008 9.78343 12.1592C9.78343 13.1271 9.96831 14.271 11.2356 15.5382C11.9888 16.2914 12.6784 17.1942 12.9096 18.3498C12.952 18.562 12.8144 18.7683 12.6023 18.8108C12.3901 18.8532 12.1838 18.7156 12.1413 18.5035C11.9546 17.57 11.3908 16.8014 10.6816 16.0922C9.23295 14.6435 9 13.2804 9 12.1592C9 10.3931 9.70159 8.69927 10.9504 7.45043Z" fill="#4129A8"/>
<path fill-rule="evenodd" clip-rule="evenodd" d="M12.1335 22.605C12.1335 22.3886 12.3089 22.2132 12.5252 22.2132H18.7927C19.009 22.2132 19.1844 22.3886 19.1844 22.605C19.1844 22.8213 19.009 22.9967 18.7927 22.9967H12.5252C12.3089 22.9967 12.1335 22.8213 12.1335 22.605Z" fill="#4129A8"/>
<path fill-rule="evenodd" clip-rule="evenodd" d="M13.1788 26.7833C13.1788 26.5669 13.3542 26.3915 13.5705 26.3915H17.7488C17.9652 26.3915 18.1405 26.5669 18.1405 26.7833C18.1405 26.9996 17.9652 27.175 17.7488 27.175H13.5705C13.3542 27.175 13.1788 26.9996 13.1788 26.7833Z" fill="#4129A8"/>
<path fill-rule="evenodd" clip-rule="evenodd" d="M17.5676 9.02626C17.6162 9.03151 17.6588 9.06111 17.6806 9.10483C17.9725 9.68854 18.2703 10.338 18.2703 11.4671C18.2703 13.1289 16.8305 14.4832 15.2543 14.4834C14.714 14.4849 14.1927 14.2834 13.794 13.9187C13.3952 13.554 13.148 13.0527 13.1015 12.5142C13.0551 11.9758 13.2126 11.4395 13.543 11.0119C13.8731 10.5846 14.3515 10.2968 14.8836 10.2055C14.8832 10.2056 14.8827 10.2057 14.8822 10.2058L14.9094 10.3468L14.8852 10.2052C14.8847 10.2053 14.8842 10.2054 14.8836 10.2055C15.7043 10.0471 16.2053 9.93327 16.5724 9.77474C16.9298 9.62042 17.1635 9.42217 17.4404 9.0789C17.471 9.04085 17.519 9.02102 17.5676 9.02626ZM16.6863 10.0385C16.2852 10.2116 15.7524 10.3304 14.9366 10.4879L14.9336 10.4884C14.4719 10.5673 14.0567 10.8168 13.7704 11.1875C13.484 11.5581 13.3475 12.0229 13.3877 12.4895C13.428 12.9562 13.6422 13.3906 13.9878 13.7067C14.3335 14.0228 14.7853 14.1975 15.2537 14.1961C16.6764 14.1961 17.983 12.9652 17.983 11.4671C17.983 10.5234 17.766 9.94246 17.52 9.4292C17.2748 9.70273 17.0303 9.88992 16.6863 10.0385Z" fill="#4129A8"/>
<path fill-rule="evenodd" clip-rule="evenodd" d="M15.9302 11.9401C15.9863 11.9962 15.9863 12.0871 15.9302 12.1432C15.7735 12.3 15.5093 12.4887 15.1993 12.6551C14.8882 12.8221 14.5213 12.9719 14.1561 13.0443C13.2944 13.2151 12.8125 13.8349 12.8125 14.627C12.8125 14.7063 12.7482 14.7706 12.6688 14.7706C12.5895 14.7706 12.5252 14.7063 12.5252 14.627C12.5252 13.6955 13.1062 12.9595 14.1002 12.7625C14.4301 12.6971 14.7698 12.5596 15.0634 12.402C15.3581 12.2438 15.5966 12.0706 15.7271 11.9401C15.7832 11.884 15.8742 11.884 15.9302 11.9401Z" fill="#4129A8"/>
</svg>
