<svg width="32" height="32" viewBox="0 0 32 32" fill="none" xmlns="http://www.w3.org/2000/svg">
<rect width="32" height="32" rx="8" fill="#ECEAF6"/>
<path d="M25.9522 10.1384C25.9996 10.2525 26.0121 10.3782 25.9881 10.4995C25.964 10.6207 25.9046 10.7321 25.8172 10.8196L23.3173 13.3196C23.2591 13.3776 23.1901 13.4236 23.1142 13.4549C23.0383 13.4862 22.9569 13.5022 22.8748 13.5021H19.3836L17.6924 15.1933C17.883 15.5924 17.9264 16.0461 17.8149 16.4741C17.7034 16.9021 17.4442 17.277 17.083 17.5323C16.7219 17.7877 16.2821 17.9072 15.8414 17.8697C15.4007 17.8321 14.9874 17.64 14.6747 17.3273C14.3619 17.0145 14.1698 16.6012 14.1323 16.1605C14.0947 15.7198 14.2142 15.28 14.4696 14.9189C14.725 14.5578 15.0998 14.2985 15.5278 14.187C15.9558 14.0755 16.4095 14.1189 16.8086 14.3096L18.4998 12.6183V9.12713C18.4997 9.045 18.5157 8.96365 18.5471 8.88772C18.5784 8.8118 18.6243 8.74279 18.6823 8.68464L21.1823 6.18467C21.2697 6.09704 21.3812 6.03733 21.5026 6.01313C21.6239 5.98892 21.7498 6.0013 21.8641 6.04869C21.9785 6.09609 22.0762 6.17637 22.1448 6.27935C22.2135 6.38234 22.25 6.50339 22.2498 6.62717V9.75213H25.3748C25.4984 9.75215 25.6193 9.78886 25.7221 9.85761C25.8249 9.92637 25.905 10.0241 25.9522 10.1384ZM23.866 11.0021H21.6248C21.459 11.0021 21.3001 10.9363 21.1829 10.8191C21.0657 10.7018 20.9998 10.5429 20.9998 10.3771V8.1359L19.7498 9.38588V12.2521H22.616L23.866 11.0021ZM25.5085 12.8958C25.8272 13.8733 25.9997 14.9183 25.9997 16.002C25.9993 18.1144 25.3299 20.1724 24.0876 21.8809C22.8453 23.5894 21.0938 24.8605 19.0844 25.5121C17.075 26.1637 14.9109 26.1622 12.9024 25.5079C10.8939 24.8536 9.1442 23.5801 7.9042 21.8699C6.6642 20.1598 5.9976 18.1009 6.00001 15.9885C6.00241 13.8761 6.67369 11.8187 7.91759 10.1114C9.16148 8.40408 10.9141 7.13452 12.9241 6.48478C14.9341 5.83504 17.0982 5.83851 19.1061 6.49467L18.0961 7.50466C16.2406 7.04715 14.2864 7.2097 12.532 7.96746C10.7775 8.72522 9.31946 10.0365 8.3805 11.701C7.44153 13.3655 7.07331 15.2916 7.33211 17.185C7.59092 19.0785 8.4625 20.8352 9.81369 22.1866C11.1649 23.5381 12.9214 24.41 14.8148 24.6692C16.7082 24.9283 18.6344 24.5605 20.299 23.6219C21.9637 22.6832 23.2753 21.2254 24.0334 19.4711C24.7915 17.7169 24.9544 15.7627 24.4973 13.9071L25.5085 12.8958ZM22.1248 14.7521C22.3932 16.0684 22.2304 17.4362 21.6604 18.6527C21.0905 19.8692 20.1437 20.8696 18.9604 21.5058C17.7772 22.1419 16.4205 22.3799 15.0914 22.1844C13.7622 21.9889 12.5315 21.3703 11.5816 20.4203C10.6316 19.4704 10.0131 18.2397 9.81755 16.9106C9.62204 15.5815 9.85999 14.2247 10.4961 13.0415C11.1323 11.8582 12.1327 10.9114 13.3493 10.3415C14.5658 9.7715 15.9335 9.60867 17.2499 9.87712V11.1596C16.188 10.8857 15.0654 10.9684 14.0552 11.3952C13.045 11.8219 12.2031 12.569 11.6592 13.5213C11.1153 14.4736 10.8996 15.5783 11.0453 16.6652C11.1909 17.7522 11.6899 18.7611 12.4654 19.5365C13.2409 20.312 14.2498 20.811 15.3367 20.9567C16.4236 21.1023 17.5283 20.8866 18.4806 20.3427C19.4329 19.7988 20.18 18.9569 20.6067 17.9467C21.0335 16.9365 21.1163 15.814 20.8423 14.7521H22.1248Z" fill="#4129A8"/>
</svg>
