<svg width="32" height="32" viewBox="0 0 32 32" fill="none" xmlns="http://www.w3.org/2000/svg">
<rect width="32" height="32" rx="8" fill="#ECEAF6"/>
<path fill-rule="evenodd" clip-rule="evenodd" d="M9 7.625C7.68832 7.625 6.625 8.68832 6.625 10C6.625 11.3117 7.68832 12.375 9 12.375C10.3117 12.375 11.375 11.3117 11.375 10C11.375 8.68832 10.3117 7.625 9 7.625ZM5.375 10C5.375 7.99797 6.99797 6.375 9 6.375C11.002 6.375 12.625 7.99797 12.625 10C12.625 12.002 11.002 13.625 9 13.625C6.99797 13.625 5.375 12.002 5.375 10Z" fill="#4129A8"/>
<path fill-rule="evenodd" clip-rule="evenodd" d="M15.375 10C15.375 9.65482 15.6548 9.375 16 9.375H21C21.6962 9.375 22.3639 9.65156 22.8562 10.1438C23.3484 10.6361 23.625 11.3038 23.625 12V19C23.625 19.3452 23.3452 19.625 23 19.625C22.6548 19.625 22.375 19.3452 22.375 19V12C22.375 11.6353 22.2301 11.2856 21.9723 11.0277C21.7144 10.7699 21.3647 10.625 21 10.625H16C15.6548 10.625 15.375 10.3452 15.375 10Z" fill="#4129A8"/>
<path fill-rule="evenodd" clip-rule="evenodd" d="M19.4419 6.55806C19.686 6.80214 19.686 7.19786 19.4419 7.44194L16.8839 10L19.4419 12.5581C19.686 12.8021 19.686 13.1979 19.4419 13.4419C19.1979 13.686 18.8021 13.686 18.5581 13.4419L15.5581 10.4419C15.314 10.1979 15.314 9.80214 15.5581 9.55806L18.5581 6.55806C18.8021 6.31398 19.1979 6.31398 19.4419 6.55806Z" fill="#4129A8"/>
<path fill-rule="evenodd" clip-rule="evenodd" d="M23 19.625C21.6883 19.625 20.625 20.6883 20.625 22C20.625 23.3117 21.6883 24.375 23 24.375C24.3117 24.375 25.375 23.3117 25.375 22C25.375 20.6883 24.3117 19.625 23 19.625ZM19.375 22C19.375 19.998 20.998 18.375 23 18.375C25.002 18.375 26.625 19.998 26.625 22C26.625 24.002 25.002 25.625 23 25.625C20.998 25.625 19.375 24.002 19.375 22Z" fill="#4129A8"/>
<path fill-rule="evenodd" clip-rule="evenodd" d="M9 12.375C9.34518 12.375 9.625 12.6548 9.625 13V20C9.625 20.3647 9.76987 20.7144 10.0277 20.9723C10.2856 21.2301 10.6353 21.375 11 21.375H16C16.3452 21.375 16.625 21.6548 16.625 22C16.625 22.3452 16.3452 22.625 16 22.625H11C10.3038 22.625 9.63613 22.3484 9.14384 21.8562C8.65156 21.3639 8.375 20.6962 8.375 20V13C8.375 12.6548 8.65482 12.375 9 12.375Z" fill="#4129A8"/>
<path fill-rule="evenodd" clip-rule="evenodd" d="M12.5581 18.5581C12.8021 18.314 13.1979 18.314 13.4419 18.5581L16.4419 21.5581C16.686 21.8021 16.686 22.1979 16.4419 22.4419L13.4419 25.4419C13.1979 25.686 12.8021 25.686 12.5581 25.4419C12.314 25.1979 12.314 24.8021 12.5581 24.5581L15.1161 22L12.5581 19.4419C12.314 19.1979 12.314 18.8021 12.5581 18.5581Z" fill="#4129A8"/>
</svg>
