<svg width="32" height="32" viewBox="0 0 32 32" fill="none" xmlns="http://www.w3.org/2000/svg">
<rect width="32" height="32" rx="8" fill="#ECEAF6"/>
<path fill-rule="evenodd" clip-rule="evenodd" d="M16 6.625C10.8223 6.625 6.625 10.8223 6.625 16C6.625 21.1777 10.8223 25.375 16 25.375C21.1777 25.375 25.375 21.1777 25.375 16C25.375 10.8223 21.1777 6.625 16 6.625ZM5.375 16C5.375 10.132 10.132 5.375 16 5.375C21.868 5.375 26.625 10.132 26.625 16C26.625 21.868 21.868 26.625 16 26.625C10.132 26.625 5.375 21.868 5.375 16Z" fill="#4129A8"/>
<path fill-rule="evenodd" clip-rule="evenodd" d="M16 9.375C16.3452 9.375 16.625 9.65482 16.625 10V15.6137L20.2795 17.441C20.5882 17.5954 20.7134 17.9708 20.559 18.2795C20.4046 18.5882 20.0292 18.7134 19.7205 18.559L15.7205 16.559C15.5088 16.4531 15.375 16.2367 15.375 16V10C15.375 9.65482 15.6548 9.375 16 9.375Z" fill="#4129A8"/>
</svg>
