<svg width="32" height="32" viewBox="0 0 32 32" fill="none" xmlns="http://www.w3.org/2000/svg">
<rect width="32" height="32" rx="8" fill="#ECEAF6"/>
<path fill-rule="evenodd" clip-rule="evenodd" d="M16 6.625C14.044 6.625 12.1682 7.40201 10.7851 8.78509C9.40201 10.1682 8.625 12.044 8.625 14C8.625 16.7531 10.4815 19.601 12.4671 21.8348C13.4453 22.9352 14.4253 23.8542 15.1616 24.4984C15.5026 24.7968 15.7903 25.0354 16 25.2048C16.2097 25.0354 16.4974 24.7968 16.8384 24.4984C17.5747 23.8542 18.5547 22.9352 19.5329 21.8348C21.5185 19.601 23.375 16.7531 23.375 14C23.375 12.044 22.598 10.1682 21.2149 8.78509C19.8318 7.40201 17.956 6.625 16 6.625ZM16 26C15.625 26.5 15.6247 26.4998 15.6247 26.4998L15.6226 26.4982L15.6173 26.4942L15.5982 26.4797C15.5818 26.4672 15.558 26.4489 15.5273 26.4252C15.466 26.3776 15.3771 26.308 15.2648 26.2177C15.04 26.0371 14.7208 25.7736 14.3384 25.4391C13.5747 24.7708 12.5547 23.8148 11.5329 22.6652C9.51846 20.399 7.375 17.2469 7.375 14C7.375 11.7125 8.2837 9.51871 9.9012 7.9012C11.5187 6.2837 13.7125 5.375 16 5.375C18.2875 5.375 20.4813 6.2837 22.0988 7.9012C23.7163 9.51871 24.625 11.7125 24.625 14C24.625 17.2469 22.4815 20.399 20.4671 22.6652C19.4453 23.8148 18.4253 24.7708 17.6616 25.4391C17.2792 25.7736 16.96 26.0371 16.7352 26.2177C16.6229 26.308 16.534 26.3776 16.4727 26.4252C16.442 26.4489 16.4182 26.4672 16.4018 26.4797L16.3827 26.4942L16.3774 26.4982L16.3758 26.4994C16.3758 26.4994 16.375 26.5 16 26ZM16 26L16.375 26.5C16.1528 26.6667 15.8469 26.6664 15.6247 26.4998L16 26Z" fill="#4129A8"/>
<path fill-rule="evenodd" clip-rule="evenodd" d="M16 11.625C14.6883 11.625 13.625 12.6883 13.625 14C13.625 15.3117 14.6883 16.375 16 16.375C17.3117 16.375 18.375 15.3117 18.375 14C18.375 12.6883 17.3117 11.625 16 11.625ZM12.375 14C12.375 11.998 13.998 10.375 16 10.375C18.002 10.375 19.625 11.998 19.625 14C19.625 16.002 18.002 17.625 16 17.625C13.998 17.625 12.375 16.002 12.375 14Z" fill="#4129A8"/>
</svg>
