<svg width="32" height="32" viewBox="0 0 32 32" fill="none" xmlns="http://www.w3.org/2000/svg">
<rect width="32" height="32" rx="8" fill="#ECEAF6"/>
<path fill-rule="evenodd" clip-rule="evenodd" d="M16 8.82353C15.3503 8.82353 14.8235 9.35025 14.8235 10C14.8235 10.6497 15.3503 11.1765 16 11.1765C16.6497 11.1765 17.1765 10.6497 17.1765 10C17.1765 9.35025 16.6497 8.82353 16 8.82353ZM15.2941 10C15.2941 9.61015 15.6102 9.29412 16 9.29412C16.3898 9.29412 16.7059 9.61015 16.7059 10C16.7059 10.3898 16.3898 10.7059 16 10.7059C15.6102 10.7059 15.2941 10.3898 15.2941 10Z" fill="#4129A8"/>
<path fill-rule="evenodd" clip-rule="evenodd" d="M16 6C15.7561 6 15.5221 6.09691 15.3496 6.2694C15.1771 6.44189 15.0802 6.67584 15.0802 6.91979V6.97742C15.0799 7.04153 15.0609 7.10415 15.0255 7.1576C14.997 7.20057 14.9589 7.23612 14.9145 7.26156C14.8926 7.26451 14.8712 7.27053 14.8509 7.2795C14.7907 7.30607 14.7239 7.314 14.6591 7.30226C14.5947 7.29058 14.5353 7.25999 14.4883 7.2144L14.4689 7.195C14.3835 7.10948 14.2821 7.04164 14.1704 6.99535C14.0587 6.94906 13.9391 6.92524 13.8182 6.92524C13.6973 6.92524 13.5776 6.94906 13.466 6.99535C13.3544 7.04161 13.253 7.10941 13.1676 7.19487C13.0821 7.28028 13.0142 7.3817 12.968 7.49334C12.9217 7.605 12.8979 7.72469 12.8979 7.84556C12.8979 7.96644 12.9217 8.08612 12.968 8.19778C13.0143 8.30944 13.0821 8.41089 13.1676 8.49631L13.187 8.51571C13.2326 8.56264 13.2632 8.62209 13.2749 8.68648C13.2866 8.75125 13.2787 8.81804 13.2521 8.87826C13.2501 8.88279 13.2483 8.88739 13.2465 8.89204C13.2237 8.95408 13.1828 9.00782 13.129 9.04627C13.0759 9.08426 13.0127 9.1056 12.9475 9.10759H12.9198C12.6758 9.10759 12.4419 9.2045 12.2694 9.37699C12.0969 9.54949 12 9.78344 12 10.0274C12 10.2713 12.0969 10.5053 12.2694 10.6778C12.4419 10.8503 12.6758 10.9472 12.9198 10.9472H12.9774C13.0415 10.9475 13.1041 10.9665 13.1576 11.0019C13.2112 11.0374 13.2532 11.0878 13.2785 11.1468L13.2795 11.1491C13.3061 11.2093 13.314 11.2761 13.3023 11.3409C13.2906 11.4053 13.26 11.4647 13.2144 11.5117L13.195 11.5311C13.1095 11.6165 13.0416 11.718 12.9953 11.8296C12.9491 11.9413 12.9252 12.0609 12.9252 12.1818C12.9252 12.3027 12.9491 12.4224 12.9953 12.534C13.0416 12.6457 13.1095 12.7471 13.195 12.8326C13.2804 12.918 13.3818 12.9858 13.4933 13.032C13.605 13.0783 13.7247 13.1021 13.8456 13.1021C13.9664 13.1021 14.0861 13.0783 14.1978 13.032C14.3094 12.9858 14.4108 12.9179 14.4962 12.8325L14.5157 12.813C14.5626 12.7674 14.6221 12.7368 14.6865 12.7251C14.7512 12.7134 14.818 12.7213 14.8783 12.7479C14.8828 12.7499 14.8874 12.7517 14.892 12.7535C14.9541 12.7763 15.0078 12.8172 15.0463 12.871C15.0843 12.9241 15.1056 12.9873 15.1076 13.0525V13.0802C15.1076 13.3242 15.2045 13.5581 15.377 13.7306C15.5495 13.9031 15.7834 14 16.0274 14C16.2713 14 16.5053 13.9031 16.6778 13.7306C16.8503 13.5581 16.9472 13.3242 16.9472 13.0802V13.0226C16.9475 12.9585 16.9665 12.8959 17.0019 12.8424C17.0374 12.7888 17.0878 12.7468 17.1468 12.7215L17.1491 12.7205C17.2093 12.6939 17.2761 12.686 17.3409 12.6977C17.4053 12.7094 17.4647 12.74 17.5117 12.7856L17.5311 12.805C17.6165 12.8905 17.718 12.9584 17.8296 13.0047C17.9413 13.0509 18.0609 13.0748 18.1818 13.0748C18.3027 13.0748 18.4224 13.0509 18.534 13.0047C18.6457 12.9584 18.7471 12.8906 18.8325 12.8051C18.918 12.7197 18.9858 12.6183 19.032 12.5067C19.0783 12.395 19.1021 12.2753 19.1021 12.1544C19.1021 12.0336 19.0783 11.9139 19.032 11.8022C18.9857 11.6906 18.9179 11.5891 18.8324 11.5037L18.813 11.4843C18.7674 11.4374 18.7368 11.3779 18.7251 11.3135C18.7134 11.2488 18.7213 11.182 18.7479 11.1217L18.7489 11.1194C18.7742 11.0604 18.8162 11.01 18.8698 10.9745C18.9232 10.9391 18.9859 10.9201 19.05 10.9198H19.0802C19.3242 10.9198 19.5581 10.8229 19.7306 10.6504C19.9031 10.4779 20 10.2439 20 10C20 9.75606 19.9031 9.52211 19.7306 9.34961C19.5581 9.17712 19.3242 9.08021 19.0802 9.08021H19.0226C18.9585 9.07988 18.8959 9.06085 18.8424 9.02545C18.7994 8.99699 18.7639 8.95895 18.7384 8.91452C18.7355 8.89262 18.7295 8.87119 18.7205 8.85088C18.6939 8.79066 18.686 8.72387 18.6977 8.6591C18.7094 8.59471 18.74 8.53526 18.7856 8.48834L18.805 8.46893C18.8905 8.38353 18.9584 8.28202 19.0047 8.1704C19.0509 8.05875 19.0748 7.93906 19.0748 7.81818C19.0748 7.69731 19.0509 7.57762 19.0047 7.46596C18.9584 7.35438 18.8906 7.253 18.8052 7.16762C18.7198 7.0821 18.6183 7.01426 18.5067 6.96797C18.395 6.92168 18.2753 6.89786 18.1544 6.89786C18.0336 6.89786 17.9139 6.92168 17.8022 6.96797C17.6906 7.01424 17.5892 7.08205 17.5038 7.16753L17.4843 7.18703C17.4374 7.23262 17.3779 7.2632 17.3135 7.27488C17.2488 7.28662 17.182 7.27869 17.1217 7.25212L17.1194 7.25111C17.0604 7.2258 17.01 7.18378 16.9745 7.13022C16.9391 7.07677 16.9201 7.01415 16.9198 6.95004V6.91979C16.9198 6.67584 16.8229 6.44189 16.6504 6.2694C16.4779 6.09691 16.2439 6 16 6ZM15.6824 6.60216C15.7666 6.51791 15.8809 6.47059 16 6.47059C16.1191 6.47059 16.2334 6.51791 16.3176 6.60216C16.4019 6.6864 16.4492 6.80065 16.4492 6.91979V6.95059C16.4498 7.10661 16.4961 7.25998 16.5822 7.39006C16.6681 7.51979 16.79 7.62164 16.9329 7.68316C17.0788 7.74728 17.2406 7.76636 17.3975 7.73792C17.5548 7.7094 17.6999 7.63442 17.8142 7.52264L17.816 7.52081L17.8365 7.50028C17.8783 7.45852 17.9279 7.42529 17.9824 7.40269C18.037 7.38008 18.0954 7.36845 18.1544 7.36845C18.2135 7.36845 18.2719 7.38008 18.3265 7.40269C18.381 7.42529 18.4305 7.45842 18.4722 7.50019C18.514 7.54191 18.5473 7.59163 18.5699 7.64617C18.5925 7.7007 18.6042 7.75915 18.6042 7.81818C18.6042 7.87721 18.5925 7.93567 18.5699 7.9902C18.5473 8.04473 18.5142 8.09427 18.4724 8.13599L18.4518 8.15662L18.45 8.15846C18.3382 8.27273 18.2632 8.41786 18.2347 8.57515C18.2092 8.71559 18.2219 8.85997 18.2708 8.99339C18.273 9.01835 18.2791 9.04285 18.289 9.06595C18.3504 9.20936 18.4525 9.33166 18.5826 9.4178C18.7126 9.50395 18.8651 9.55018 19.0211 9.5508L19.0802 9.5508C19.1993 9.5508 19.3136 9.59813 19.3978 9.68237C19.4821 9.76661 19.5294 9.88087 19.5294 10C19.5294 10.1191 19.4821 10.2334 19.3978 10.3176C19.3136 10.4019 19.1993 10.4492 19.0802 10.4492L19.0494 10.4492C18.8934 10.4498 18.74 10.4961 18.6099 10.5822C18.4802 10.6681 18.3783 10.79 18.3168 10.9329C18.2527 11.0789 18.2336 11.2406 18.2621 11.3975C18.2906 11.5548 18.3656 11.6999 18.4774 11.8142L18.4792 11.816L18.4997 11.8365C18.5415 11.8783 18.5747 11.9279 18.5973 11.9824C18.6199 12.037 18.6316 12.0954 18.6316 12.1544C18.6316 12.2135 18.6199 12.2719 18.5973 12.3265C18.5747 12.381 18.5416 12.4305 18.4998 12.4722C18.4581 12.514 18.4084 12.5473 18.3538 12.5699C18.2993 12.5925 18.2408 12.6042 18.1818 12.6042C18.1228 12.6042 18.0643 12.5925 18.0098 12.5699C17.9553 12.5473 17.9057 12.5142 17.864 12.4724L17.8434 12.4518L17.8415 12.45C17.7273 12.3382 17.5821 12.2632 17.4249 12.2347C17.268 12.2063 17.1062 12.2253 16.9603 12.2895C16.8174 12.351 16.6955 12.4528 16.6096 12.5826C16.5234 12.7126 16.4772 12.8651 16.4766 13.0211L16.4766 13.0802C16.4766 13.1993 16.4293 13.3136 16.345 13.3978C16.2608 13.4821 16.1465 13.5294 16.0274 13.5294C15.9082 13.5294 15.794 13.4821 15.7097 13.3978C15.6255 13.3136 15.5782 13.1993 15.5782 13.0802V13.0494L15.5781 13.0439C15.5744 12.8834 15.5224 12.7278 15.429 12.5972C15.3371 12.4687 15.2092 12.3703 15.0614 12.3144C14.917 12.2522 14.7574 12.234 14.6025 12.2621C14.4452 12.2906 14.3001 12.3656 14.1858 12.4774L14.184 12.4792L14.1635 12.4997C14.1217 12.5415 14.0721 12.5747 14.0176 12.5973C13.963 12.6199 13.9046 12.6316 13.8456 12.6316C13.7865 12.6316 13.7281 12.6199 13.6735 12.5973C13.619 12.5747 13.5695 12.5416 13.5278 12.4998C13.486 12.4581 13.4527 12.4084 13.4301 12.3538C13.4075 12.2993 13.3958 12.2409 13.3958 12.1818C13.3958 12.1228 13.4075 12.0643 13.4301 12.0098C13.4527 11.9553 13.4858 11.9057 13.5276 11.864L13.5482 11.8434L13.55 11.8415C13.6618 11.7273 13.7368 11.5821 13.7653 11.4249C13.7937 11.268 13.7747 11.1062 13.7105 10.9603C13.649 10.8174 13.5472 10.6955 13.4174 10.6096C13.2874 10.5234 13.1349 10.4772 12.9789 10.4766H12.9198C12.8007 10.4766 12.6864 10.4293 12.6022 10.345C12.5179 10.2608 12.4706 10.1465 12.4706 10.0274C12.4706 9.90825 12.5179 9.79399 12.6022 9.70975C12.6864 9.62551 12.8007 9.57818 12.9198 9.57818H12.9506L12.9561 9.57812C13.1166 9.57436 13.2722 9.52242 13.4028 9.42903C13.5313 9.33709 13.6297 9.20916 13.6856 9.06145C13.7478 8.917 13.766 8.75737 13.7379 8.60253C13.7094 8.44524 13.6344 8.30011 13.5226 8.18584L13.5208 8.184L13.5003 8.16346C13.4585 8.12174 13.4253 8.07211 13.4027 8.01758C13.3801 7.96305 13.3684 7.90459 13.3684 7.84556C13.3684 7.78653 13.3801 7.72808 13.4027 7.67355C13.4253 7.61901 13.4584 7.56947 13.5002 7.52775C13.5419 7.48599 13.5916 7.45267 13.6462 7.43007C13.7007 7.40746 13.7592 7.39583 13.8182 7.39583C13.8772 7.39583 13.9357 7.40746 13.9902 7.43007C14.0447 7.45267 14.0943 7.4858 14.136 7.52757L14.1566 7.5482L14.1585 7.55002C14.2727 7.6618 14.4179 7.73678 14.5751 7.7653C14.7156 7.79076 14.86 7.77814 14.9934 7.72919C15.0183 7.72705 15.0428 7.72093 15.066 7.71103C15.2094 7.64957 15.3317 7.54752 15.4178 7.41744C15.5039 7.28736 15.5502 7.13492 15.5508 6.97891L15.5508 6.91979C15.5508 6.80065 15.5981 6.6864 15.6824 6.60216Z" fill="#4129A8"/>
<path fill-rule="evenodd" clip-rule="evenodd" d="M23.2768 15.1547C23.0538 14.9745 22.7703 14.8866 22.4845 14.9091C22.2006 14.9314 21.936 15.061 21.7442 15.2713L18.3324 19.2722C18.28 19.3391 18.2233 19.4031 18.1626 19.4638C17.7638 19.8626 17.2229 20.0867 16.6588 20.0867H14.5666C14.3165 20.0867 14.1138 19.8839 14.1138 19.6339C14.1138 19.3838 14.3165 19.1811 14.5666 19.1811H16.6588C16.9827 19.1811 17.2932 19.0524 17.5222 18.8234C17.5329 18.8127 17.5434 18.8019 17.5537 18.7908C17.5588 18.7841 17.5641 18.7775 17.5697 18.771L17.6295 18.7008C17.791 18.4892 17.8799 18.2292 17.8799 17.96C17.8799 17.6362 17.7512 17.3256 17.5222 17.0967C17.2932 16.8677 16.9827 16.739 16.6588 16.739H14.3494C13.8037 16.7395 13.2807 16.9566 12.8951 17.3427L8.93008 21.3077L11.6374 24.015L12.4963 23.1561L12.497 23.1554C12.6947 22.9567 12.9297 22.799 13.1885 22.6915C13.4477 22.5838 13.7256 22.5285 14.0062 22.5287H18.2974L18.296 22.5287L18.2992 22.9815V22.5287H18.2974C18.624 22.5262 18.9454 22.446 19.2348 22.2947C19.5247 22.1432 19.7743 21.9248 19.9629 21.6575L23.4808 16.6823C23.6486 16.4499 23.721 16.162 23.6831 15.8778C23.6451 15.5937 23.4997 15.3349 23.2768 15.1547ZM11.3172 24.9755L12.1541 25.8125C12.3309 25.9893 12.6176 25.9893 12.7945 25.8125C12.9713 25.6356 12.9713 25.3489 12.7945 25.1721L12.2777 24.6553L13.1376 23.7955L13.1385 23.7945C13.2521 23.6803 13.3872 23.5896 13.536 23.5278C13.6848 23.466 13.8443 23.4342 14.0055 23.4343H18.2992L18.3024 23.4343C18.7734 23.431 19.2368 23.3155 19.6543 23.0973C20.0716 22.8792 20.431 22.5648 20.7026 22.1801M20.7026 22.1801L24.215 17.2125L24.2164 17.2105C24.5189 16.7906 24.6493 16.2709 24.5807 15.7579C24.5121 15.2441 24.2492 14.7762 23.846 14.4503C23.4429 14.1245 22.9302 13.9656 22.4134 14.0062C21.8967 14.0469 21.4151 14.2841 21.0679 14.669L18.7172 17.4253C18.6227 17.0618 18.4327 16.7264 18.1626 16.4563C17.7638 16.0575 17.2229 15.8334 16.6588 15.8334H14.349C13.5632 15.8341 12.8096 16.1468 12.2543 16.7027L8.28971 20.6673L7.77299 20.1506C7.59616 19.9738 7.30946 19.9738 7.13262 20.1506C6.95579 20.3274 6.95579 20.6141 7.13262 20.791L11.3172 24.9755" fill="#4129A8"/>
</svg>
