<svg width="32" height="32" viewBox="0 0 32 32" fill="none" xmlns="http://www.w3.org/2000/svg">
<rect width="32" height="32" rx="8" fill="#ECEAF6"/>
<path fill-rule="evenodd" clip-rule="evenodd" d="M15.9993 6.375C13.7121 6.37519 11.5185 7.28387 9.9012 8.9012C8.2837 10.5187 7.375 12.7125 7.375 15C7.375 15.2071 7.20711 15.375 7 15.375C6.79289 15.375 6.625 15.2071 6.625 15C6.625 12.5136 7.61272 10.129 9.37087 8.37087C11.129 6.61272 13.5136 5.625 16 5.625H16.0014C18.6142 5.63483 21.1221 6.65435 23.0006 8.47039L23.0052 8.4748L25.2652 10.7348C25.4116 10.8813 25.4116 11.1187 25.2652 11.2652C25.1187 11.4116 24.8813 11.4116 24.7348 11.2652L22.4771 9.00741C20.7381 7.32744 18.4173 6.38428 15.9993 6.375Z" fill="#4129A8"/>
<path fill-rule="evenodd" clip-rule="evenodd" d="M25 8.625C25.2071 8.625 25.375 8.79289 25.375 9V11C25.375 11.2071 25.2071 11.375 25 11.375H23C22.7929 11.375 22.625 11.2071 22.625 11C22.625 10.7929 22.7929 10.625 23 10.625H24.625V9C24.625 8.79289 24.7929 8.625 25 8.625Z" fill="#4129A8"/>
<path fill-rule="evenodd" clip-rule="evenodd" d="M25 16.625C25.2071 16.625 25.375 16.7929 25.375 17C25.375 19.4864 24.3873 21.871 22.6291 23.6291C20.871 25.3873 18.4864 26.375 16 26.375L15.9986 26.375C13.3858 26.3652 10.8779 25.3456 8.99936 23.5296L8.9948 23.5252L6.73483 21.2652C6.58839 21.1187 6.58839 20.8813 6.73483 20.7348C6.88128 20.5884 7.11872 20.5884 7.26517 20.7348L9.52289 22.9926C11.2619 24.6725 13.5827 25.6157 16.0007 25.625C18.2879 25.6248 20.4814 24.7161 22.0988 23.0988C23.7163 21.4813 24.625 19.2875 24.625 17C24.625 16.7929 24.7929 16.625 25 16.625Z" fill="#4129A8"/>
<path fill-rule="evenodd" clip-rule="evenodd" d="M6.625 21C6.625 20.7929 6.79289 20.625 7 20.625H9C9.20711 20.625 9.375 20.7929 9.375 21C9.375 21.2071 9.20711 21.375 9 21.375H7.375V23C7.375 23.2071 7.20711 23.375 7 23.375C6.79289 23.375 6.625 23.2071 6.625 23V21Z" fill="#4129A8"/>
<path fill-rule="evenodd" clip-rule="evenodd" d="M13.9292 11.5162C14.0178 11.465 14.0915 11.3914 14.1427 11.3027C14.1939 11.2142 14.2209 11.1137 14.2211 11.0115V10.9C14.2211 10.3961 14.4213 9.91284 14.7776 9.55651C15.1339 9.20018 15.6172 9 16.1211 9H16.3944C16.8983 9 17.3816 9.20018 17.7379 9.55651C18.0942 9.91283 18.2944 10.3961 18.2944 10.9V11.0111C18.2945 11.1135 18.3215 11.2141 18.3728 11.3027C18.424 11.3914 18.4976 11.465 18.5863 11.5162L18.588 11.5172L18.8533 11.6714C18.9419 11.7224 19.0431 11.7496 19.1453 11.7496C19.2477 11.7496 19.3484 11.7226 19.4372 11.6714C19.4436 11.6677 19.45 11.6641 19.4565 11.6607L19.541 11.6156C19.9748 11.369 20.4884 11.3029 20.9708 11.4319C21.457 11.5619 21.8718 11.8796 22.1241 12.3151L22.2613 12.5521C22.5128 12.9881 22.581 13.5061 22.451 13.9923C22.3215 14.4768 22.0057 14.8903 21.5726 15.1428L21.4739 15.2021C21.3848 15.2535 21.3108 15.3275 21.2595 15.4167C21.2083 15.5059 21.1815 15.6071 21.1819 15.7099L21.1819 15.7126L21.1819 16.0256C21.1815 16.1285 21.2083 16.2297 21.2595 16.3189C21.3093 16.4055 21.3804 16.4778 21.4661 16.529L21.5476 16.5725C21.5544 16.5761 21.5611 16.5799 21.5678 16.5837C22.0033 16.836 22.321 17.2508 22.451 17.7371C22.5807 18.2222 22.5131 18.7389 22.263 19.1742L22.1241 19.4205C21.8718 19.856 21.457 20.1737 20.9708 20.3037C20.4884 20.4327 19.9748 20.3666 19.541 20.12L19.4565 20.0749C19.45 20.0715 19.4436 20.0679 19.4372 20.0642C19.3484 20.0129 19.2477 19.986 19.1453 19.986C19.043 19.986 18.9426 20.0128 18.854 20.0638L18.5863 20.2194C18.4976 20.2706 18.424 20.3442 18.3728 20.4329C18.3215 20.5215 18.2945 20.6221 18.2944 20.7244V20.8355C18.2944 21.3395 18.0942 21.8228 17.7379 22.1791C17.3816 22.5354 16.8983 22.7356 16.3944 22.7356H16.1211C15.6172 22.7356 15.1339 22.5354 14.7776 22.1791C14.4213 21.8228 14.2211 21.3395 14.2211 20.8355V20.7244C14.2209 20.6222 14.1939 20.5214 14.1427 20.4329C14.0915 20.3442 14.0178 20.2706 13.9292 20.2194L13.9274 20.2184L13.6622 20.0642C13.5736 20.0132 13.4725 19.986 13.3702 19.986C13.2678 19.986 13.1671 20.0129 13.0783 20.0642C13.0719 20.0679 13.0655 20.0715 13.059 20.0749L12.9745 20.12C12.5407 20.3666 12.0271 20.4327 11.5447 20.3037C11.0585 20.1737 10.6437 19.856 10.3914 19.4205L10.2542 19.1835C10.0027 18.7475 9.93447 18.2295 10.0645 17.7433C10.194 17.2588 10.5098 16.8453 10.9429 16.5928L11.0416 16.5335C11.1307 16.4821 11.2047 16.4081 11.256 16.3189C11.3072 16.2297 11.334 16.1285 11.3336 16.0256L11.3336 16.023L11.3336 15.7087C11.3327 15.6074 11.3054 15.508 11.2545 15.4204C11.2033 15.3323 11.1299 15.2592 11.0417 15.2082C11.0294 15.2011 11.0174 15.1937 11.0057 15.1858L10.928 15.134C10.5026 14.8808 10.1925 14.4712 10.0645 13.9923C9.93447 13.5061 10.0027 12.9881 10.2542 12.5521L10.2547 12.5512L10.3913 12.3152C10.6436 11.8797 11.0585 11.5619 11.5447 11.4319C12.0271 11.3029 12.5407 11.369 12.9745 11.6156L13.059 11.6607C13.0655 11.6641 13.0719 11.6677 13.0783 11.6714C13.1671 11.7226 13.2678 11.7496 13.3702 11.7496C13.4724 11.7496 13.5729 11.7228 13.6614 11.6718L13.9292 11.5162ZM13.9912 12.2413C13.8024 12.3503 13.5882 12.4077 13.3702 12.4077C13.1522 12.4077 12.9381 12.3503 12.7493 12.2413L12.6561 12.1917C12.3711 12.0273 12.0326 11.9827 11.7147 12.0677C11.3969 12.1526 11.1258 12.3603 10.9609 12.645L10.8243 12.8809C10.6599 13.1659 10.6153 13.5045 10.7003 13.8223C10.7852 14.1402 10.9929 14.4113 11.2776 14.5762L11.3707 14.6383C11.5584 14.7466 11.7145 14.9022 11.8234 15.0896C11.9324 15.277 11.9904 15.4896 11.9917 15.7063V16.023C11.9926 16.2419 11.9356 16.4571 11.8265 16.6468C11.7175 16.8365 11.5602 16.9941 11.3707 17.1035L11.2776 17.1594C10.9929 17.3243 10.7852 17.5954 10.7003 17.9133C10.6153 18.2311 10.6599 18.5697 10.8243 18.8547L10.9609 19.0906C11.1258 19.3753 11.3969 19.5829 11.7147 19.6679C12.0326 19.7529 12.3711 19.7083 12.6561 19.5439L12.7493 19.4943C12.9381 19.3853 13.1522 19.3279 13.3702 19.3279C13.5882 19.3279 13.8024 19.3853 13.9912 19.4943L14.2582 19.6495C14.4468 19.7584 14.6035 19.915 14.7125 20.1035C14.8215 20.2921 14.879 20.506 14.8792 20.7238V20.8355C14.8792 21.1649 15.01 21.4808 15.2429 21.7137C15.4759 21.9466 15.7917 22.0775 16.1211 22.0775H16.3944C16.7237 22.0775 17.0396 21.9466 17.2725 21.7137C17.5054 21.4808 17.6363 21.1649 17.6363 20.8355V20.7238C17.6365 20.506 17.694 20.2921 17.803 20.1035C17.912 19.915 18.0687 19.7584 18.2573 19.6495L18.5243 19.4943C18.7131 19.3853 18.9272 19.3279 19.1453 19.3279C19.3633 19.3279 19.5774 19.3853 19.7662 19.4943L19.8594 19.5439C20.1443 19.7083 20.4829 19.7529 20.8008 19.6679C21.1186 19.5829 21.3897 19.3753 21.5546 19.0906L21.6912 18.8484C21.8556 18.5635 21.9002 18.2249 21.8152 17.9071C21.7302 17.5892 21.5226 17.3181 21.2379 17.1532L21.1448 17.1035C20.9552 16.9941 20.798 16.8365 20.689 16.6468C20.5799 16.4571 20.5229 16.2419 20.5238 16.023V15.7126C20.5229 15.4937 20.5799 15.2785 20.689 15.0888C20.798 14.899 20.9552 14.7415 21.1448 14.6321L21.2379 14.5762C21.5226 14.4113 21.7302 14.1402 21.8152 13.8223C21.9002 13.5045 21.8556 13.1659 21.6912 12.8809L21.5546 12.645C21.3897 12.3603 21.1186 12.1526 20.8008 12.0677C20.4829 11.9827 20.1443 12.0273 19.8594 12.1917L19.7662 12.2413C19.5774 12.3503 19.3633 12.4077 19.1453 12.4077C18.9272 12.4077 18.7131 12.3503 18.5243 12.2413L18.2573 12.0861C18.0687 11.9772 17.912 11.8206 17.803 11.6321C17.694 11.4435 17.6365 11.2296 17.6363 11.0118V10.9C17.6363 10.5707 17.5054 10.2548 17.2725 10.0219C17.0396 9.78895 16.7237 9.6581 16.3944 9.6581H16.1211C15.7917 9.6581 15.4759 9.78895 15.2429 10.0219C15.01 10.2548 14.8792 10.5707 14.8792 10.9V11.0118C14.879 11.2296 14.8215 11.4435 14.7125 11.6321C14.6035 11.8206 14.4468 11.9772 14.2582 12.0861L13.9912 12.2413Z" fill="#4129A8"/>
<path fill-rule="evenodd" clip-rule="evenodd" d="M16.2574 14.3339C15.4103 14.3339 14.7235 15.0207 14.7235 15.8678C14.7235 16.7149 15.4103 17.4017 16.2574 17.4017C17.1045 17.4017 17.7912 16.7149 17.7912 15.8678C17.7912 15.0207 17.1045 14.3339 16.2574 14.3339ZM14.0654 15.8678C14.0654 14.6572 15.0468 13.6758 16.2574 13.6758C17.468 13.6758 18.4493 14.6572 18.4493 15.8678C18.4493 17.0784 17.468 18.0598 16.2574 18.0598C15.0468 18.0598 14.0654 17.0784 14.0654 15.8678Z" fill="#4129A8"/>
</svg>
