<svg width="32" height="32" viewBox="0 0 32 32" fill="none" xmlns="http://www.w3.org/2000/svg">
<rect width="32" height="32" rx="8" fill="#ECEAF6"/>
<path fill-rule="evenodd" clip-rule="evenodd" d="M16 7.67647C11.1269 7.67647 7.17647 11.6269 7.17647 16.5C7.17647 21.3731 11.1269 25.3235 16 25.3235C20.8731 25.3235 24.8235 21.3731 24.8235 16.5C24.8235 11.6269 20.8731 7.67647 16 7.67647ZM6 16.5C6 10.9772 10.4772 6.5 16 6.5C21.5228 6.5 26 10.9772 26 16.5C26 22.0228 21.5228 26.5 16 26.5C10.4772 26.5 6 22.0228 6 16.5Z" fill="#4129A8"/>
<path fill-rule="evenodd" clip-rule="evenodd" d="M16.684 11.2385C16.9874 10.9352 17.3989 10.7647 17.8279 10.7647C18.2569 10.7647 18.6684 10.9352 18.9717 11.2385C19.2751 11.5419 19.4455 11.9534 19.4455 12.3824V15.3236C19.4455 15.5672 19.248 15.7647 19.0044 15.7647C18.7607 15.7647 18.5632 15.5672 18.5632 15.3236V12.3824C18.5632 12.1874 18.4857 12.0004 18.3478 11.8625C18.2099 11.7246 18.0229 11.6471 17.8279 11.6471C17.6329 11.6471 17.4459 11.7246 17.308 11.8625C17.1701 12.0004 17.0926 12.1874 17.0926 12.3824C17.0926 12.626 16.8951 12.8236 16.6514 12.8236C16.4078 12.8236 16.2102 12.626 16.2102 12.3824C16.2102 11.9534 16.3807 11.5419 16.684 11.2385Z" fill="#4129A8"/>
<path fill-rule="evenodd" clip-rule="evenodd" d="M14.33 10.062C14.6333 9.75867 15.0448 9.58824 15.4738 9.58824C15.9028 9.58824 16.3143 9.75867 16.6177 10.062C16.921 10.3654 17.0915 10.7769 17.0915 11.2059V14.7353C17.0915 14.9789 16.8939 15.1765 16.6503 15.1765C16.4066 15.1765 16.2091 14.9789 16.2091 14.7353V11.2059C16.2091 11.0109 16.1316 10.8238 15.9937 10.686C15.8558 10.5481 15.6688 10.4706 15.4738 10.4706C15.2788 10.4706 15.0918 10.5481 14.9539 10.686C14.816 10.8238 14.7385 11.0109 14.7385 11.2059V12.3824C14.7385 12.626 14.541 12.8235 14.2973 12.8235C14.0537 12.8235 13.8562 12.626 13.8562 12.3824V11.2059C13.8562 10.7769 14.0266 10.3654 14.33 10.062Z" fill="#4129A8"/>
<path fill-rule="evenodd" clip-rule="evenodd" d="M11.977 11.2385C12.2804 10.9352 12.6918 10.7647 13.1209 10.7647C13.5499 10.7647 13.9613 10.9352 14.2647 11.2385C14.5681 11.5419 14.7385 11.9533 14.7385 12.3824V15.0294C14.7385 15.2731 14.541 15.4706 14.2973 15.4706C14.0537 15.4706 13.8562 15.2731 13.8562 15.0294V12.3824C13.8562 12.1873 13.7787 12.0004 13.6408 11.8625C13.5029 11.7246 13.3159 11.6471 13.1209 11.6471C12.9259 11.6471 12.7388 11.7246 12.6009 11.8625C12.463 12.0004 12.3856 12.1874 12.3856 12.3824V17.0883C12.3856 17.3319 12.188 17.5294 11.9444 17.5294C11.7007 17.5294 11.5032 17.3319 11.5032 17.0883V12.3824C11.5032 11.9534 11.6736 11.5419 11.977 11.2385Z" fill="#4129A8"/>
<path fill-rule="evenodd" clip-rule="evenodd" d="M20.1797 12.8235C19.9847 12.8235 19.7977 12.901 19.6598 13.0389C19.5219 13.1768 19.4445 13.3638 19.4445 13.5588C19.4445 13.8025 19.2469 14 19.0033 14C18.7596 14 18.5621 13.8025 18.5621 13.5588C18.5621 13.1298 18.7325 12.7183 19.0359 12.415C19.3393 12.1116 19.7507 11.9412 20.1797 11.9412C20.6088 11.9412 21.0202 12.1116 21.3236 12.415C21.627 12.7183 21.7974 13.1298 21.7974 13.5588V17.0882C21.7974 18.4533 21.2551 19.7625 20.2899 20.7278C19.3246 21.693 18.0154 22.2353 16.6503 22.2353H15.4739C13.7082 22.2353 12.597 21.6818 11.6394 20.7307L11.6384 20.7296L9.52073 18.612C9.51543 18.6067 9.51027 18.6012 9.50524 18.5957C9.22695 18.2875 9.07785 17.884 9.0888 17.4689C9.09975 17.0538 9.26991 16.6588 9.56406 16.3657C9.85821 16.0726 10.2538 15.9038 10.669 15.8943C11.0841 15.8849 11.487 16.0354 11.7942 16.3148C11.7994 16.3195 11.8044 16.3243 11.8094 16.3292L12.8446 17.3645C13.0169 17.5368 13.0169 17.8161 12.8446 17.9884C12.6724 18.1607 12.393 18.1607 12.2207 17.9884L11.1937 16.9614C11.0549 16.8384 10.8747 16.7722 10.6891 16.7765C10.5004 16.7808 10.3206 16.8575 10.1869 16.9907C10.0532 17.124 9.97582 17.3035 9.97084 17.4922C9.96596 17.6776 10.0313 17.8578 10.1535 17.9969L12.2612 20.1046C13.0564 20.8943 13.9457 21.3529 15.4739 21.3529H16.6503C17.7814 21.3529 18.8662 20.9036 19.6659 20.1038C20.4657 19.304 20.915 18.2193 20.915 17.0882V13.5588C20.915 13.3638 20.8376 13.1768 20.6997 13.0389C20.5618 12.901 20.3748 12.8235 20.1797 12.8235Z" fill="#4129A8"/>
</svg>
