<svg width="32" height="32" viewBox="0 0 32 32" fill="none" xmlns="http://www.w3.org/2000/svg">
<rect width="32" height="32" rx="8" fill="#ECEAF6"/>
<path fill-rule="evenodd" clip-rule="evenodd" d="M17.9563 5.00251C18.5866 4.60706 19.3325 4.43723 20.0719 4.5208C20.8113 4.60437 21.5004 4.9364 22.0266 5.46256C22.5527 5.98873 22.8848 6.67788 22.9683 7.41728C23.0519 8.15669 22.8821 8.90256 22.4866 9.5329C22.0912 10.1632 21.4935 10.6407 20.7914 10.8872C20.1974 11.0958 19.5584 11.1285 18.9502 10.9854L18.5783 11.3574C18.4787 11.457 18.3436 11.5129 18.2028 11.5129H17.8859V12.2537C17.8859 12.5469 17.6482 12.7846 17.355 12.7846H16.6142V13.5255C16.6142 13.8187 16.3765 14.0564 16.0833 14.0564H14.3876C14.1398 14.0564 13.892 13.9715 13.7048 13.7843C13.5177 13.5972 13.4328 13.3494 13.4328 13.1016V11.8298C13.4328 11.689 13.4887 11.554 13.5883 11.4544L16.5037 8.53895C16.3606 7.93072 16.3934 7.29171 16.6019 6.69771C16.8484 5.99561 17.3259 5.39796 17.9563 5.00251ZM19.9526 5.5759C19.4521 5.51933 18.9472 5.63429 18.5205 5.90197C18.0939 6.16965 17.7707 6.57421 17.6038 7.04946C17.437 7.52471 17.4363 8.04251 17.602 8.51817C17.669 8.71051 17.6201 8.92421 17.4761 9.06823L14.4946 12.0497V12.9946H15.5523V12.2537C15.5523 11.9605 15.79 11.7228 16.0833 11.7228H16.8241V10.982C16.8241 10.6888 17.0618 10.4511 17.355 10.4511H17.9829L18.4209 10.0131C18.5649 9.86906 18.7786 9.82013 18.971 9.88713C19.4466 10.0528 19.9644 10.0522 20.4397 9.88533C20.9149 9.71848 21.3195 9.39527 21.5872 8.9686C21.8549 8.54193 21.9698 8.03704 21.9132 7.53654C21.8567 7.03604 21.6319 6.56955 21.2758 6.21338C20.9196 5.85722 20.4531 5.63247 19.9526 5.5759ZM25.0843 14.3484C24.8228 14.1371 24.4904 14.0341 24.1553 14.0604C23.8225 14.0866 23.5122 14.2385 23.2874 14.4851L19.2871 19.1761C19.2256 19.2546 19.1592 19.3296 19.088 19.4008C18.6204 19.8684 17.9862 20.1311 17.3249 20.1311H14.8717C14.5785 20.1311 14.3408 19.8934 14.3408 19.6002C14.3408 19.307 14.5785 19.0693 14.8717 19.0693H17.3249C17.7045 19.0693 18.0687 18.9185 18.3372 18.65C18.3497 18.6374 18.362 18.6247 18.374 18.6117C18.38 18.6039 18.3863 18.5961 18.3928 18.5885L18.463 18.5061C18.6523 18.2581 18.7565 17.9532 18.7565 17.6377C18.7565 17.258 18.6056 16.8938 18.3372 16.6254C18.0687 16.3569 17.7045 16.206 17.3249 16.206H14.617C13.9773 16.2066 13.364 16.4612 12.9119 16.9138L8.26299 21.5627L11.4372 24.737L12.4443 23.7299L12.4451 23.7291C12.6769 23.4961 12.9525 23.3113 13.256 23.1852C13.5598 23.059 13.8856 22.9941 14.2147 22.9944H19.2461L19.2444 22.9944L19.2481 23.5253V22.9944H19.2461C19.629 22.9914 20.0058 22.8974 20.3452 22.72C20.6851 22.5423 20.9777 22.2862 21.1989 21.9729L25.3235 16.1395C25.5203 15.867 25.6052 15.5295 25.5607 15.1963C25.5162 14.8631 25.3457 14.5597 25.0843 14.3484ZM11.0618 25.8632L12.0431 26.8445C12.2504 27.0518 12.5866 27.0518 12.7939 26.8445C13.0013 26.6372 13.0013 26.301 12.7939 26.0937L12.1881 25.4878L13.1962 24.4796L13.1974 24.4785C13.3305 24.3445 13.4889 24.2382 13.6634 24.1658C13.8378 24.0933 14.0249 24.056 14.2138 24.0562H19.2481L19.2518 24.0562C19.8041 24.0523 20.3475 23.9169 20.837 23.661C21.3263 23.4053 21.7477 23.0366 22.0661 22.5856M22.0661 22.5856L26.1843 16.7612L26.186 16.7589C26.5406 16.2666 26.6935 15.6572 26.6132 15.0557C26.5327 14.4533 26.2244 13.9046 25.7517 13.5226C25.279 13.1406 24.6779 12.9542 24.072 13.0019C23.4661 13.0496 22.9015 13.3277 22.4944 13.7789L19.7382 17.0107C19.6275 16.5845 19.4047 16.1913 19.088 15.8745C18.6204 15.4069 17.9862 15.1442 17.3249 15.1442H14.6166C13.6953 15.145 12.8116 15.5117 12.1606 16.1635L7.51217 20.8119L6.90632 20.2061C6.69899 19.9987 6.36283 19.9987 6.1555 20.2061C5.94817 20.4134 5.94817 20.7496 6.1555 20.9569L11.0618 25.8632" fill="#4129A8"/>
</svg>
