<svg width="32" height="32" viewBox="0 0 32 32" fill="none" xmlns="http://www.w3.org/2000/svg">
<rect width="32" height="32" rx="8" fill="#ECEAF6"/>
<path fill-rule="evenodd" clip-rule="evenodd" d="M7.67142 5.46834C7.85568 5.35446 8.08577 5.34411 8.27951 5.44098L10 6.30123L11.7205 5.44098C11.8964 5.35301 12.1036 5.35301 12.2795 5.44098L14 6.30123L15.7205 5.44098C15.8964 5.35301 16.1036 5.35301 16.2795 5.44098L18 6.30123L19.7205 5.44098C19.8964 5.35301 20.1036 5.35301 20.2795 5.44098L22 6.30123L23.7205 5.44098C23.9142 5.34411 24.1443 5.35446 24.3286 5.46834C24.5128 5.58222 24.625 5.78339 24.625 6V26C24.625 26.2166 24.5128 26.4178 24.3286 26.5317C24.1443 26.6455 23.9142 26.6559 23.7205 26.559L22 25.6988L20.2795 26.559C20.1036 26.647 19.8964 26.647 19.7205 26.559L18 25.6988L16.2795 26.559C16.1036 26.647 15.8964 26.647 15.7205 26.559L14 25.6988L12.2795 26.559C12.1036 26.647 11.8964 26.647 11.7205 26.559L10 25.6988L8.27951 26.559C8.08577 26.6559 7.85568 26.6455 7.67142 26.5317C7.48716 26.4178 7.375 26.2166 7.375 26V6C7.375 5.78339 7.48716 5.58222 7.67142 5.46834ZM8.625 7.01127V24.9887L9.72049 24.441C9.89645 24.353 10.1036 24.353 10.2795 24.441L12 25.3012L13.7205 24.441C13.8964 24.353 14.1036 24.353 14.2795 24.441L16 25.3012L17.7205 24.441C17.8964 24.353 18.1036 24.353 18.2795 24.441L20 25.3012L21.7205 24.441C21.8964 24.353 22.1036 24.353 22.2795 24.441L23.375 24.9887V7.01127L22.2795 7.55902C22.1036 7.647 21.8964 7.647 21.7205 7.55902L20 6.69877L18.2795 7.55902C18.1036 7.647 17.8964 7.647 17.7205 7.55902L16 6.69877L14.2795 7.55902C14.1036 7.647 13.8964 7.647 13.7205 7.55902L12 6.69877L10.2795 7.55902C10.1036 7.647 9.89645 7.647 9.72049 7.55902L8.625 7.01127Z" fill="#4129A8"/>
<path fill-rule="evenodd" clip-rule="evenodd" d="M12.1438 12.1438C12.6361 11.6516 13.3038 11.375 14 11.375H20C20.3452 11.375 20.625 11.6548 20.625 12C20.625 12.3452 20.3452 12.625 20 12.625H14C13.6353 12.625 13.2856 12.7699 13.0277 13.0277C12.7699 13.2856 12.625 13.6353 12.625 14C12.625 14.3647 12.7699 14.7144 13.0277 14.9723C13.2856 15.2301 13.6353 15.375 14 15.375H18C18.6962 15.375 19.3639 15.6516 19.8562 16.1438C20.3484 16.6361 20.625 17.3038 20.625 18C20.625 18.6962 20.3484 19.3639 19.8562 19.8562C19.3639 20.3484 18.6962 20.625 18 20.625H12C11.6548 20.625 11.375 20.3452 11.375 20C11.375 19.6548 11.6548 19.375 12 19.375H18C18.3647 19.375 18.7144 19.2301 18.9723 18.9723C19.2301 18.7144 19.375 18.3647 19.375 18C19.375 17.6353 19.2301 17.2856 18.9723 17.0277C18.7144 16.7699 18.3647 16.625 18 16.625H14C13.3038 16.625 12.6361 16.3484 12.1438 15.8562C11.6516 15.3639 11.375 14.6962 11.375 14C11.375 13.3038 11.6516 12.6361 12.1438 12.1438Z" fill="#4129A8"/>
<path fill-rule="evenodd" clip-rule="evenodd" d="M16 10.375C16.3452 10.375 16.625 10.6548 16.625 11V21C16.625 21.3452 16.3452 21.625 16 21.625C15.6548 21.625 15.375 21.3452 15.375 21V11C15.375 10.6548 15.6548 10.375 16 10.375Z" fill="#4129A8"/>
</svg>
