<svg width="32" height="32" viewBox="0 0 32 32" fill="none" xmlns="http://www.w3.org/2000/svg">
<rect width="32" height="32" rx="8" fill="#ECEAF6"/>
<path d="M15.9992 8C20.418 8 24 11.582 24 16.0008C24 20.4188 20.418 24 15.9992 24C11.5804 24.0008 8 20.4188 8 16.0008C7.9992 11.582 11.5804 8 15.9992 8ZM15.9992 9.19988C15.0999 9.19013 14.2077 9.35882 13.374 9.69621C12.5404 10.0336 11.782 10.533 11.1426 11.1654C10.5033 11.7979 9.9957 12.5509 9.64929 13.3808C9.30289 14.2107 9.12452 15.1011 9.12452 16.0004C9.12452 16.8997 9.30289 17.7901 9.64929 18.62C9.9957 19.4499 10.5033 20.2029 11.1426 20.8354C11.782 21.4678 12.5404 21.9672 13.374 22.3046C14.2077 22.642 15.0999 22.8107 15.9992 22.8009C17.79 22.7815 19.5009 22.0565 20.7604 20.7832C22.0199 19.51 22.7264 17.7913 22.7264 16.0004C22.7264 14.2095 22.0199 12.4908 20.7604 11.2176C19.5009 9.94434 17.79 9.2193 15.9992 9.19988ZM15.996 14.7993C16.1411 14.7991 16.2814 14.8515 16.3908 14.9469C16.5002 15.0422 16.5714 15.1739 16.5911 15.3177L16.5967 15.3993L16.5999 19.8004C16.6015 19.9535 16.5445 20.1014 16.4405 20.2138C16.3366 20.3262 16.1936 20.3946 16.0409 20.4051C15.8882 20.4155 15.7372 20.3671 15.619 20.2699C15.5007 20.1727 15.4241 20.0339 15.4049 19.882L15.4001 19.8012L15.3969 15.4001C15.3969 15.2409 15.4601 15.0883 15.5726 14.9758C15.6851 14.8633 15.8377 14.8001 15.9968 14.8001L15.996 14.7993ZM16 12.002C16.107 11.9986 16.2136 12.0168 16.3135 12.0554C16.4133 12.094 16.5044 12.1523 16.5813 12.2268C16.6582 12.3013 16.7194 12.3905 16.7611 12.4891C16.8029 12.5877 16.8244 12.6936 16.8244 12.8007C16.8244 12.9078 16.8029 13.0138 16.7611 13.1124C16.7194 13.211 16.6582 13.3001 16.5813 13.3747C16.5044 13.4492 16.4133 13.5074 16.3135 13.5461C16.2136 13.5847 16.107 13.6028 16 13.5994C15.7925 13.5929 15.5958 13.5058 15.4513 13.3568C15.3069 13.2077 15.2262 13.0083 15.2262 12.8007C15.2262 12.5932 15.3069 12.3937 15.4513 12.2447C15.5958 12.0956 15.7925 12.0086 16 12.002Z" fill="#4129A8"/>
</svg>
