<svg width="32" height="32" viewBox="0 0 32 32" fill="none" xmlns="http://www.w3.org/2000/svg">
<rect width="32" height="32" rx="8" fill="#ECEAF6"/>
<path fill-rule="evenodd" clip-rule="evenodd" d="M16.5 10.619C13.252 10.619 10.619 13.252 10.619 16.5C10.619 19.748 13.252 22.381 16.5 22.381C19.748 22.381 22.381 19.748 22.381 16.5C22.381 13.252 19.748 10.619 16.5 10.619ZM10 16.5C10 12.9101 12.9101 10 16.5 10C20.0899 10 23 12.9101 23 16.5C23 20.0899 20.0899 23 16.5 23C12.9101 23 10 20.0899 10 16.5ZM16.5 12.4762C16.6709 12.4762 16.8095 12.6148 16.8095 12.7857V13.7143H18.9762C19.1471 13.7143 19.2857 13.8529 19.2857 14.0238C19.2857 14.1948 19.1471 14.3333 18.9762 14.3333H16.8095V16.1905H17.7381C18.1486 16.1905 18.5422 16.3535 18.8324 16.6438C19.1227 16.934 19.2857 17.3276 19.2857 17.7381C19.2857 18.1486 19.1227 18.5422 18.8324 18.8324C18.5422 19.1227 18.1486 19.2857 17.7381 19.2857H16.8095V20.2143C16.8095 20.3852 16.6709 20.5238 16.5 20.5238C16.3291 20.5238 16.1905 20.3852 16.1905 20.2143V19.2857H14.0238C13.8529 19.2857 13.7143 19.1471 13.7143 18.9762C13.7143 18.8052 13.8529 18.6667 14.0238 18.6667H16.1905V16.8095H15.2619C14.8515 16.8095 14.4578 16.6465 14.1676 16.3562C13.8773 16.066 13.7143 15.6724 13.7143 15.2619C13.7143 14.8514 13.8773 14.4578 14.1676 14.1676C14.4578 13.8773 14.8515 13.7143 15.2619 13.7143H16.1905V12.7857C16.1905 12.6148 16.3291 12.4762 16.5 12.4762ZM16.1905 14.3333H15.2619C15.0156 14.3333 14.7794 14.4312 14.6053 14.6053C14.4312 14.7794 14.3333 15.0156 14.3333 15.2619C14.3333 15.5082 14.4312 15.7444 14.6053 15.9185C14.7794 16.0926 15.0156 16.1905 15.2619 16.1905H16.1905V14.3333ZM16.8095 16.8095V18.6667H17.7381C17.9844 18.6667 18.2206 18.5688 18.3947 18.3947C18.5688 18.2206 18.6667 17.9844 18.6667 17.7381C18.6667 17.4918 18.5688 17.2556 18.3947 17.0815C18.2206 16.9074 17.9844 16.8095 17.7381 16.8095H16.8095Z" fill="#4129A8"/>
<path fill-rule="evenodd" clip-rule="evenodd" d="M16.3743 6.75C14.0871 6.75019 11.8935 7.65887 10.2762 9.2762C8.6587 10.8937 7.75 13.0875 7.75 15.375C7.75 15.5821 7.58211 15.75 7.375 15.75C7.16789 15.75 7 15.5821 7 15.375C7 12.8886 7.98772 10.504 9.74587 8.74587C11.504 6.98772 13.8886 6 16.375 6H16.3764C18.9892 6.00983 21.4971 7.02935 23.3756 8.84539L23.3802 8.8498L25.6402 11.1098C25.7866 11.2563 25.7866 11.4937 25.6402 11.6402C25.4937 11.7866 25.2563 11.7866 25.1098 11.6402L22.8521 9.38241C21.1131 7.70244 18.7923 6.75928 16.3743 6.75Z" fill="#4129A8"/>
<path fill-rule="evenodd" clip-rule="evenodd" d="M25.375 9C25.5821 9 25.75 9.16789 25.75 9.375V11.375C25.75 11.5821 25.5821 11.75 25.375 11.75H23.375C23.1679 11.75 23 11.5821 23 11.375C23 11.1679 23.1679 11 23.375 11H25V9.375C25 9.16789 25.1679 9 25.375 9Z" fill="#4129A8"/>
<path fill-rule="evenodd" clip-rule="evenodd" d="M25.375 17C25.5821 17 25.75 17.1679 25.75 17.375C25.75 19.8614 24.7623 22.246 23.0041 24.0041C21.246 25.7623 18.8614 26.75 16.375 26.75L16.3736 26.75C13.7608 26.7402 11.2529 25.7206 9.37436 23.9046L9.3698 23.9002L7.10983 21.6402C6.96339 21.4937 6.96339 21.2563 7.10983 21.1098C7.25628 20.9634 7.49372 20.9634 7.64017 21.1098L9.89789 23.3676C11.6369 25.0475 13.9577 25.9907 16.3757 26C18.6629 25.9998 20.8564 25.0911 22.4738 23.4738C24.0913 21.8563 25 19.6625 25 17.375C25 17.1679 25.1679 17 25.375 17Z" fill="#4129A8"/>
<path fill-rule="evenodd" clip-rule="evenodd" d="M7 21.375C7 21.1679 7.16789 21 7.375 21H9.375C9.58211 21 9.75 21.1679 9.75 21.375C9.75 21.5821 9.58211 21.75 9.375 21.75H7.75V23.375C7.75 23.5821 7.58211 23.75 7.375 23.75C7.16789 23.75 7 23.5821 7 23.375V21.375Z" fill="#4129A8"/>
</svg>
