<svg width="32" height="32" viewBox="0 0 32 32" fill="none" xmlns="http://www.w3.org/2000/svg">
<rect width="32" height="32" rx="8" fill="#ECEAF6"/>
<path fill-rule="evenodd" clip-rule="evenodd" d="M7.71285 8.71296C7.90812 8.5177 8.2247 8.5177 8.41996 8.71296L10.5533 10.8463C10.7486 11.0416 10.7486 11.3582 10.5533 11.5534C10.3581 11.7487 10.0415 11.7487 9.84622 11.5534L7.71285 9.42007C7.51759 9.22481 7.51759 8.90823 7.71285 8.71296Z" fill="#4129A8"/>
<path fill-rule="evenodd" clip-rule="evenodd" d="M20.5127 21.5131C20.7079 21.3178 21.0245 21.3178 21.2198 21.5131L23.3531 23.6464C23.5484 23.8417 23.5484 24.1583 23.3531 24.3535C23.1579 24.5488 22.8413 24.5488 22.646 24.3535L20.5127 22.2202C20.3174 22.0249 20.3174 21.7083 20.5127 21.5131Z" fill="#4129A8"/>
<path fill-rule="evenodd" clip-rule="evenodd" d="M7.71285 24.3536C7.51759 24.1583 7.51759 23.8417 7.71285 23.6465L9.84622 21.5131C10.0415 21.3178 10.3581 21.3178 10.5533 21.5131C10.7486 21.7084 10.7486 22.0249 10.5533 22.2202L8.41996 24.3536C8.2247 24.5488 7.90812 24.5488 7.71285 24.3536Z" fill="#4129A8"/>
<path fill-rule="evenodd" clip-rule="evenodd" d="M20.5127 11.5534C20.3174 11.3582 20.3174 11.0416 20.5127 10.8463L22.646 8.71296C22.8413 8.5177 23.1579 8.5177 23.3531 8.71296C23.5484 8.90823 23.5484 9.22481 23.3531 9.42007L21.2198 11.5534C21.0245 11.7487 20.7079 11.7487 20.5127 11.5534Z" fill="#4129A8"/>
<path fill-rule="evenodd" clip-rule="evenodd" d="M21.0068 16.5334C21.0068 16.2573 21.2307 16.0334 21.5068 16.0334L24.0669 16.0334C24.343 16.0334 24.5669 16.2573 24.5669 16.5334C24.5669 16.8096 24.343 17.0334 24.0669 17.0334L21.5068 17.0334C21.2307 17.0334 21.0068 16.8096 21.0068 16.5334Z" fill="#4129A8"/>
<path fill-rule="evenodd" clip-rule="evenodd" d="M15.5339 7.5C15.8101 7.5 16.0339 7.72386 16.0339 8L16.0339 10.56C16.0339 10.8362 15.8101 11.06 15.5339 11.06C15.2578 11.06 15.0339 10.8362 15.0339 10.56L15.0339 8C15.0339 7.72386 15.2578 7.5 15.5339 7.5Z" fill="#4129A8"/>
<path fill-rule="evenodd" clip-rule="evenodd" d="M6.5 16.5333C6.5 16.2571 6.72386 16.0333 7 16.0333H9.56004C9.83618 16.0333 10.06 16.2571 10.06 16.5333C10.06 16.8094 9.83618 17.0333 9.56004 17.0333H7C6.72386 17.0333 6.5 16.8094 6.5 16.5333Z" fill="#4129A8"/>
</svg>
