<svg width="32" height="32" viewBox="0 0 32 32" fill="none" xmlns="http://www.w3.org/2000/svg">
<rect width="32" height="32" rx="8" fill="#ECEAF6"/>
<path fill-rule="evenodd" clip-rule="evenodd" d="M16 13.625C14.6883 13.625 13.625 14.6883 13.625 16C13.625 17.3117 14.6883 18.375 16 18.375C17.3117 18.375 18.375 17.3117 18.375 16C18.375 14.6883 17.3117 13.625 16 13.625ZM12.375 16C12.375 13.998 13.998 12.375 16 12.375C18.002 12.375 19.625 13.998 19.625 16C19.625 18.002 18.002 19.625 16 19.625C13.998 19.625 12.375 18.002 12.375 16Z" fill="#4129A8"/>
<path fill-rule="evenodd" clip-rule="evenodd" d="M8 6.625C7.63533 6.625 7.28559 6.76987 7.02773 7.02773C6.76987 7.28559 6.625 7.63533 6.625 8V12C6.625 12.3647 6.76987 12.7144 7.02773 12.9723C7.28559 13.2301 7.63533 13.375 8 13.375H8.5C8.84518 13.375 9.125 13.6548 9.125 14C9.125 14.3452 8.84518 14.625 8.5 14.625H8C7.30381 14.625 6.63613 14.3484 6.14384 13.8562C5.65156 13.3639 5.375 12.6962 5.375 12V8C5.375 7.30381 5.65156 6.63613 6.14384 6.14384C6.63613 5.65156 7.30381 5.375 8 5.375H24C24.6962 5.375 25.3639 5.65156 25.8562 6.14384C26.3484 6.63613 26.625 7.30381 26.625 8V12C26.625 12.6962 26.3484 13.3639 25.8562 13.8562C25.3639 14.3484 24.6962 14.625 24 14.625H23.5C23.1548 14.625 22.875 14.3452 22.875 14C22.875 13.6548 23.1548 13.375 23.5 13.375H24C24.3647 13.375 24.7144 13.2301 24.9723 12.9723C25.2301 12.7144 25.375 12.3647 25.375 12V8C25.375 7.63533 25.2301 7.28559 24.9723 7.02773C24.7144 6.76987 24.3647 6.625 24 6.625H8Z" fill="#4129A8"/>
<path fill-rule="evenodd" clip-rule="evenodd" d="M6.14384 18.1438C6.63613 17.6516 7.30381 17.375 8 17.375H8.5C8.84518 17.375 9.125 17.6548 9.125 18C9.125 18.3452 8.84518 18.625 8.5 18.625H8C7.63533 18.625 7.28559 18.7699 7.02773 19.0277C6.76987 19.2856 6.625 19.6353 6.625 20V24C6.625 24.3647 6.76987 24.7144 7.02773 24.9723C7.28559 25.2301 7.63533 25.375 8 25.375H24C24.3647 25.375 24.7144 25.2301 24.9723 24.9723C25.2301 24.7144 25.375 24.3647 25.375 24V20C25.375 19.6353 25.2301 19.2856 24.9723 19.0277C24.7144 18.7699 24.3647 18.625 24 18.625H23.5C23.1548 18.625 22.875 18.3452 22.875 18C22.875 17.6548 23.1548 17.375 23.5 17.375H24C24.6962 17.375 25.3639 17.6516 25.8562 18.1438C26.3484 18.6361 26.625 19.3038 26.625 20V24C26.625 24.6962 26.3484 25.3639 25.8562 25.8562C25.3639 26.3484 24.6962 26.625 24 26.625H8C7.30381 26.625 6.63613 26.3484 6.14384 25.8562C5.65156 25.3639 5.375 24.6962 5.375 24V20C5.375 19.3038 5.65156 18.6361 6.14384 18.1438Z" fill="#4129A8"/>
<path fill-rule="evenodd" clip-rule="evenodd" d="M9.375 10C9.375 9.65482 9.65482 9.375 10 9.375H10.01C10.3552 9.375 10.635 9.65482 10.635 10C10.635 10.3452 10.3552 10.625 10.01 10.625H10C9.65482 10.625 9.375 10.3452 9.375 10Z" fill="#4129A8"/>
<path fill-rule="evenodd" clip-rule="evenodd" d="M9.375 22C9.375 21.6548 9.65482 21.375 10 21.375H10.01C10.3552 21.375 10.635 21.6548 10.635 22C10.635 22.3452 10.3552 22.625 10.01 22.625H10C9.65482 22.625 9.375 22.3452 9.375 22Z" fill="#4129A8"/>
<path fill-rule="evenodd" clip-rule="evenodd" d="M18.2071 16.9024C18.3162 16.5749 18.6702 16.3979 18.9976 16.5071L19.8976 16.8071C20.2251 16.9162 20.4021 17.2702 20.2929 17.5976C20.1838 17.9251 19.8298 18.1021 19.5024 17.9929L18.6024 17.6929C18.2749 17.5838 18.0979 17.2298 18.2071 16.9024Z" fill="#4129A8"/>
<path fill-rule="evenodd" clip-rule="evenodd" d="M11.7071 14.4024C11.8162 14.0749 12.1702 13.8979 12.4976 14.0071L13.3976 14.3071C13.7251 14.4162 13.9021 14.7702 13.7929 15.0976C13.6838 15.4251 13.3298 15.6021 13.0024 15.4929L12.1024 15.1929C11.7749 15.0838 11.5979 14.7298 11.7071 14.4024Z" fill="#4129A8"/>
<path fill-rule="evenodd" clip-rule="evenodd" d="M15.0976 18.2071C15.4251 18.3162 15.6021 18.6702 15.4929 18.9976L15.1929 19.8976C15.0838 20.2251 14.7298 20.4021 14.4024 20.2929C14.0749 20.1838 13.8979 19.8298 14.0071 19.5024L14.3071 18.6024C14.4162 18.2749 14.7702 18.0979 15.0976 18.2071Z" fill="#4129A8"/>
<path fill-rule="evenodd" clip-rule="evenodd" d="M16.9679 18.1197C17.2884 17.9915 17.6521 18.1474 17.7803 18.4679L18.1803 19.4679C18.3085 19.7884 18.1526 20.1521 17.8321 20.2803C17.5116 20.4085 17.1479 20.2526 17.0197 19.9321L16.6197 18.9321C16.4915 18.6116 16.6474 18.2479 16.9679 18.1197Z" fill="#4129A8"/>
<path fill-rule="evenodd" clip-rule="evenodd" d="M14.1679 11.7197C14.4884 11.5915 14.8521 11.7474 14.9803 12.0679L15.3803 13.0679C15.5085 13.3884 15.3526 13.7521 15.0321 13.8803C14.7116 14.0085 14.3479 13.8526 14.2197 13.5321L13.8197 12.5321C13.6915 12.2116 13.8474 11.8479 14.1679 11.7197Z" fill="#4129A8"/>
<path fill-rule="evenodd" clip-rule="evenodd" d="M13.8803 16.9679C14.0085 17.2884 13.8526 17.6521 13.5321 17.7803L12.5321 18.1803C12.2116 18.3085 11.8479 18.1526 11.7197 17.8321C11.5915 17.5116 11.7474 17.1479 12.0679 17.0197L13.0679 16.6197C13.3884 16.4915 13.7521 16.6474 13.8803 16.9679Z" fill="#4129A8"/>
<path fill-rule="evenodd" clip-rule="evenodd" d="M20.2803 14.1679C20.4085 14.4884 20.2526 14.8521 19.9321 14.9803L18.9321 15.3803C18.6116 15.5085 18.2479 15.3526 18.1197 15.0321C17.9915 14.7116 18.1474 14.3479 18.4679 14.2197L19.4679 13.8197C19.7884 13.6915 20.1521 13.8474 20.2803 14.1679Z" fill="#4129A8"/>
<path fill-rule="evenodd" clip-rule="evenodd" d="M17.5976 11.7071C17.9251 11.8162 18.1021 12.1702 17.9929 12.4976L17.6929 13.3976C17.5838 13.7251 17.2298 13.9021 16.9024 13.7929C16.5749 13.6838 16.3979 13.3298 16.5071 13.0024L16.8071 12.1024C16.9162 11.7749 17.2702 11.5979 17.5976 11.7071Z" fill="#4129A8"/>
</svg>
