<svg width="32" height="32" viewBox="0 0 32 32" fill="none" xmlns="http://www.w3.org/2000/svg">
<rect width="32" height="32" rx="8" fill="#ECEAF6"/>
<path fill-rule="evenodd" clip-rule="evenodd" d="M8.14384 6.14384C8.63613 5.65156 9.30381 5.375 10 5.375H18.5C18.6658 5.375 18.8247 5.44085 18.9419 5.55806L24.4419 11.0581C24.5592 11.1753 24.625 11.3342 24.625 11.5V24C24.625 24.6962 24.3484 25.3639 23.8562 25.8562C23.3639 26.3484 22.6962 26.625 22 26.625H10C9.30381 26.625 8.63613 26.3484 8.14384 25.8562C7.65156 25.3639 7.375 24.6962 7.375 24V8C7.375 7.30381 7.65156 6.63613 8.14384 6.14384ZM10 6.625C9.63533 6.625 9.28559 6.76987 9.02773 7.02773C8.76987 7.28559 8.625 7.63533 8.625 8V24C8.625 24.3647 8.76987 24.7144 9.02773 24.9723C9.28559 25.2301 9.63533 25.375 10 25.375H22C22.3647 25.375 22.7144 25.2301 22.9723 24.9723C23.2301 24.7144 23.375 24.3647 23.375 24V11.7589L18.2411 6.625H10Z" fill="#4129A8"/>
<path fill-rule="evenodd" clip-rule="evenodd" d="M18 5.375C18.3452 5.375 18.625 5.65482 18.625 6V11.375H24C24.3452 11.375 24.625 11.6548 24.625 12C24.625 12.3452 24.3452 12.625 24 12.625H18C17.6548 12.625 17.375 12.3452 17.375 12V6C17.375 5.65482 17.6548 5.375 18 5.375Z" fill="#4129A8"/>
</svg>
