<svg width="32" height="32" viewBox="0 0 32 32" fill="none" xmlns="http://www.w3.org/2000/svg">
<rect width="32" height="32" rx="8" fill="#ECEAF6"/>
<path fill-rule="evenodd" clip-rule="evenodd" d="M11 6.625C10.2406 6.625 9.625 7.24061 9.625 8V12C9.625 12.7594 10.2406 13.375 11 13.375H21C21.7594 13.375 22.375 12.7594 22.375 12V8C22.375 7.24061 21.7594 6.625 21 6.625H11ZM8.375 8C8.375 6.55025 9.55025 5.375 11 5.375H21C22.4497 5.375 23.625 6.55025 23.625 8V12C23.625 13.4497 22.4497 14.625 21 14.625H11C9.55025 14.625 8.375 13.4497 8.375 12V8Z" fill="#4129A8"/>
<path fill-rule="evenodd" clip-rule="evenodd" d="M8 18.625C7.24061 18.625 6.625 19.2406 6.625 20V24C6.625 24.7594 7.24061 25.375 8 25.375H24C24.7594 25.375 25.375 24.7594 25.375 24V20C25.375 19.2406 24.7594 18.625 24 18.625H8ZM5.375 20C5.375 18.5503 6.55025 17.375 8 17.375H24C25.4497 17.375 26.625 18.5503 26.625 20V24C26.625 25.4497 25.4497 26.625 24 26.625H8C6.55025 26.625 5.375 25.4497 5.375 24V20Z" fill="#4129A8"/>
<path fill-rule="evenodd" clip-rule="evenodd" d="M9.375 22C9.375 21.6548 9.65482 21.375 10 21.375H12C12.3452 21.375 12.625 21.6548 12.625 22C12.625 22.3452 12.3452 22.625 12 22.625H10C9.65482 22.625 9.375 22.3452 9.375 22Z" fill="#4129A8"/>
<path fill-rule="evenodd" clip-rule="evenodd" d="M15.375 22C15.375 21.6548 15.6548 21.375 16 21.375H22C22.3452 21.375 22.625 21.6548 22.625 22C22.625 22.3452 22.3452 22.625 22 22.625H16C15.6548 22.625 15.375 22.3452 15.375 22Z" fill="#4129A8"/>
</svg>
