<svg width="32" height="32" viewBox="0 0 32 32" fill="none" xmlns="http://www.w3.org/2000/svg">
<rect width="32" height="32" rx="8" fill="#ECEAF6"/>
<path fill-rule="evenodd" clip-rule="evenodd" d="M17.9999 16.6363C16.2427 16.6363 14.8181 18.0609 14.8181 19.8181C14.8181 21.5754 16.2427 22.9999 17.9999 22.9999C19.7572 22.9999 21.1817 21.5754 21.1817 19.8181C21.1817 18.0609 19.7572 16.6363 17.9999 16.6363ZM13.9091 19.8181C13.9091 17.5588 15.7406 15.7272 17.9999 15.7272C20.2593 15.7272 22.0908 17.5588 22.0908 19.8181C22.0908 22.0774 20.2593 23.909 17.9999 23.909C15.7406 23.909 13.9091 22.0774 13.9091 19.8181Z" fill="#4129A8"/>
<path fill-rule="evenodd" clip-rule="evenodd" d="M20.2695 22.0876C20.447 21.9101 20.7348 21.9101 20.9123 22.0876L22.8669 24.0421C23.0444 24.2196 23.0444 24.5074 22.8669 24.685C22.6894 24.8625 22.4016 24.8625 22.224 24.685L20.2695 22.7304C20.092 22.5529 20.092 22.2651 20.2695 22.0876Z" fill="#4129A8"/>
<path fill-rule="evenodd" clip-rule="evenodd" d="M15.159 8C15.3473 8 15.5 8.15263 15.5 8.34091V12.0909H19.2499C19.4382 12.0909 19.5908 12.2435 19.5908 12.4318C19.5908 12.6201 19.4382 12.7727 19.2499 12.7727H15.159C14.9708 12.7727 14.8181 12.6201 14.8181 12.4318V8.34091C14.8181 8.15263 14.9708 8 15.159 8Z" fill="#4129A8"/>
<path fill-rule="evenodd" clip-rule="evenodd" d="M10.7273 13.1136C10.7273 12.9253 10.8799 12.7727 11.0682 12.7727H12.4318C12.6201 12.7727 12.7727 12.9253 12.7727 13.1136C12.7727 13.3019 12.6201 13.4545 12.4318 13.4545H11.0682C10.8799 13.4545 10.7273 13.3019 10.7273 13.1136Z" fill="#4129A8"/>
<path fill-rule="evenodd" clip-rule="evenodd" d="M9.70454 8C9.25246 8 8.81891 8.17958 8.49925 8.49925C8.17958 8.81891 8 9.25246 8 9.70454V20.6136C8 21.0656 8.17958 21.4992 8.49925 21.8189C8.81891 22.1385 9.25246 22.3181 9.70454 22.3181H13.4545V21.6363H9.70454C9.43329 21.6363 9.17316 21.5285 8.98136 21.3367C8.78956 21.1449 8.68181 20.8848 8.68181 20.6136V9.70454C8.68181 9.43329 8.78956 9.17316 8.98136 8.98136C9.17316 8.78956 9.43329 8.68181 9.70454 8.68181H15.3587L18.909 12.2321V15.5608H19.5908V12.0909C19.5908 12.0005 19.5549 11.9138 19.491 11.8498L15.741 8.09985C15.6771 8.03592 15.5904 8 15.5 8H9.70454Z" fill="#4129A8"/>
<path fill-rule="evenodd" clip-rule="evenodd" d="M10.7273 18.5681C10.7273 18.3798 10.8799 18.2272 11.0682 18.2272H13.9569L13.7456 18.909H11.0682C10.8799 18.909 10.7273 18.7564 10.7273 18.5681Z" fill="#4129A8"/>
<path fill-rule="evenodd" clip-rule="evenodd" d="M10.7273 15.8409C10.7273 15.6526 10.8799 15.5 11.0682 15.5H16.5063L15.2727 16.1818H11.0682C10.8799 16.1818 10.7273 16.0291 10.7273 15.8409Z" fill="#4129A8"/>
</svg>
