<svg width="32" height="32" viewBox="0 0 32 32" fill="none" xmlns="http://www.w3.org/2000/svg">
<rect width="32" height="32" rx="8" fill="#ECEAF6"/>
<path fill-rule="evenodd" clip-rule="evenodd" d="M16 6.625C14.9645 6.625 14.125 7.46447 14.125 8.5C14.125 9.53553 14.9645 10.375 16 10.375C17.0355 10.375 17.875 9.53553 17.875 8.5C17.875 7.46447 17.0355 6.625 16 6.625ZM12.875 8.5C12.875 6.77411 14.2741 5.375 16 5.375C17.7259 5.375 19.125 6.77411 19.125 8.5C19.125 10.2259 17.7259 11.625 16 11.625C14.2741 11.625 12.875 10.2259 12.875 8.5Z" fill="#4129A8"/>
<path fill-rule="evenodd" clip-rule="evenodd" d="M14.6419 9.85806C14.886 10.1021 14.886 10.4979 14.6419 10.7419L10.7419 14.6419C10.4979 14.886 10.1021 14.886 9.85806 14.6419C9.61398 14.3979 9.61398 14.0021 9.85806 13.7581L13.7581 9.85806C14.0021 9.61398 14.3979 9.61398 14.6419 9.85806Z" fill="#4129A8"/>
<path fill-rule="evenodd" clip-rule="evenodd" d="M8.5 14.125C7.46447 14.125 6.625 14.9645 6.625 16C6.625 17.0355 7.46447 17.875 8.5 17.875C9.53553 17.875 10.375 17.0355 10.375 16C10.375 14.9645 9.53553 14.125 8.5 14.125ZM5.375 16C5.375 14.2741 6.77411 12.875 8.5 12.875C10.2259 12.875 11.625 14.2741 11.625 16C11.625 17.7259 10.2259 19.125 8.5 19.125C6.77411 19.125 5.375 17.7259 5.375 16Z" fill="#4129A8"/>
<path fill-rule="evenodd" clip-rule="evenodd" d="M10.375 16C10.375 15.6548 10.6548 15.375 11 15.375H21C21.3452 15.375 21.625 15.6548 21.625 16C21.625 16.3452 21.3452 16.625 21 16.625H11C10.6548 16.625 10.375 16.3452 10.375 16Z" fill="#4129A8"/>
<path fill-rule="evenodd" clip-rule="evenodd" d="M23.5 14.125C22.4645 14.125 21.625 14.9645 21.625 16C21.625 17.0355 22.4645 17.875 23.5 17.875C24.5355 17.875 25.375 17.0355 25.375 16C25.375 14.9645 24.5355 14.125 23.5 14.125ZM20.375 16C20.375 14.2741 21.7741 12.875 23.5 12.875C25.2259 12.875 26.625 14.2741 26.625 16C26.625 17.7259 25.2259 19.125 23.5 19.125C21.7741 19.125 20.375 17.7259 20.375 16Z" fill="#4129A8"/>
<path fill-rule="evenodd" clip-rule="evenodd" d="M22.1419 17.3581C22.386 17.6021 22.386 17.9979 22.1419 18.2419L18.2419 22.1419C17.9979 22.386 17.6021 22.386 17.3581 22.1419C17.114 21.8979 17.114 21.5021 17.3581 21.2581L21.2581 17.3581C21.5021 17.114 21.8979 17.114 22.1419 17.3581Z" fill="#4129A8"/>
<path fill-rule="evenodd" clip-rule="evenodd" d="M16 21.625C14.9645 21.625 14.125 22.4645 14.125 23.5C14.125 24.5355 14.9645 25.375 16 25.375C17.0355 25.375 17.875 24.5355 17.875 23.5C17.875 22.4645 17.0355 21.625 16 21.625ZM12.875 23.5C12.875 21.7741 14.2741 20.375 16 20.375C17.7259 20.375 19.125 21.7741 19.125 23.5C19.125 25.2259 17.7259 26.625 16 26.625C14.2741 26.625 12.875 25.2259 12.875 23.5Z" fill="#4129A8"/>
</svg>
