<svg width="32" height="32" viewBox="0 0 32 32" fill="none" xmlns="http://www.w3.org/2000/svg">
<rect width="32" height="32" rx="8" fill="#ECEAF6"/>
<path fill-rule="evenodd" clip-rule="evenodd" d="M7.61893 7.64342C7.17062 7.64342 6.74067 7.82151 6.42367 8.13851C6.10666 8.45551 5.92857 8.88546 5.92857 9.33377V22.6663C5.92857 23.1146 6.10666 23.5445 6.42367 23.8615C6.74067 24.1785 7.17062 24.3566 7.61893 24.3566H13.809C13.9274 24.3566 14.0233 24.4526 14.0233 24.5709C14.0233 24.6893 13.9274 24.7852 13.809 24.7852H7.61893C7.05695 24.7852 6.518 24.562 6.12062 24.1646C5.72324 23.7672 5.5 23.2282 5.5 22.6663V9.33377C5.5 8.7718 5.72324 8.23284 6.12062 7.83546C6.518 7.43809 7.05695 7.21484 7.61893 7.21484H14.2857C14.3495 7.21484 14.4068 7.2427 14.446 7.28691L19.1895 12.0304C19.2337 12.0697 19.2616 12.127 19.2616 12.1907C19.2616 12.1959 19.2614 12.201 19.2611 12.206V14.0954C19.2611 14.2137 19.1651 14.3097 19.0468 14.3097C18.9284 14.3097 18.8325 14.2137 18.8325 14.0954V12.405H15.238C14.9286 12.405 14.6319 12.2821 14.4131 12.0633C14.1943 11.8445 14.0714 11.5478 14.0714 11.2384V7.64342H7.61893ZM14.5 11.2384V7.947L18.5295 11.9765H15.238C15.0423 11.9765 14.8546 11.8987 14.7162 11.7603C14.5778 11.6219 14.5 11.4342 14.5 11.2384Z" fill="#4129A8"/>
<path fill-rule="evenodd" clip-rule="evenodd" d="M21.5305 17.9626C20.9215 17.9626 20.7055 18.2236 20.7055 19.0366C20.7055 19.8496 20.9215 20.1106 21.5305 20.1106C22.1425 20.1106 22.3585 19.8496 22.3585 19.0366C22.3585 18.2236 22.1425 17.9626 21.5305 17.9626ZM21.5305 18.2296C21.9205 18.2296 22.0435 18.4246 22.0435 19.0366C22.0435 19.6486 21.9205 19.8436 21.5305 19.8436C21.1435 19.8436 21.0205 19.6486 21.0205 19.0366C21.0205 18.4246 21.1435 18.2296 21.5305 18.2296Z" fill="#4129A8"/>
<path d="M18.9971 18.5116C18.9971 18.0316 19.2101 17.9656 19.6781 17.9656C19.8731 17.9656 20.0921 17.9776 20.3021 18.0286L20.2841 18.2476L20.2133 18.2451C20.0517 18.2394 19.8595 18.2326 19.6901 18.2326C19.4081 18.2326 19.3001 18.2446 19.3001 18.5206C19.3001 18.7336 19.3751 18.7906 19.5491 18.8356L19.9601 18.9496C20.2811 19.0366 20.3801 19.2286 20.3801 19.5376C20.3801 20.0146 20.1731 20.1076 19.6751 20.1076C19.5431 20.1076 19.3121 20.1016 19.0241 20.0476L19.0451 19.8256C19.4201 19.8376 19.5251 19.8406 19.6811 19.8406C19.9841 19.8376 20.0741 19.7926 20.0741 19.5346C20.0741 19.3096 19.9961 19.2616 19.8281 19.2166L19.4081 19.0996C19.1051 19.0156 18.9971 18.8266 18.9971 18.5116Z" fill="#4129A8"/>
<path d="M18.5873 18.0016V20.0716H18.2873V18.0016H18.5873Z" fill="#4129A8"/>
<path d="M17.4101 21.2973V23.0716H17.153V21.6985C17.153 21.6445 17.1556 21.593 17.1659 21.539L16.739 21.6702L16.7081 21.4773L17.153 21.2973H17.4101Z" fill="#4129A8"/>
<path d="M19.175 22.4416H18.9436V21.6393H18.7456L18.6993 21.9273V22.4416H18.1336C18.0745 22.4416 18.041 22.4082 18.0719 22.3413L18.5502 21.2973H18.2982L17.807 22.3593C17.7453 22.5008 17.8302 22.6499 17.987 22.6499H18.6993V23.0716H18.9436V22.6499L19.175 22.6242V22.4416Z" fill="#4129A8"/>
<path fill-rule="evenodd" clip-rule="evenodd" d="M19.4402 22.1845C19.4402 21.5313 19.5997 21.2639 20.0625 21.2639C20.5254 21.2639 20.6848 21.5313 20.6848 22.1845C20.6848 22.8376 20.5254 23.105 20.0625 23.105C19.5997 23.105 19.4402 22.8376 19.4402 22.1845ZM20.4354 22.1845C20.4354 21.6728 20.3454 21.4876 20.06 21.4876C19.7822 21.4876 19.6922 21.6728 19.6922 22.1845C19.6922 22.6962 19.7822 22.8813 20.06 22.8813C20.3454 22.8813 20.4354 22.6962 20.4354 22.1845Z" fill="#4129A8"/>
<path fill-rule="evenodd" clip-rule="evenodd" d="M21.6965 21.9093C21.5062 21.9093 21.3853 21.9505 21.2645 22.0816C21.2799 21.5673 21.3982 21.485 21.7042 21.485C21.8635 21.485 21.9356 21.485 22.0513 21.4928L22.0719 21.305C21.9253 21.2665 21.7762 21.2665 21.7042 21.2665C21.2362 21.2665 21.0099 21.3925 21.0099 22.2179C21.0099 22.9019 21.1102 23.1025 21.6168 23.1025C22.1002 23.1025 22.185 22.8582 22.185 22.4905C22.185 22.0636 22.0719 21.9093 21.6965 21.9093ZM21.6193 22.8813C21.2928 22.8813 21.2645 22.745 21.2619 22.2642C21.3982 22.151 21.4933 22.1176 21.6296 22.1176C21.8765 22.1176 21.9408 22.2205 21.9408 22.4905C21.9408 22.745 21.9048 22.8813 21.6193 22.8813Z" fill="#4129A8"/>
<path d="M23.5742 22.4416H23.8056V22.6242L23.5742 22.6499V23.0716H23.3299V22.6499H22.6176C22.4608 22.6499 22.3759 22.5008 22.4376 22.3593L22.9288 21.2973H23.1808L22.7025 22.3413C22.6716 22.4082 22.705 22.4416 22.7642 22.4416H23.3299V21.9273L23.3762 21.6393H23.5742V22.4416Z" fill="#4129A8"/>
<path fill-rule="evenodd" clip-rule="evenodd" d="M16.6465 18.0961C17.0924 16.8224 18.3135 15.572 20.1786 15.572C22.1712 15.572 23.8557 17.0143 24.1639 19.3472C24.7156 19.4048 25.3113 19.5985 25.7899 19.9614C26.3285 20.3698 26.7143 20.9905 26.7143 21.8452C26.7143 22.6956 26.3925 23.3345 25.8591 23.7556C25.3328 24.171 24.6223 24.3577 23.8661 24.3577H17.0179C15.1828 24.3577 13.6429 23.081 13.6429 21.2184C13.6429 20.2648 14.0107 19.5149 14.5958 18.9858C15.1438 18.4902 15.8724 18.1965 16.6465 18.0961ZM20.1786 16.0006C18.4744 16.0006 17.3739 17.1783 17.012 18.3563C16.9866 18.4389 16.9142 18.4981 16.8283 18.5067C16.0736 18.5815 15.3823 18.8522 14.8832 19.3036C14.3884 19.7512 14.0714 20.3854 14.0714 21.2184C14.0714 22.8031 15.3761 23.9291 17.0179 23.9291H23.8661C24.5585 23.9291 25.165 23.7575 25.5935 23.4192C26.0149 23.0866 26.2857 22.5764 26.2857 21.8452C26.2857 21.1376 25.9735 20.6385 25.531 20.3029C25.0815 19.9621 24.4932 19.7885 23.9604 19.761C23.8546 19.7555 23.7688 19.6737 23.7582 19.5683C23.534 17.329 21.9811 16.0006 20.1786 16.0006Z" fill="#4129A8"/>
<path d="M7.34068 14.8328C7.34068 14.2692 7.49497 14.0678 7.92568 14.0678C8.11425 14.0678 8.21068 14.0807 8.33497 14.1107L8.31354 14.2757C8.18497 14.2628 8.09925 14.2585 7.92568 14.2585C7.65354 14.2585 7.56568 14.3978 7.56568 14.8328C7.56568 15.2678 7.65354 15.4071 7.92568 15.4071C8.10997 15.4071 8.22354 15.4028 8.34354 15.3835L8.36497 15.5464C8.23854 15.5828 8.12282 15.5978 7.92568 15.5978C7.49497 15.5978 7.34068 15.3964 7.34068 14.8328Z" fill="#4129A8"/>
<path fill-rule="evenodd" clip-rule="evenodd" d="M8.59054 14.5478C8.73839 14.5221 8.95268 14.4985 9.09839 14.4985C9.34054 14.4985 9.46911 14.5799 9.46911 14.8435V15.5721H9.30625L9.28268 15.4071C9.20554 15.4864 9.05554 15.5914 8.86482 15.5914C8.67411 15.5914 8.54554 15.4864 8.54554 15.2957V15.1864C8.54554 15.0192 8.65268 14.9249 8.84125 14.9249H9.26125V14.8435C9.25911 14.7149 9.21411 14.6742 9.05339 14.6742C8.95054 14.6742 8.77268 14.6871 8.60982 14.6999L8.59054 14.5478ZM8.87982 15.0814C8.78339 15.0857 8.75554 15.1349 8.75554 15.2142V15.2699C8.75554 15.3728 8.80268 15.4157 8.90768 15.4157C9.00196 15.4157 9.14125 15.3749 9.26125 15.2678V15.0814H8.87982Z" fill="#4129A8"/>
<path d="M10.0708 14.6871H10.3944V14.5264H10.0708V14.2199H9.86507V14.5264L9.67435 14.5371V14.6871H9.86507V15.2978C9.86507 15.4864 9.95935 15.5914 10.1372 15.5914C10.1929 15.5914 10.3151 15.5828 10.3836 15.5635L10.3601 15.4028H10.2079C10.1072 15.4028 10.0708 15.3685 10.0708 15.2699V14.6871Z" fill="#4129A8"/>
<path fill-rule="evenodd" clip-rule="evenodd" d="M10.7816 15.1499C10.803 15.3771 10.893 15.4242 11.0944 15.4242C11.2016 15.4242 11.3473 15.4114 11.4608 15.3985L11.4801 15.5357C11.3773 15.5807 11.1908 15.5978 11.0666 15.5978C10.7023 15.5978 10.563 15.4499 10.563 15.0471C10.563 14.6335 10.7087 14.4985 11.0473 14.4985C11.373 14.4985 11.5058 14.6207 11.5058 14.8499C11.5058 15.0385 11.4266 15.1499 11.2508 15.1499H10.7816ZM11.298 14.8499C11.2958 14.7235 11.2358 14.6742 11.058 14.6742C10.8544 14.6742 10.7858 14.7407 10.7773 14.9892H11.1951C11.283 14.9892 11.298 14.9142 11.298 14.8499Z" fill="#4129A8"/>
<path fill-rule="evenodd" clip-rule="evenodd" d="M12.7531 14.6378L12.7638 14.5264H12.4403C12.376 14.5071 12.2924 14.4985 12.1895 14.4985C11.8445 14.4985 11.7331 14.5949 11.7331 14.8371C11.7331 14.9721 11.7717 15.0621 11.8703 15.1135C11.776 15.1842 11.7524 15.3557 11.8553 15.4392C11.7395 15.5014 11.6881 15.5614 11.6881 15.6792C11.6881 15.9214 11.8145 16.0007 12.2003 16.0007C12.5817 16.0007 12.706 15.9214 12.706 15.6728C12.706 15.4971 12.6331 15.4049 12.4317 15.3749L12.046 15.3149C11.9474 15.2999 11.941 15.2121 11.9795 15.1521C12.0353 15.1628 12.106 15.1692 12.1874 15.1692C12.5281 15.1692 12.6417 15.0685 12.6417 14.8349C12.6417 14.7599 12.631 14.6999 12.6053 14.6528L12.7531 14.6378ZM12.1874 15.0128C11.9881 15.0128 11.9217 14.9635 11.9217 14.8349C11.9217 14.7021 11.9881 14.6571 12.1874 14.6571C12.3845 14.6571 12.4488 14.7021 12.4488 14.8349C12.4488 14.9635 12.3845 15.0128 12.1874 15.0128ZM12.5024 15.6621C12.5024 15.7971 12.4424 15.8249 12.1981 15.8249C11.9495 15.8249 11.8895 15.8035 11.8895 15.6621C11.8895 15.5849 11.9238 15.5378 11.9881 15.4842L12.3245 15.5271C12.4703 15.5485 12.5024 15.5614 12.5024 15.6621Z" fill="#4129A8"/>
<path fill-rule="evenodd" clip-rule="evenodd" d="M12.9109 15.0514C12.9109 14.6507 13.0459 14.4985 13.4102 14.4985C13.7745 14.4985 13.9095 14.6507 13.9095 15.0514C13.9095 15.4499 13.7745 15.5999 13.4102 15.5999C13.0459 15.5999 12.9109 15.4499 12.9109 15.0514ZM13.6931 15.0514C13.6931 14.7578 13.6266 14.6742 13.4102 14.6742C13.1938 14.6742 13.1273 14.7578 13.1273 15.0514C13.1273 15.3407 13.1938 15.4264 13.4102 15.4264C13.6266 15.4264 13.6931 15.3407 13.6931 15.0514Z" fill="#4129A8"/>
<path d="M14.853 14.4985H14.8037C14.6644 14.4985 14.5123 14.5692 14.3644 14.6871L14.343 14.5264H14.1823V15.5721H14.3902V14.8135C14.5509 14.7385 14.6537 14.6935 14.7652 14.6935H14.8294L14.853 14.4985Z" fill="#4129A8"/>
<path d="M15.7708 14.5264H15.9937L15.5887 15.6214C15.5179 15.8078 15.3829 16.0071 15.1087 16.0114L15.0872 15.8742C15.2565 15.8228 15.3401 15.7371 15.3937 15.6107L15.4087 15.5721H15.3658C15.3294 15.5721 15.3015 15.5528 15.2929 15.5185L14.9222 14.5264H15.1451L15.4044 15.2871C15.4194 15.3278 15.4322 15.3707 15.4408 15.4157H15.4708C15.481 15.3866 15.4911 15.3556 15.5006 15.3266L15.505 15.3132C15.508 15.3042 15.5109 15.2954 15.5137 15.2871L15.7708 14.5264Z" fill="#4129A8"/>
<path d="M7.48214 17.822C7.48214 17.7332 7.5541 17.6613 7.64286 17.6613H12.4643C12.553 17.6613 12.625 17.7332 12.625 17.822C12.625 17.9107 12.553 17.9827 12.4643 17.9827H7.64286C7.5541 17.9827 7.48214 17.9107 7.48214 17.822Z" fill="#4129A8"/>
<path d="M7.64286 20.3398C7.5541 20.3398 7.48214 20.4118 7.48214 20.5006C7.48214 20.5893 7.5541 20.6613 7.64286 20.6613H10.6429C10.7316 20.6613 10.8036 20.5893 10.8036 20.5006C10.8036 20.4118 10.7316 20.3398 10.6429 20.3398H7.64286Z" fill="#4129A8"/>
<path fill-rule="evenodd" clip-rule="evenodd" d="M7.61893 7.64342C7.17062 7.64342 6.74067 7.82151 6.42367 8.13851C6.10666 8.45551 5.92857 8.88546 5.92857 9.33377V22.6663C5.92857 23.1146 6.10666 23.5445 6.42367 23.8615C6.74067 24.1785 7.17062 24.3566 7.61893 24.3566H13.809C13.9274 24.3566 14.0233 24.4526 14.0233 24.5709C14.0233 24.6893 13.9274 24.7852 13.809 24.7852H7.61893C7.05695 24.7852 6.518 24.562 6.12062 24.1646C5.72324 23.7672 5.5 23.2282 5.5 22.6663V9.33377C5.5 8.7718 5.72324 8.23284 6.12062 7.83546C6.518 7.43809 7.05695 7.21484 7.61893 7.21484H14.2857C14.3495 7.21484 14.4068 7.2427 14.446 7.28691L19.1895 12.0304C19.2337 12.0697 19.2616 12.127 19.2616 12.1907C19.2616 12.1959 19.2614 12.201 19.2611 12.206V14.0954C19.2611 14.2137 19.1651 14.3097 19.0468 14.3097C18.9284 14.3097 18.8325 14.2137 18.8325 14.0954V12.405H15.238C14.9286 12.405 14.6319 12.2821 14.4131 12.0633C14.1943 11.8445 14.0714 11.5478 14.0714 11.2384V7.64342H7.61893ZM14.5 11.2384V7.947L18.5295 11.9765H15.238C15.0423 11.9765 14.8546 11.8987 14.7162 11.7603C14.5778 11.6219 14.5 11.4342 14.5 11.2384Z" stroke="#4129A8"/>
<path fill-rule="evenodd" clip-rule="evenodd" d="M21.5305 17.9626C20.9215 17.9626 20.7055 18.2236 20.7055 19.0366C20.7055 19.8496 20.9215 20.1106 21.5305 20.1106C22.1425 20.1106 22.3585 19.8496 22.3585 19.0366C22.3585 18.2236 22.1425 17.9626 21.5305 17.9626ZM21.5305 18.2296C21.9205 18.2296 22.0435 18.4246 22.0435 19.0366C22.0435 19.6486 21.9205 19.8436 21.5305 19.8436C21.1435 19.8436 21.0205 19.6486 21.0205 19.0366C21.0205 18.4246 21.1435 18.2296 21.5305 18.2296Z" stroke="#4129A8"/>
<path d="M18.9971 18.5116C18.9971 18.0316 19.2101 17.9656 19.6781 17.9656C19.8731 17.9656 20.0921 17.9776 20.3021 18.0286L20.2841 18.2476L20.2133 18.2451C20.0517 18.2394 19.8595 18.2326 19.6901 18.2326C19.4081 18.2326 19.3001 18.2446 19.3001 18.5206C19.3001 18.7336 19.3751 18.7906 19.5491 18.8356L19.9601 18.9496C20.2811 19.0366 20.3801 19.2286 20.3801 19.5376C20.3801 20.0146 20.1731 20.1076 19.6751 20.1076C19.5431 20.1076 19.3121 20.1016 19.0241 20.0476L19.0451 19.8256C19.4201 19.8376 19.5251 19.8406 19.6811 19.8406C19.9841 19.8376 20.0741 19.7926 20.0741 19.5346C20.0741 19.3096 19.9961 19.2616 19.8281 19.2166L19.4081 19.0996C19.1051 19.0156 18.9971 18.8266 18.9971 18.5116Z" stroke="#4129A8"/>
<path d="M18.5873 18.0016V20.0716H18.2873V18.0016H18.5873Z" stroke="#4129A8"/>
<path d="M17.4101 21.2973V23.0716H17.153V21.6985C17.153 21.6445 17.1556 21.593 17.1659 21.539L16.739 21.6702L16.7081 21.4773L17.153 21.2973H17.4101Z" stroke="#4129A8"/>
<path d="M19.175 22.4416H18.9436V21.6393H18.7456L18.6993 21.9273V22.4416H18.1336C18.0745 22.4416 18.041 22.4082 18.0719 22.3413L18.5502 21.2973H18.2982L17.807 22.3593C17.7453 22.5008 17.8302 22.6499 17.987 22.6499H18.6993V23.0716H18.9436V22.6499L19.175 22.6242V22.4416Z" stroke="#4129A8"/>
<path fill-rule="evenodd" clip-rule="evenodd" d="M19.4402 22.1845C19.4402 21.5313 19.5997 21.2639 20.0625 21.2639C20.5254 21.2639 20.6848 21.5313 20.6848 22.1845C20.6848 22.8376 20.5254 23.105 20.0625 23.105C19.5997 23.105 19.4402 22.8376 19.4402 22.1845ZM20.4354 22.1845C20.4354 21.6728 20.3454 21.4876 20.06 21.4876C19.7822 21.4876 19.6922 21.6728 19.6922 22.1845C19.6922 22.6962 19.7822 22.8813 20.06 22.8813C20.3454 22.8813 20.4354 22.6962 20.4354 22.1845Z" stroke="#4129A8"/>
<path fill-rule="evenodd" clip-rule="evenodd" d="M21.6965 21.9093C21.5062 21.9093 21.3853 21.9505 21.2645 22.0816C21.2799 21.5673 21.3982 21.485 21.7042 21.485C21.8635 21.485 21.9356 21.485 22.0513 21.4928L22.0719 21.305C21.9253 21.2665 21.7762 21.2665 21.7042 21.2665C21.2362 21.2665 21.0099 21.3925 21.0099 22.2179C21.0099 22.9019 21.1102 23.1025 21.6168 23.1025C22.1002 23.1025 22.185 22.8582 22.185 22.4905C22.185 22.0636 22.0719 21.9093 21.6965 21.9093ZM21.6193 22.8813C21.2928 22.8813 21.2645 22.745 21.2619 22.2642C21.3982 22.151 21.4933 22.1176 21.6296 22.1176C21.8765 22.1176 21.9408 22.2205 21.9408 22.4905C21.9408 22.745 21.9048 22.8813 21.6193 22.8813Z" stroke="#4129A8"/>
<path d="M23.5742 22.4416H23.8056V22.6242L23.5742 22.6499V23.0716H23.3299V22.6499H22.6176C22.4608 22.6499 22.3759 22.5008 22.4376 22.3593L22.9288 21.2973H23.1808L22.7025 22.3413C22.6716 22.4082 22.705 22.4416 22.7642 22.4416H23.3299V21.9273L23.3762 21.6393H23.5742V22.4416Z" stroke="#4129A8"/>
<path fill-rule="evenodd" clip-rule="evenodd" d="M16.6465 18.0961C17.0924 16.8224 18.3135 15.572 20.1786 15.572C22.1712 15.572 23.8557 17.0143 24.1639 19.3472C24.7156 19.4048 25.3113 19.5985 25.7899 19.9614C26.3285 20.3698 26.7143 20.9905 26.7143 21.8452C26.7143 22.6956 26.3925 23.3345 25.8591 23.7556C25.3328 24.171 24.6223 24.3577 23.8661 24.3577H17.0179C15.1828 24.3577 13.6429 23.081 13.6429 21.2184C13.6429 20.2648 14.0107 19.5149 14.5958 18.9858C15.1438 18.4902 15.8724 18.1965 16.6465 18.0961ZM20.1786 16.0006C18.4744 16.0006 17.3739 17.1783 17.012 18.3563C16.9866 18.4389 16.9142 18.4981 16.8283 18.5067C16.0736 18.5815 15.3823 18.8522 14.8832 19.3036C14.3884 19.7512 14.0714 20.3854 14.0714 21.2184C14.0714 22.8031 15.3761 23.9291 17.0179 23.9291H23.8661C24.5585 23.9291 25.165 23.7575 25.5935 23.4192C26.0149 23.0866 26.2857 22.5764 26.2857 21.8452C26.2857 21.1376 25.9735 20.6385 25.531 20.3029C25.0815 19.9621 24.4932 19.7885 23.9604 19.761C23.8546 19.7555 23.7688 19.6737 23.7582 19.5683C23.534 17.329 21.9811 16.0006 20.1786 16.0006Z" stroke="#4129A8"/>
<path d="M7.34068 14.8328C7.34068 14.2692 7.49497 14.0678 7.92568 14.0678C8.11425 14.0678 8.21068 14.0807 8.33497 14.1107L8.31354 14.2757C8.18497 14.2628 8.09925 14.2585 7.92568 14.2585C7.65354 14.2585 7.56568 14.3978 7.56568 14.8328C7.56568 15.2678 7.65354 15.4071 7.92568 15.4071C8.10997 15.4071 8.22354 15.4028 8.34354 15.3835L8.36497 15.5464C8.23854 15.5828 8.12282 15.5978 7.92568 15.5978C7.49497 15.5978 7.34068 15.3964 7.34068 14.8328Z" stroke="#4129A8"/>
<path fill-rule="evenodd" clip-rule="evenodd" d="M8.59054 14.5478C8.73839 14.5221 8.95268 14.4985 9.09839 14.4985C9.34054 14.4985 9.46911 14.5799 9.46911 14.8435V15.5721H9.30625L9.28268 15.4071C9.20554 15.4864 9.05554 15.5914 8.86482 15.5914C8.67411 15.5914 8.54554 15.4864 8.54554 15.2957V15.1864C8.54554 15.0192 8.65268 14.9249 8.84125 14.9249H9.26125V14.8435C9.25911 14.7149 9.21411 14.6742 9.05339 14.6742C8.95054 14.6742 8.77268 14.6871 8.60982 14.6999L8.59054 14.5478ZM8.87982 15.0814C8.78339 15.0857 8.75554 15.1349 8.75554 15.2142V15.2699C8.75554 15.3728 8.80268 15.4157 8.90768 15.4157C9.00196 15.4157 9.14125 15.3749 9.26125 15.2678V15.0814H8.87982Z" stroke="#4129A8"/>
<path d="M10.0708 14.6871H10.3944V14.5264H10.0708V14.2199H9.86507V14.5264L9.67435 14.5371V14.6871H9.86507V15.2978C9.86507 15.4864 9.95935 15.5914 10.1372 15.5914C10.1929 15.5914 10.3151 15.5828 10.3836 15.5635L10.3601 15.4028H10.2079C10.1072 15.4028 10.0708 15.3685 10.0708 15.2699V14.6871Z" stroke="#4129A8"/>
<path fill-rule="evenodd" clip-rule="evenodd" d="M10.7816 15.1499C10.803 15.3771 10.893 15.4242 11.0944 15.4242C11.2016 15.4242 11.3473 15.4114 11.4608 15.3985L11.4801 15.5357C11.3773 15.5807 11.1908 15.5978 11.0666 15.5978C10.7023 15.5978 10.563 15.4499 10.563 15.0471C10.563 14.6335 10.7087 14.4985 11.0473 14.4985C11.373 14.4985 11.5058 14.6207 11.5058 14.8499C11.5058 15.0385 11.4266 15.1499 11.2508 15.1499H10.7816ZM11.298 14.8499C11.2958 14.7235 11.2358 14.6742 11.058 14.6742C10.8544 14.6742 10.7858 14.7407 10.7773 14.9892H11.1951C11.283 14.9892 11.298 14.9142 11.298 14.8499Z" stroke="#4129A8"/>
<path fill-rule="evenodd" clip-rule="evenodd" d="M12.7531 14.6378L12.7638 14.5264H12.4403C12.376 14.5071 12.2924 14.4985 12.1895 14.4985C11.8445 14.4985 11.7331 14.5949 11.7331 14.8371C11.7331 14.9721 11.7717 15.0621 11.8703 15.1135C11.776 15.1842 11.7524 15.3557 11.8553 15.4392C11.7395 15.5014 11.6881 15.5614 11.6881 15.6792C11.6881 15.9214 11.8145 16.0007 12.2003 16.0007C12.5817 16.0007 12.706 15.9214 12.706 15.6728C12.706 15.4971 12.6331 15.4049 12.4317 15.3749L12.046 15.3149C11.9474 15.2999 11.941 15.2121 11.9795 15.1521C12.0353 15.1628 12.106 15.1692 12.1874 15.1692C12.5281 15.1692 12.6417 15.0685 12.6417 14.8349C12.6417 14.7599 12.631 14.6999 12.6053 14.6528L12.7531 14.6378ZM12.1874 15.0128C11.9881 15.0128 11.9217 14.9635 11.9217 14.8349C11.9217 14.7021 11.9881 14.6571 12.1874 14.6571C12.3845 14.6571 12.4488 14.7021 12.4488 14.8349C12.4488 14.9635 12.3845 15.0128 12.1874 15.0128ZM12.5024 15.6621C12.5024 15.7971 12.4424 15.8249 12.1981 15.8249C11.9495 15.8249 11.8895 15.8035 11.8895 15.6621C11.8895 15.5849 11.9238 15.5378 11.9881 15.4842L12.3245 15.5271C12.4703 15.5485 12.5024 15.5614 12.5024 15.6621Z" stroke="#4129A8"/>
<path fill-rule="evenodd" clip-rule="evenodd" d="M12.9109 15.0514C12.9109 14.6507 13.0459 14.4985 13.4102 14.4985C13.7745 14.4985 13.9095 14.6507 13.9095 15.0514C13.9095 15.4499 13.7745 15.5999 13.4102 15.5999C13.0459 15.5999 12.9109 15.4499 12.9109 15.0514ZM13.6931 15.0514C13.6931 14.7578 13.6266 14.6742 13.4102 14.6742C13.1938 14.6742 13.1273 14.7578 13.1273 15.0514C13.1273 15.3407 13.1938 15.4264 13.4102 15.4264C13.6266 15.4264 13.6931 15.3407 13.6931 15.0514Z" stroke="#4129A8"/>
<path d="M14.853 14.4985H14.8037C14.6644 14.4985 14.5123 14.5692 14.3644 14.6871L14.343 14.5264H14.1823V15.5721H14.3902V14.8135C14.5509 14.7385 14.6537 14.6935 14.7652 14.6935H14.8294L14.853 14.4985Z" stroke="#4129A8"/>
<path d="M15.7708 14.5264H15.9937L15.5887 15.6214C15.5179 15.8078 15.3829 16.0071 15.1087 16.0114L15.0872 15.8742C15.2565 15.8228 15.3401 15.7371 15.3937 15.6107L15.4087 15.5721H15.3658C15.3294 15.5721 15.3015 15.5528 15.2929 15.5185L14.9222 14.5264H15.1451L15.4044 15.2871C15.4194 15.3278 15.4322 15.3707 15.4408 15.4157H15.4708C15.481 15.3866 15.4911 15.3556 15.5006 15.3266L15.505 15.3132C15.508 15.3042 15.5109 15.2954 15.5137 15.2871L15.7708 14.5264Z" stroke="#4129A8"/>
<path d="M7.48214 17.822C7.48214 17.7332 7.5541 17.6613 7.64286 17.6613H12.4643C12.553 17.6613 12.625 17.7332 12.625 17.822C12.625 17.9107 12.553 17.9827 12.4643 17.9827H7.64286C7.5541 17.9827 7.48214 17.9107 7.48214 17.822Z" stroke="#4129A8"/>
<path d="M7.64286 20.3398C7.5541 20.3398 7.48214 20.4118 7.48214 20.5006C7.48214 20.5893 7.5541 20.6613 7.64286 20.6613H10.6429C10.7316 20.6613 10.8036 20.5893 10.8036 20.5006C10.8036 20.4118 10.7316 20.3398 10.6429 20.3398H7.64286Z" stroke="#4129A8"/>
</svg>
