<svg width="32" height="32" viewBox="0 0 32 32" fill="none" xmlns="http://www.w3.org/2000/svg">
<rect width="32" height="32" rx="8" fill="#ECEAF6"/>
<path fill-rule="evenodd" clip-rule="evenodd" d="M20 22.6251C19.2406 22.6251 18.625 23.2407 18.625 24.0001C18.625 24.7595 19.2406 25.3751 20 25.3751C20.7594 25.3751 21.375 24.7595 21.375 24.0001C21.375 23.2407 20.7594 22.6251 20 22.6251ZM17.375 24.0001C17.375 22.5503 18.5503 21.3751 20 21.3751C21.4497 21.3751 22.625 22.5503 22.625 24.0001C22.625 25.4498 21.4497 26.6251 20 26.6251C18.5503 26.6251 17.375 25.4498 17.375 24.0001Z" fill="#4129A8"/>
<path fill-rule="evenodd" clip-rule="evenodd" d="M12.5659 7.78637C12.3629 7.67827 12.1361 7.62281 11.9061 7.62507L11.9 7.62513L8 7.6251C7.63533 7.6251 7.28559 7.76996 7.02773 8.02782C6.76987 8.28569 6.625 8.63542 6.625 9.0001V22.0001C6.625 22.3648 6.76987 22.7145 7.02773 22.9724C7.28559 23.2302 7.63533 23.3751 8 23.3751H14C14.3452 23.3751 14.625 23.6549 14.625 24.0001C14.625 24.3453 14.3452 24.6251 14 24.6251H8C7.30381 24.6251 6.63613 24.3485 6.14384 23.8563C5.65156 23.364 5.375 22.6963 5.375 22.0001V9.0001C5.375 8.3039 5.65156 7.63622 6.14384 7.14394C6.63613 6.65166 7.30381 6.3751 8 6.3751H11.8971C12.335 6.37135 12.7669 6.47721 13.1535 6.68307C13.5399 6.88883 13.8686 7.18796 14.1099 7.5532L14.922 8.75632C15.0472 8.94644 15.2176 9.10252 15.418 9.21051C15.6184 9.31849 15.8424 9.37504 16.07 9.3751H24C24.6962 9.3751 25.3639 9.65166 25.8562 10.1439C26.3484 10.6362 26.625 11.3039 26.625 12.0001V14.0001C26.625 14.3453 26.3452 14.6251 26 14.6251C25.6548 14.6251 25.375 14.3453 25.375 14.0001V12.0001C25.375 11.6354 25.2301 11.2857 24.9723 11.0278C24.7144 10.77 24.3647 10.6251 24 10.6251H16.07C15.6354 10.625 15.2076 10.5171 14.825 10.3109C14.4436 10.1053 14.1189 9.80853 13.8801 9.44703L13.068 8.24384C12.9415 8.05177 12.7689 7.89446 12.5659 7.78637Z" fill="#4129A8"/>
<path fill-rule="evenodd" clip-rule="evenodd" d="M26.4419 17.5582C26.686 17.8022 26.686 18.198 26.4419 18.442L21.9419 22.942C21.6979 23.1861 21.3021 23.1861 21.0581 22.942C20.814 22.698 20.814 22.3022 21.0581 22.0582L25.5581 17.5582C25.8021 17.3141 26.1979 17.3141 26.4419 17.5582Z" fill="#4129A8"/>
<path fill-rule="evenodd" clip-rule="evenodd" d="M24.5581 18.5582C24.8021 18.3141 25.1979 18.3141 25.4419 18.5582L26.4419 19.5582C26.686 19.8022 26.686 20.198 26.4419 20.442C26.1979 20.6861 25.8021 20.6861 25.5581 20.442L24.5581 19.442C24.314 19.198 24.314 18.8022 24.5581 18.5582Z" fill="#4129A8"/>
</svg>
