<svg width="32" height="32" viewBox="0 0 32 32" fill="none" xmlns="http://www.w3.org/2000/svg">
<rect width="32" height="32" rx="8" fill="#ECEAF6"/>
<path fill-rule="evenodd" clip-rule="evenodd" d="M23.2093 21.8488C23.5794 21.8488 23.9343 21.7018 24.196 21.4401C24.4576 21.1785 24.6047 20.8236 24.6047 20.4535V11.1512C24.6047 10.7811 24.4576 10.4262 24.196 10.1645C23.9343 9.90282 23.5794 9.75581 23.2093 9.75581H22.2791C22.0222 9.75581 21.814 9.54757 21.814 9.2907C21.814 9.03382 22.0222 8.82558 22.2791 8.82558H23.2093C23.8261 8.82558 24.4176 9.0706 24.8537 9.50673C25.2899 9.94286 25.5349 10.5344 25.5349 11.1512V20.4535C25.5349 21.0703 25.2899 21.6618 24.8537 22.0979C24.4176 22.5341 23.8261 22.7791 23.2093 22.7791H8.32558C7.7088 22.7791 7.11728 22.5341 6.68115 22.0979C6.24502 21.6618 6 21.0703 6 20.4535V11.1512C6 10.5344 6.24502 9.94286 6.68115 9.50673C7.11728 9.0706 7.7088 8.82558 8.32558 8.82558H9.25581C9.51269 8.82558 9.72093 9.03382 9.72093 9.2907C9.72093 9.54757 9.51269 9.75581 9.25581 9.75581H8.32558C7.95551 9.75581 7.6006 9.90282 7.33892 10.1645C7.07724 10.4262 6.93023 10.7811 6.93023 11.1512V20.4535C6.93023 20.8236 7.07724 21.1785 7.33892 21.4401C7.6006 21.7018 7.95551 21.8488 8.32558 21.8488H23.2093Z" fill="#4129A8"/>
<path fill-rule="evenodd" clip-rule="evenodd" d="M12.5116 26.0349C12.5116 25.778 12.7199 25.5698 12.9767 25.5698H20.4186C20.6755 25.5698 20.8837 25.778 20.8837 26.0349C20.8837 26.2918 20.6755 26.5 20.4186 26.5H12.9767C12.7199 26.5 12.5116 26.2918 12.5116 26.0349Z" fill="#4129A8"/>
<path fill-rule="evenodd" clip-rule="evenodd" d="M16.6977 21.8488C16.9546 21.8488 17.1628 22.0571 17.1628 22.314V26.0349C17.1628 26.2918 16.9546 26.5 16.6977 26.5C16.4408 26.5 16.2326 26.2918 16.2326 26.0349V22.314C16.2326 22.0571 16.4408 21.8488 16.6977 21.8488Z" fill="#4129A8"/>
<path fill-rule="evenodd" clip-rule="evenodd" d="M10.6512 13.9419C10.6512 14.8105 11.2042 15.3372 11.6744 15.3372H13.907C14.1639 15.3372 14.3721 15.5454 14.3721 15.8023C14.3721 16.0592 14.1639 16.2674 13.907 16.2674H11.6744C10.5074 16.2674 9.72093 15.1198 9.72093 13.9419C9.72093 13.685 9.92917 13.4767 10.186 13.4767C10.4429 13.4767 10.6512 13.685 10.6512 13.9419Z" fill="#4129A8"/>
<path fill-rule="evenodd" clip-rule="evenodd" d="M16.6977 18.1279C16.4408 18.1279 16.2326 17.9197 16.2326 17.6628V7.43023C16.2326 7.17336 16.4408 6.96512 16.6977 6.96512C16.9545 6.96512 17.1628 7.17336 17.1628 7.43023L17.1628 17.6628C17.1628 17.9197 16.9546 18.1279 16.6977 18.1279Z" fill="#4129A8"/>
<path fill-rule="evenodd" clip-rule="evenodd" d="M19.4884 18.1279C19.2315 18.1279 19.0233 17.9197 19.0233 17.6628V13.4767C19.0233 12.9998 19.1912 12.533 19.504 12.1811C19.8185 11.8273 20.2575 11.6163 20.7287 11.6163H21.3488C21.6057 11.6163 21.814 11.8245 21.814 12.0814C21.814 12.3383 21.6057 12.5465 21.3488 12.5465H20.7287C20.542 12.5465 20.35 12.6295 20.1993 12.7991C20.0469 12.9705 19.9535 13.2135 19.9535 13.4767V17.6628C19.9535 17.9197 19.7452 18.1279 19.4884 18.1279Z" fill="#4129A8"/>
<path fill-rule="evenodd" clip-rule="evenodd" d="M13.907 18.1279C13.6501 18.1279 13.4419 17.9197 13.4419 17.6628L13.4419 12.0814C13.4419 11.8245 13.6501 11.6163 13.907 11.6163C14.1639 11.6163 14.3721 11.8245 14.3721 12.0814V17.6628C14.3721 17.9197 14.1639 18.1279 13.907 18.1279Z" fill="#4129A8"/>
<path d="M11.1163 13.9419C11.1163 14.4556 10.6998 14.8721 10.186 14.8721C9.67229 14.8721 9.25581 14.4556 9.25581 13.9419C9.25581 13.4281 9.67229 13.0116 10.186 13.0116C10.6998 13.0116 11.1163 13.4281 11.1163 13.9419Z" fill="#4129A8"/>
<path d="M14.8372 12.0814C14.8372 12.5951 14.4207 13.0116 13.907 13.0116C13.3932 13.0116 12.9767 12.5951 12.9767 12.0814C12.9767 11.5676 13.3932 11.1512 13.907 11.1512C14.4207 11.1512 14.8372 11.5676 14.8372 12.0814Z" fill="#4129A8"/>
<path d="M17.6279 7.43023C17.6279 7.94399 17.2114 8.36047 16.6977 8.36047C16.1839 8.36047 15.7674 7.94399 15.7674 7.43023C15.7674 6.91648 16.1839 6.5 16.6977 6.5C17.2114 6.5 17.6279 6.91648 17.6279 7.43023Z" fill="#4129A8"/>
<path d="M22.2791 12.0814C22.2791 12.5951 21.8626 13.0116 21.3488 13.0116C20.8351 13.0116 20.4186 12.5951 20.4186 12.0814C20.4186 11.5676 20.8351 11.1512 21.3488 11.1512C21.8626 11.1512 22.2791 11.5676 22.2791 12.0814Z" fill="#4129A8"/>
</svg>
