<svg width="32" height="32" viewBox="0 0 32 32" fill="none" xmlns="http://www.w3.org/2000/svg">
<rect width="32" height="32" rx="8" fill="#ECEAF6"/>
<path fill-rule="evenodd" clip-rule="evenodd" d="M8.9835 7.40118C8.56384 7.40118 8.16137 7.56789 7.86463 7.86463C7.56789 8.16137 7.40118 8.56384 7.40118 8.9835V21.4639C7.40118 21.8835 7.56789 22.286 7.86463 22.5827C8.16137 22.8795 8.56384 23.0462 8.9835 23.0462H14.778C14.8887 23.0462 14.9785 23.136 14.9785 23.2468C14.9785 23.3576 14.8887 23.4474 14.778 23.4474H8.9835C8.45744 23.4474 7.95293 23.2384 7.58095 22.8664C7.20898 22.4944 7 21.9899 7 21.4639V8.9835C7 8.45744 7.20898 7.95293 7.58095 7.58095C7.95293 7.20898 8.45744 7 8.9835 7H15.2242C15.2839 7 15.3375 7.02608 15.3742 7.06746L19.8146 11.5078C19.856 11.5446 19.8821 11.5982 19.8821 11.6579C19.8821 11.6627 19.8819 11.6675 19.8816 11.6722V13.4408C19.8816 13.5516 19.7917 13.6414 19.681 13.6414C19.5702 13.6414 19.4804 13.5516 19.4804 13.4408V11.8585H16.1156C15.826 11.8585 15.5482 11.7434 15.3435 11.5386C15.1387 11.3338 15.0236 11.056 15.0236 10.7664V7.40118H8.9835ZM15.4248 10.7664V7.68536L19.1967 11.4573H16.1156C15.9324 11.4573 15.7567 11.3845 15.6271 11.2549C15.4976 11.1254 15.4248 10.9496 15.4248 10.7664Z" fill="#4129A8"/>
<path d="M9.0059 12.0649C8.92281 12.0649 8.85546 12.1323 8.85546 12.2153C8.85546 12.2984 8.92281 12.3658 9.0059 12.3658H12.5162C12.5993 12.3658 12.6667 12.2984 12.6667 12.2153C12.6667 12.1323 12.5993 12.0649 12.5162 12.0649H9.0059Z" fill="#4129A8"/>
<path d="M8.80531 14.7729C8.72222 14.7729 8.65487 14.8402 8.65487 14.9233C8.65487 15.0064 8.72222 15.0737 8.80531 15.0737H14.2212C14.3043 15.0737 14.3717 15.0064 14.3717 14.9233C14.3717 14.8402 14.3043 14.7729 14.2212 14.7729H8.80531Z" fill="#4129A8"/>
<path d="M8.65487 17.531C8.65487 17.4479 8.72222 17.3805 8.80531 17.3805H12.4159C12.499 17.3805 12.5664 17.4479 12.5664 17.531C12.5664 17.6141 12.499 17.6814 12.4159 17.6814H8.80531C8.72222 17.6814 8.65487 17.6141 8.65487 17.531Z" fill="#4129A8"/>
<path fill-rule="evenodd" clip-rule="evenodd" d="M16.9543 14.6726C16.6151 14.6726 16.2899 14.8073 16.0501 15.0471C15.8102 15.2869 15.6755 15.6122 15.6755 15.9513V22.7212C15.6755 23.0604 15.8102 23.3856 16.0501 23.6255C16.2899 23.8653 16.6151 24 16.9543 24H23.7242C24.0633 24 24.3886 23.8653 24.6284 23.6255C24.8682 23.3856 25.0029 23.0604 25.0029 22.7212V15.9513C25.0029 15.6122 24.8682 15.2869 24.6284 15.0471C24.3886 14.8073 24.0633 14.6726 23.7242 14.6726H16.9543ZM16.9543 14.9735C16.6949 14.9735 16.4462 15.0765 16.2628 15.2599C16.0794 15.4433 15.9764 15.692 15.9764 15.9513V16.9292H24.7021V15.9513C24.7021 15.692 24.599 15.4433 24.4156 15.2599C24.2323 15.0765 23.9835 14.9735 23.7242 14.9735H16.9543ZM24.7021 17.2301H15.9764V22.7212C15.9764 22.9806 16.0794 23.2293 16.2628 23.4127C16.4462 23.5961 16.6949 23.6991 16.9543 23.6991H23.7242C23.9835 23.6991 24.2323 23.5961 24.4156 23.4127C24.599 23.2293 24.7021 22.9806 24.7021 22.7212V17.2301Z" fill="#4129A8"/>
<path d="M22.7645 21.4776C22.4907 21.4776 22.2591 21.4261 22.0695 21.3231C21.8823 21.2202 21.7395 21.0739 21.6412 20.8843C21.5429 20.6948 21.4938 20.4701 21.4938 20.2104C21.4938 20.0138 21.5219 19.8371 21.578 19.6803C21.6366 19.5235 21.7196 19.3901 21.8273 19.2801C21.9373 19.1678 22.0707 19.0824 22.2275 19.0239C22.3843 18.963 22.5621 18.9326 22.761 18.9326C22.8921 18.9326 23.0231 18.949 23.1542 18.9817C23.2876 19.0122 23.4128 19.0648 23.5298 19.1397C23.5696 19.1654 23.5953 19.197 23.607 19.2345C23.6211 19.2719 23.6234 19.3105 23.614 19.3503C23.6047 19.3878 23.5871 19.4205 23.5614 19.4486C23.5356 19.4767 23.5029 19.4942 23.4631 19.5013C23.4256 19.5083 23.3835 19.4989 23.3367 19.4732C23.2478 19.4217 23.1577 19.3843 23.0664 19.3609C22.9752 19.3375 22.8734 19.3257 22.761 19.3257C22.5879 19.3257 22.4416 19.3609 22.3222 19.4311C22.2029 19.4989 22.1128 19.5984 22.0519 19.7294C21.9934 19.8605 21.9642 20.0208 21.9642 20.2104C21.9642 20.4982 22.0332 20.717 22.1713 20.8668C22.3094 21.0166 22.5141 21.0914 22.7856 21.0914C22.8792 21.0914 22.974 21.0821 23.0699 21.0634C23.1659 21.0446 23.2595 21.0189 23.3508 20.9861L23.263 21.1862V20.4385H22.8769C22.8184 20.4385 22.7727 20.4233 22.74 20.3929C22.7095 20.3625 22.6943 20.3215 22.6943 20.27C22.6943 20.2162 22.7095 20.1752 22.74 20.1472C22.7727 20.1191 22.8184 20.105 22.8769 20.105H23.4561C23.5146 20.105 23.559 20.1214 23.5895 20.1542C23.6222 20.1846 23.6386 20.2291 23.6386 20.2876V21.1406C23.6386 21.1921 23.6281 21.2354 23.607 21.2705C23.5883 21.3056 23.5567 21.3313 23.5122 21.3477C23.4093 21.3851 23.2911 21.4167 23.1577 21.4425C23.0243 21.4659 22.8932 21.4776 22.7645 21.4776Z" fill="#4129A8"/>
<path d="M20.213 21.4776C20.1101 21.4776 20.0071 21.4694 19.9041 21.453C19.8012 21.439 19.704 21.4167 19.6128 21.3863C19.5215 21.3535 19.4396 21.3138 19.367 21.267C19.3249 21.2389 19.2957 21.2049 19.2793 21.1652C19.2629 21.1254 19.2571 21.0868 19.2617 21.0493C19.2688 21.0095 19.284 20.9756 19.3074 20.9475C19.3331 20.9171 19.3647 20.8984 19.4022 20.8914C19.4396 20.8843 19.4805 20.8949 19.525 20.9229C19.628 20.9838 19.7368 21.0283 19.8515 21.0563C19.9661 21.0844 20.0867 21.0985 20.213 21.0985C20.3979 21.0985 20.5325 21.068 20.6167 21.0072C20.701 20.944 20.7431 20.8633 20.7431 20.765C20.7431 20.6831 20.7127 20.6187 20.6518 20.5719C20.5933 20.5251 20.4915 20.4865 20.3464 20.4561L19.9603 20.3753C19.738 20.3285 19.5718 20.2501 19.4618 20.1401C19.3542 20.0278 19.3004 19.8804 19.3004 19.6978C19.3004 19.5832 19.3238 19.479 19.3706 19.3854C19.4174 19.2918 19.4829 19.2111 19.5671 19.1432C19.6537 19.0753 19.7555 19.0239 19.8725 18.9888C19.9919 18.9513 20.1229 18.9326 20.2657 18.9326C20.4061 18.9326 20.5395 18.9501 20.6659 18.9852C20.7922 19.0204 20.9057 19.0718 21.0064 19.1397C21.0438 19.1654 21.0684 19.197 21.0801 19.2345C21.0941 19.2719 21.0976 19.3094 21.0906 19.3468C21.0836 19.3819 21.0672 19.4123 21.0415 19.4381C21.0157 19.4638 20.983 19.479 20.9432 19.4837C20.9057 19.4884 20.8624 19.4767 20.8133 19.4486C20.7267 19.3995 20.639 19.3644 20.55 19.3433C20.4611 19.3222 20.3652 19.3117 20.2622 19.3117C20.1545 19.3117 20.0621 19.3269 19.9849 19.3573C19.9076 19.3878 19.848 19.4311 19.8058 19.4872C19.7661 19.541 19.7462 19.6054 19.7462 19.6803C19.7462 19.7645 19.7742 19.8324 19.8304 19.8839C19.8866 19.933 19.9825 19.9716 20.1183 19.9997L20.5009 20.0805C20.7326 20.1296 20.9046 20.2068 21.0169 20.3122C21.1316 20.4175 21.1889 20.5579 21.1889 20.7334C21.1889 20.8457 21.1655 20.9475 21.1187 21.0388C21.0742 21.1301 21.0087 21.2085 20.9221 21.274C20.8379 21.3395 20.7361 21.3898 20.6167 21.4249C20.4974 21.46 20.3628 21.4776 20.213 21.4776Z" fill="#4129A8"/>
<path d="M17.5385 21.4425C17.4613 21.4425 17.4016 21.4226 17.3595 21.3828C17.3197 21.3407 17.2998 21.281 17.2998 21.2038V19.2064C17.2998 19.1292 17.3197 19.0707 17.3595 19.0309C17.4016 18.9888 17.4613 18.9677 17.5385 18.9677H18.7917C18.8502 18.9677 18.8947 18.9829 18.9251 19.0133C18.9579 19.0438 18.9742 19.0871 18.9742 19.1432C18.9742 19.2017 18.9579 19.2474 18.9251 19.2801C18.8947 19.3105 18.8502 19.3258 18.7917 19.3258H17.7316V20.0068H18.7145C18.7753 20.0068 18.821 20.022 18.8514 20.0524C18.8818 20.0828 18.897 20.1273 18.897 20.1858C18.897 20.2443 18.8818 20.2888 18.8514 20.3192C18.821 20.3496 18.7753 20.3648 18.7145 20.3648H17.7316V21.0844H18.7917C18.8502 21.0844 18.8947 21.0996 18.9251 21.1301C18.9579 21.1605 18.9742 21.2049 18.9742 21.2635C18.9742 21.322 18.9579 21.3664 18.9251 21.3968C18.8947 21.4273 18.8502 21.4425 18.7917 21.4425H17.5385Z" fill="#4129A8"/>
</svg>
