<svg width="32" height="32" viewBox="0 0 32 32" fill="none" xmlns="http://www.w3.org/2000/svg">
<rect width="32" height="32" rx="8" fill="#ECEAF6"/>
<path fill-rule="evenodd" clip-rule="evenodd" d="M10.375 25C10.375 24.6548 10.6548 24.375 11 24.375H21C21.3452 24.375 21.625 24.6548 21.625 25C21.625 25.3452 21.3452 25.625 21 25.625H11C10.6548 25.625 10.375 25.3452 10.375 25Z" fill="#4129A8"/>
<path fill-rule="evenodd" clip-rule="evenodd" d="M8 7.625C7.24061 7.625 6.625 8.24061 6.625 9V19C6.625 19.7594 7.24061 20.375 8 20.375H24C24.7594 20.375 25.375 19.7594 25.375 19V9C25.375 8.24061 24.7594 7.625 24 7.625H8ZM5.375 9C5.375 7.55025 6.55025 6.375 8 6.375H24C25.4497 6.375 26.625 7.55025 26.625 9V19C26.625 20.4497 25.4497 21.625 24 21.625H8C6.55025 21.625 5.375 20.4497 5.375 19V9Z" fill="#4129A8"/>
</svg>
