<svg width="32" height="32" viewBox="0 0 32 32" fill="none" xmlns="http://www.w3.org/2000/svg">
<rect width="32" height="32" rx="8" fill="#ECEAF6"/>
<path fill-rule="evenodd" clip-rule="evenodd" d="M23.5981 17.0064C23.3813 16.8312 23.1055 16.7457 22.8276 16.7676C22.5515 16.7893 22.2942 16.9153 22.1077 17.1198L18.7898 21.0107C18.7388 21.0757 18.6837 21.138 18.6246 21.197C18.2368 21.5849 17.7107 21.8028 17.1622 21.8028H15.1275C14.8843 21.8028 14.6872 21.6056 14.6872 21.3624C14.6872 21.1192 14.8843 20.9221 15.1275 20.9221H17.1622C17.4772 20.9221 17.7792 20.797 18.0019 20.5743C18.0123 20.5639 18.0225 20.5533 18.0324 20.5426C18.0374 20.536 18.0426 20.5296 18.048 20.5232L18.1062 20.455C18.2633 20.2492 18.3497 19.9964 18.3497 19.7346C18.3497 19.4197 18.2246 19.1177 18.0019 18.895C17.7792 18.6723 17.4772 18.5472 17.1622 18.5472H14.9163C14.3857 18.5477 13.877 18.7588 13.502 19.1343L9.64609 22.9902L12.2789 25.623L13.1142 24.7877C13.3064 24.5945 13.5357 24.4405 13.7874 24.3359C14.0394 24.2312 14.3097 24.1774 14.5826 24.1776H18.7558L18.7544 24.1776L18.7575 24.618V24.1776H18.7558C19.0734 24.1752 19.3859 24.0972 19.6674 23.95C19.9493 23.8027 20.192 23.5903 20.3754 23.3304L23.7965 18.492C23.9598 18.266 24.0302 17.986 23.9933 17.7097C23.9563 17.4334 23.8149 17.1817 23.5981 17.0064ZM11.9675 26.5571L12.7814 27.371C12.9534 27.543 13.2322 27.543 13.4042 27.371C13.5761 27.1991 13.5761 26.9202 13.4042 26.7483L12.9016 26.2458L13.7379 25.4095L13.7388 25.4086C13.8493 25.2975 13.9806 25.2093 14.1253 25.1492C14.27 25.0891 14.4252 25.0582 14.5819 25.0583H18.7575L18.7605 25.0583C19.2186 25.0551 19.6693 24.9428 20.0753 24.7306C20.4812 24.5185 20.8306 24.2127 21.0948 23.8386M21.0948 23.8386L24.5105 19.0076L24.5119 19.0057C24.8061 18.5974 24.9328 18.092 24.8662 17.5931C24.7995 17.0934 24.5438 16.6383 24.1517 16.3215C23.7596 16.0046 23.2611 15.85 22.7585 15.8896C22.256 15.9291 21.7877 16.1598 21.45 16.5341L19.1639 19.2146C19.0721 18.8611 18.8873 18.535 18.6246 18.2722C18.2368 17.8844 17.7107 17.6665 17.1622 17.6665H14.9159C14.1518 17.6672 13.4189 17.9713 12.8789 18.5119L9.02334 22.3674L8.52083 21.8649C8.34886 21.693 8.07005 21.693 7.89808 21.8649C7.72611 22.0369 7.72611 22.3157 7.89808 22.4877L11.9675 26.5571" fill="#4129A8"/>
<path fill-rule="evenodd" clip-rule="evenodd" d="M8.08944 12.9321C8.25352 13.1575 8.49774 13.3114 8.77186 13.3622C9.04414 13.4127 9.32534 13.3576 9.55838 13.2083L13.7703 10.3088C13.8364 10.2592 13.9057 10.2133 13.9781 10.1715C14.4531 9.89729 15.0176 9.82297 15.5474 9.96494L17.5128 10.4916C17.7477 10.5545 17.8871 10.796 17.8242 11.0309C17.7612 11.2658 17.5198 11.4052 17.2848 11.3423L15.3194 10.8156C15.0153 10.7341 14.6911 10.7768 14.4184 10.9343C14.4057 10.9416 14.3931 10.9492 14.3807 10.957C14.3742 10.962 14.3675 10.9669 14.3606 10.9716L14.2867 11.0225C14.0818 11.1806 13.9329 11.4025 13.8651 11.6553C13.7836 11.9595 13.8263 12.2836 13.9838 12.5563C14.1412 12.829 14.4006 13.0281 14.7048 13.1096L16.8742 13.6909C17.3869 13.8277 17.9329 13.7554 18.3922 13.4898L23.1148 10.7633L21.2531 7.53877L20.2301 8.12941C19.9944 8.26629 19.7331 8.35571 19.4629 8.39158C19.1923 8.4275 18.9174 8.40952 18.6538 8.33868L14.6228 7.25857L14.6242 7.25892L14.7352 6.83278L14.6212 7.25813L14.6228 7.25857C14.3154 7.17872 13.9934 7.17319 13.6834 7.24245C13.3729 7.3118 13.0835 7.45415 12.8391 7.65771L8.28226 11.4458C8.0661 11.6219 7.92563 11.8741 7.88976 12.1505C7.8539 12.427 7.92536 12.7067 8.08944 12.9321ZM21.7956 6.71707L21.2201 5.72025C21.0985 5.50963 20.8292 5.43747 20.6186 5.55907C20.408 5.68067 20.3358 5.94998 20.4574 6.1606L20.8127 6.77606L19.7886 7.36735L19.7875 7.36801C19.652 7.44676 19.5023 7.49792 19.347 7.51854C19.1916 7.53916 19.0338 7.52883 18.8824 7.48816L14.8491 6.40744L14.8461 6.40665C14.4029 6.29119 13.9384 6.28306 13.4914 6.38293C13.0444 6.48278 12.6277 6.68769 12.2758 6.9807M12.2758 6.9807L7.72604 10.7629L7.72423 10.7644C7.33441 11.0827 7.08113 11.5381 7.01638 12.0372C6.95153 12.5372 7.08074 13.0429 7.37742 13.4504C7.67411 13.858 8.11571 14.1363 8.61136 14.2282C9.10701 14.3201 9.61903 14.2185 10.0421 13.9443L12.944 11.9468C12.9413 12.3121 13.0353 12.6749 13.2211 12.9967C13.4953 13.4717 13.947 13.8183 14.4768 13.9603L16.6466 14.5417C17.3849 14.7388 18.1716 14.6347 18.833 14.2523L23.5551 11.526L23.9104 12.1414C24.032 12.3521 24.3014 12.4242 24.512 12.3026C24.7226 12.181 24.7948 11.9117 24.6732 11.7011L21.7956 6.71707" fill="#4129A8"/>
</svg>
