<svg width="32" height="32" viewBox="0 0 32 32" fill="none" xmlns="http://www.w3.org/2000/svg">
<rect width="32" height="32" rx="8" fill="#ECEAF6"/>
<path fill-rule="evenodd" clip-rule="evenodd" d="M12.5732 6.58003C12.7113 6.89639 12.5667 7.26478 12.2504 7.40283C10.8468 8.01532 9.61469 8.9623 8.66167 10.161C7.70866 11.3597 7.06378 12.7736 6.78344 14.2791C6.50309 15.7845 6.59581 17.3358 7.05347 18.7972C7.51114 20.2585 8.31983 21.5856 9.40883 22.6622C10.4978 23.7388 11.834 24.5323 13.3005 24.9733C14.767 25.4142 16.3192 25.4892 17.8214 25.1917C19.3236 24.8942 20.73 24.2332 21.9178 23.2666C23.1055 22.2999 24.0383 21.057 24.6348 19.6466C24.7692 19.3287 25.1359 19.1799 25.4538 19.3144C25.7717 19.4488 25.9205 19.8155 25.7861 20.1334C25.1101 21.7319 24.0529 23.1405 22.7068 24.236C21.3607 25.3316 19.7667 26.0807 18.0643 26.4179C16.3618 26.7551 14.6026 26.6701 12.9406 26.1703C11.2785 25.6706 9.76422 24.7713 8.53001 23.5511C7.29581 22.3309 6.37929 20.827 5.8606 19.1707C5.34191 17.5145 5.23684 15.7564 5.55456 14.0502C5.87229 12.344 6.60314 10.7416 7.68323 9.38307C8.76331 8.02456 10.1597 6.95132 11.7504 6.25717C12.0668 6.11911 12.4352 6.26366 12.5732 6.58003Z" fill="#4129A8"/>
<path fill-rule="evenodd" clip-rule="evenodd" d="M15.5585 5.55806C15.6757 5.44085 15.8346 5.375 16.0004 5.375C17.3957 5.375 18.7773 5.64982 20.0664 6.18378C21.3555 6.71774 22.5268 7.50037 23.5134 8.48699C24.5 9.47361 25.2827 10.6449 25.8166 11.934C26.3506 13.2231 26.6254 14.6047 26.6254 16C26.6254 16.3452 26.3456 16.625 26.0004 16.625H16.0004C15.6552 16.625 15.3754 16.3452 15.3754 16V6C15.3754 5.83424 15.4413 5.67527 15.5585 5.55806ZM16.6254 6.64586V15.375H25.3545C25.2866 14.3577 25.053 13.3569 24.6618 12.4123C24.1906 11.2749 23.5001 10.2414 22.6295 9.37087C21.759 8.50032 20.7255 7.80977 19.5881 7.33863C18.6435 6.94739 17.6427 6.71383 16.6254 6.64586Z" fill="#4129A8"/>
</svg>
