<svg width="32" height="32" viewBox="0 0 32 32" fill="none" xmlns="http://www.w3.org/2000/svg">
<rect width="32" height="32" rx="8" fill="#ECEAF6"/>
<path fill-rule="evenodd" clip-rule="evenodd" d="M8.88802 8.44358C8.64256 8.44358 8.44358 8.64256 8.44358 8.88802V13.3325C8.44358 13.5779 8.64256 13.7769 8.88802 13.7769H13.3325C13.5779 13.7769 13.7769 13.5779 13.7769 13.3325V8.88802C13.7769 8.64256 13.5779 8.44358 13.3325 8.44358H8.88802ZM7.55469 8.88802C7.55469 8.15164 8.15164 7.55469 8.88802 7.55469H13.3325C14.0688 7.55469 14.6658 8.15164 14.6658 8.88802V13.3325C14.6658 14.0688 14.0688 14.6658 13.3325 14.6658H8.88802C8.15164 14.6658 7.55469 14.0688 7.55469 13.3325V8.88802Z" fill="#4129A8"/>
<path fill-rule="evenodd" clip-rule="evenodd" d="M8.88802 18.2213C8.64256 18.2213 8.44358 18.4203 8.44358 18.6658V23.1102C8.44358 23.3557 8.64256 23.5547 8.88802 23.5547H13.3325C13.5779 23.5547 13.7769 23.3557 13.7769 23.1102V18.6658C13.7769 18.4203 13.5779 18.2213 13.3325 18.2213H8.88802ZM7.55469 18.6658C7.55469 17.9294 8.15164 17.3325 8.88802 17.3325H13.3325C14.0688 17.3325 14.6658 17.9294 14.6658 18.6658V23.1102C14.6658 23.8466 14.0688 24.4436 13.3325 24.4436H8.88802C8.15164 24.4436 7.55469 23.8466 7.55469 23.1102V18.6658Z" fill="#4129A8"/>
<path fill-rule="evenodd" clip-rule="evenodd" d="M16.5547 13.9991C16.5547 13.7537 16.7537 13.5547 16.9991 13.5547L23.9991 13.5547C24.2446 13.5547 24.4436 13.7537 24.4436 13.9991C24.4436 14.2446 24.2446 14.4436 23.9991 14.4436L16.9991 14.4436C16.7537 14.4436 16.5547 14.2446 16.5547 13.9991Z" fill="#4129A8"/>
<path fill-rule="evenodd" clip-rule="evenodd" d="M16.5547 18.9991C16.5547 18.7537 16.7537 18.5547 16.9991 18.5547H23.9991C24.2446 18.5547 24.4436 18.7537 24.4436 18.9991C24.4436 19.2446 24.2446 19.4436 23.9991 19.4436L16.9991 19.4436C16.7537 19.4436 16.5547 19.2446 16.5547 18.9991Z" fill="#4129A8"/>
<path fill-rule="evenodd" clip-rule="evenodd" d="M16.5547 23.9991C16.5547 23.7537 16.7537 23.5547 16.9991 23.5547H23.9991C24.2446 23.5547 24.4436 23.7537 24.4436 23.9991C24.4436 24.2446 24.2446 24.4436 23.9991 24.4436H16.9991C16.7537 24.4436 16.5547 24.2446 16.5547 23.9991Z" fill="#4129A8"/>
<path d="M23.4347 12.0406C23.0813 12.0406 22.7833 11.9745 22.5405 11.8424C22.2977 11.7072 22.1134 11.5152 21.9874 11.2663C21.8645 11.0174 21.803 10.7208 21.803 10.3767C21.803 10.1185 21.8384 9.88808 21.909 9.68527C21.9828 9.47939 22.0873 9.30424 22.2225 9.15981C22.3607 9.01231 22.5282 8.90016 22.7249 8.82333C22.9246 8.74651 23.1505 8.7081 23.4024 8.7081C23.5868 8.7081 23.7681 8.73268 23.9463 8.78185C24.1246 8.82794 24.2874 8.90476 24.4349 9.01231C24.4779 9.04304 24.5056 9.07838 24.5179 9.11833C24.5302 9.15828 24.5302 9.19976 24.5179 9.24278C24.5087 9.28273 24.4887 9.31806 24.458 9.34879C24.4303 9.37952 24.395 9.39796 24.3519 9.4041C24.312 9.41025 24.2674 9.39796 24.2183 9.36723C24.0984 9.28426 23.9725 9.22434 23.8403 9.18747C23.7082 9.14752 23.5622 9.12755 23.4024 9.12755C23.1628 9.12755 22.9599 9.17671 22.794 9.27504C22.6311 9.37338 22.5082 9.51626 22.4253 9.70371C22.3423 9.88808 22.3008 10.1124 22.3008 10.3767C22.3008 10.7854 22.3976 11.0957 22.5912 11.3077C22.7848 11.5198 23.0721 11.6258 23.4531 11.6258C23.5914 11.6258 23.7266 11.6135 23.8588 11.5889C23.994 11.5612 24.123 11.5228 24.2459 11.4737L24.1491 11.7134V10.6394H23.5545C23.4931 10.6394 23.4439 10.624 23.407 10.5933C23.3732 10.5595 23.3563 10.5134 23.3563 10.455C23.3563 10.3966 23.3732 10.3536 23.407 10.326C23.4439 10.2952 23.4931 10.2799 23.5545 10.2799H24.3519C24.4165 10.2799 24.4656 10.2968 24.4994 10.3306C24.5332 10.3644 24.5501 10.4135 24.5501 10.4781V11.6396C24.5501 11.6949 24.5394 11.7425 24.5179 11.7825C24.4994 11.8194 24.4672 11.847 24.4211 11.8655C24.289 11.9177 24.1338 11.9607 23.9556 11.9945C23.7773 12.0253 23.6037 12.0406 23.4347 12.0406Z" fill="#4129A8"/>
<path d="M20.1295 12.0406C19.9882 12.0406 19.8499 12.0299 19.7147 12.0084C19.5795 11.9868 19.452 11.9546 19.3321 11.9116C19.2123 11.8655 19.1047 11.8102 19.0095 11.7456C18.9634 11.7118 18.9311 11.6734 18.9127 11.6304C18.8973 11.5874 18.8927 11.5459 18.8988 11.5059C18.9081 11.4629 18.9265 11.426 18.9542 11.3953C18.9818 11.3646 19.0156 11.3461 19.0556 11.34C19.0955 11.3308 19.1401 11.3431 19.1892 11.3769C19.3275 11.466 19.4735 11.5321 19.6271 11.5751C19.7808 11.615 19.9482 11.635 20.1295 11.635C20.3907 11.635 20.5828 11.5889 20.7057 11.4967C20.8317 11.4015 20.8947 11.2785 20.8947 11.128C20.8947 11.0051 20.8501 10.9083 20.761 10.8376C20.6719 10.7638 20.5228 10.7055 20.3139 10.6624L19.8207 10.561C19.5288 10.4996 19.3106 10.3982 19.1662 10.2568C19.0248 10.1155 18.9542 9.92495 18.9542 9.68527C18.9542 9.54085 18.9833 9.40871 19.0417 9.28887C19.1032 9.16903 19.1877 9.06609 19.2952 8.98005C19.4028 8.89094 19.5318 8.82333 19.6824 8.77724C19.833 8.73115 19.9974 8.7081 20.1756 8.7081C20.3661 8.7081 20.5444 8.73268 20.7103 8.78185C20.8793 8.83102 21.0299 8.9063 21.162 9.00771C21.2019 9.03536 21.2281 9.0707 21.2404 9.11372C21.2557 9.15367 21.2588 9.19361 21.2496 9.23356C21.2434 9.27351 21.2265 9.30731 21.1989 9.33496C21.1712 9.36262 21.1359 9.37952 21.0929 9.38567C21.0498 9.38874 21.0022 9.37338 20.95 9.33957C20.8301 9.25968 20.7072 9.20283 20.5812 9.16903C20.4583 9.13216 20.3216 9.11372 20.171 9.11372C20.0204 9.11372 19.8883 9.13677 19.7746 9.18286C19.664 9.22895 19.5779 9.29348 19.5165 9.37645C19.4581 9.45942 19.4289 9.55775 19.4289 9.67144C19.4289 9.8005 19.4704 9.90344 19.5534 9.98026C19.6363 10.0571 19.7746 10.1155 19.9682 10.1554L20.4568 10.2568C20.7641 10.3214 20.993 10.4212 21.1436 10.5564C21.2941 10.6916 21.3694 10.8714 21.3694 11.0957C21.3694 11.2401 21.3402 11.3707 21.2818 11.4875C21.2235 11.6012 21.1405 11.6995 21.0329 11.7825C20.9254 11.8655 20.7948 11.93 20.6412 11.9761C20.4906 12.0191 20.32 12.0406 20.1295 12.0406Z" fill="#4129A8"/>
<path d="M16.6352 11.9991C16.5522 11.9991 16.4877 11.9776 16.4416 11.9346C16.3986 11.8885 16.3771 11.824 16.3771 11.741V9.0077C16.3771 8.92474 16.3986 8.86174 16.4416 8.81872C16.4877 8.77263 16.5522 8.74958 16.6352 8.74958H18.3176C18.3821 8.74958 18.4313 8.76649 18.4651 8.80029C18.4989 8.83102 18.5158 8.87711 18.5158 8.93857C18.5158 9.0031 18.4989 9.05226 18.4651 9.08606C18.4313 9.11986 18.3821 9.13677 18.3176 9.13677H16.838V10.1554H18.2162C18.2838 10.1554 18.333 10.1723 18.3637 10.2061C18.3975 10.2399 18.4144 10.2876 18.4144 10.349C18.4144 10.4135 18.3975 10.4627 18.3637 10.4965C18.333 10.5272 18.2838 10.5426 18.2162 10.5426H16.838V11.612H18.3176C18.3821 11.612 18.4313 11.6289 18.4651 11.6627C18.4989 11.6965 18.5158 11.7441 18.5158 11.8055C18.5158 11.8701 18.4989 11.9192 18.4651 11.953C18.4313 11.9838 18.3821 11.9991 18.3176 11.9991H16.6352Z" fill="#4129A8"/>
</svg>
