<svg width="32" height="32" viewBox="0 0 32 32" fill="none" xmlns="http://www.w3.org/2000/svg">
<rect width="32" height="32" rx="8" fill="#ECEAF6"/>
<path fill-rule="evenodd" clip-rule="evenodd" d="M25.4419 6.55806C25.686 6.80214 25.686 7.19786 25.4419 7.44194L13.4419 19.4419C13.1979 19.686 12.8021 19.686 12.5581 19.4419C12.314 19.1979 12.314 18.8021 12.5581 18.5581L24.5581 6.55806C24.8021 6.31398 25.1979 6.31398 25.4419 6.55806Z" fill="#4129A8"/>
<path fill-rule="evenodd" clip-rule="evenodd" d="M6.375 7C6.375 6.65482 6.65482 6.375 7 6.375H16C16.3452 6.375 16.625 6.65482 16.625 7C16.625 7.34518 16.3452 7.625 16 7.625H7.625V24.375H24.375V16C24.375 15.6548 24.6548 15.375 25 15.375C25.3452 15.375 25.625 15.6548 25.625 16V25C25.625 25.3452 25.3452 25.625 25 25.625H7C6.65482 25.625 6.375 25.3452 6.375 25V7Z" fill="#4129A8"/>
<path fill-rule="evenodd" clip-rule="evenodd" d="M19.375 7C19.375 6.65482 19.6548 6.375 20 6.375H25C25.3452 6.375 25.625 6.65482 25.625 7V12C25.625 12.3452 25.3452 12.625 25 12.625C24.6548 12.625 24.375 12.3452 24.375 12V7.625H20C19.6548 7.625 19.375 7.34518 19.375 7Z" fill="#4129A8"/>
<path fill-rule="evenodd" clip-rule="evenodd" d="M13 13.375C13.3452 13.375 13.625 13.6548 13.625 14V18.375H18C18.3452 18.375 18.625 18.6548 18.625 19C18.625 19.3452 18.3452 19.625 18 19.625H13C12.6548 19.625 12.375 19.3452 12.375 19V14C12.375 13.6548 12.6548 13.375 13 13.375Z" fill="#4129A8"/>
</svg>
