<svg width="32" height="32" viewBox="0 0 32 32" fill="none" xmlns="http://www.w3.org/2000/svg">
<rect width="32" height="32" rx="8" fill="#ECEAF6"/>
<path fill-rule="evenodd" clip-rule="evenodd" d="M23.648 16.9205C23.42 16.7362 23.13 16.6463 22.8377 16.6693C22.5473 16.6922 22.2766 16.8247 22.0805 17.0398L18.5909 21.132C18.5373 21.2004 18.4793 21.2658 18.4172 21.3279C18.0093 21.7359 17.456 21.965 16.8792 21.965H14.7392C14.4834 21.965 14.276 21.7577 14.276 21.5019C14.276 21.2461 14.4834 21.0387 14.7392 21.0387H16.8792C17.2104 21.0387 17.528 20.9072 17.7622 20.673C17.7732 20.662 17.7839 20.6509 17.7944 20.6396C17.7996 20.6327 17.8051 20.6259 17.8108 20.6193L17.872 20.5475C18.0371 20.3311 18.128 20.0652 18.128 19.7899C18.128 19.4587 17.9964 19.141 17.7622 18.9068C17.528 18.6726 17.2104 18.541 16.8792 18.541H14.517C13.9589 18.5415 13.4239 18.7636 13.0296 19.1584L8.97411 23.2139L11.7431 25.9829L12.6216 25.1044L12.6224 25.1037C12.8246 24.9005 13.065 24.7392 13.3297 24.6292C13.5947 24.5191 13.879 24.4625 14.166 24.4628H18.5551L18.5537 24.4628L18.5569 24.9259V24.4628H18.5551C18.8892 24.4602 19.2178 24.3781 19.5139 24.2234C19.8104 24.0684 20.0657 23.845 20.2586 23.5717L23.8567 18.483C24.0284 18.2452 24.1025 17.9508 24.0636 17.6602C24.0248 17.3695 23.8761 17.1048 23.648 16.9205ZM11.4157 26.9654L12.2717 27.8214C12.4525 28.0023 12.7458 28.0023 12.9266 27.8214C13.1075 27.6405 13.1075 27.3473 12.9266 27.1664L12.3981 26.6379L13.2776 25.7584L13.2786 25.7574C13.3947 25.6406 13.5329 25.5478 13.6851 25.4846C13.8373 25.4214 14.0005 25.3889 14.1653 25.389H18.5569L18.5602 25.389C19.0419 25.3856 19.516 25.2675 19.9429 25.0443C20.3698 24.8212 20.7374 24.4996 21.0152 24.1062M21.0152 24.1062L24.6077 19.0253L24.6091 19.0233C24.9185 18.5938 25.0518 18.0622 24.9817 17.5375C24.9115 17.012 24.6426 16.5334 24.2303 16.2001C23.8179 15.8669 23.2935 15.7043 22.765 15.7459C22.2365 15.7875 21.7439 16.0301 21.3888 16.4237L18.9844 19.243C18.8878 18.8711 18.6935 18.5281 18.4172 18.2518C18.0093 17.8439 17.456 17.6147 16.8792 17.6147H14.5166C13.713 17.6154 12.9421 17.9353 12.3742 18.5039L8.31913 22.5589L7.79062 22.0304C7.60976 21.8495 7.31652 21.8495 7.13565 22.0304C6.95478 22.2113 6.95478 22.5045 7.13565 22.6854L11.4157 26.9654" fill="#4129A8"/>
<path fill-rule="evenodd" clip-rule="evenodd" d="M13.674 6.04853C14.3453 5.37717 15.2559 5 16.2053 5C17.1548 5 18.0654 5.37717 18.7367 6.04853C19.4081 6.71989 19.7852 7.63044 19.7852 8.57989C19.7852 9.36668 19.4845 10.1718 18.8595 10.7403C18.4902 11.1111 18.3146 11.3809 18.2411 11.7487C18.1857 12.0256 17.9163 12.2052 17.6393 12.1498C17.3623 12.0945 17.1827 11.825 17.2381 11.5481C17.3685 10.896 17.7022 10.4512 18.1451 10.0082C18.1514 10.0019 18.1579 9.99571 18.1646 9.98972C18.5552 9.63818 18.7624 9.11831 18.7624 8.57989C18.7624 7.90171 18.493 7.25131 18.0135 6.77176C17.5339 6.29222 16.8835 6.02281 16.2053 6.02281C15.5272 6.02281 14.8768 6.29222 14.3972 6.77176C13.9177 7.25131 13.6483 7.90171 13.6483 8.57989C13.6483 8.9912 13.7192 9.46179 14.2656 10.0082C14.6523 10.395 15.0413 10.8916 15.1726 11.5481C15.228 11.825 15.0484 12.0945 14.7714 12.1498C14.4944 12.2052 14.225 12.0256 14.1696 11.7487C14.0964 11.3823 13.8716 11.0607 13.5424 10.7315C12.7591 9.94822 12.6255 9.19141 12.6255 8.57989C12.6255 7.63044 13.0026 6.71989 13.674 6.04853Z" fill="#4129A8"/>
<path fill-rule="evenodd" clip-rule="evenodd" d="M14.1597 13.694C14.1597 13.4116 14.3886 13.1826 14.6711 13.1826H17.7396C18.022 13.1826 18.251 13.4116 18.251 13.694C18.251 13.9765 18.022 14.2054 17.7396 14.2054H14.6711C14.3886 14.2054 14.1597 13.9765 14.1597 13.694Z" fill="#4129A8"/>
<path fill-rule="evenodd" clip-rule="evenodd" d="M14.6711 15.7397C14.6711 15.4573 14.9 15.2283 15.1825 15.2283H17.2281C17.5106 15.2283 17.7395 15.4573 17.7395 15.7397C17.7395 16.0221 17.5106 16.2511 17.2281 16.2511H15.1825C14.9 16.2511 14.6711 16.0221 14.6711 15.7397Z" fill="#4129A8"/>
</svg>
