<svg width="32" height="32" viewBox="0 0 32 32" fill="none" xmlns="http://www.w3.org/2000/svg">
<rect width="32" height="32" rx="8" fill="#ECEAF6"/>
<path fill-rule="evenodd" clip-rule="evenodd" d="M19.8283 9.39905C20.1602 9.30422 20.5061 9.4964 20.601 9.8283L24.601 23.8283C24.6958 24.1602 24.5036 24.5061 24.1717 24.601C23.8398 24.6958 23.4939 24.5036 23.399 24.1717L19.399 10.1717C19.3042 9.8398 19.4964 9.49388 19.8283 9.39905Z" fill="#4129A8"/>
<path fill-rule="evenodd" clip-rule="evenodd" d="M16 9.375C16.3452 9.375 16.625 9.65482 16.625 10V24C16.625 24.3452 16.3452 24.625 16 24.625C15.6548 24.625 15.375 24.3452 15.375 24V10C15.375 9.65482 15.6548 9.375 16 9.375Z" fill="#4129A8"/>
<path fill-rule="evenodd" clip-rule="evenodd" d="M12 11.375C12.3452 11.375 12.625 11.6548 12.625 12V24C12.625 24.3452 12.3452 24.625 12 24.625C11.6548 24.625 11.375 24.3452 11.375 24V12C11.375 11.6548 11.6548 11.375 12 11.375Z" fill="#4129A8"/>
<path fill-rule="evenodd" clip-rule="evenodd" d="M8 7.375C8.34518 7.375 8.625 7.65482 8.625 8V24C8.625 24.3452 8.34518 24.625 8 24.625C7.65482 24.625 7.375 24.3452 7.375 24V8C7.375 7.65482 7.65482 7.375 8 7.375Z" fill="#4129A8"/>
</svg>
