<svg width="676" height="434" viewBox="0 0 676 434" fill="none" xmlns="http://www.w3.org/2000/svg">
<g filter="url(#filter0_d_11543_10158)">
<path d="M39 23C39 14.1634 46.1634 7 55 7H651C659.837 7 667 14.1634 667 23V385C667 393.837 659.837 401 651 401H55C46.1634 401 39 393.837 39 385V23Z" fill="white"/>
</g>
<path d="M68.28 49.175C66.915 49.175 65.76 48.9183 64.815 48.405C63.8817 47.8917 63.17 47.1625 62.68 46.2175C62.19 45.2725 61.945 44.1525 61.945 42.8575C61.945 41.8775 62.085 40.9967 62.365 40.215C62.6567 39.4333 63.0708 38.7683 63.6075 38.22C64.1558 37.66 64.8208 37.2342 65.6025 36.9425C66.3842 36.6392 67.2708 36.4875 68.2625 36.4875C68.9158 36.4875 69.5692 36.5692 70.2225 36.7325C70.8875 36.8842 71.5117 37.1467 72.095 37.52C72.2933 37.6483 72.4217 37.8058 72.48 37.9925C72.55 38.1792 72.5617 38.3717 72.515 38.57C72.4683 38.7567 72.3808 38.92 72.2525 39.06C72.1242 39.2 71.9608 39.2875 71.7625 39.3225C71.5758 39.3575 71.3658 39.3108 71.1325 39.1825C70.6892 38.9258 70.24 38.7392 69.785 38.6225C69.33 38.5058 68.8225 38.4475 68.2625 38.4475C67.3992 38.4475 66.67 38.6225 66.075 38.9725C65.48 39.3108 65.0308 39.8067 64.7275 40.46C64.4358 41.1133 64.29 41.9125 64.29 42.8575C64.29 44.2925 64.6342 45.3833 65.3225 46.13C66.0108 46.8767 67.0317 47.25 68.385 47.25C68.8517 47.25 69.3242 47.2033 69.8025 47.11C70.2808 47.0167 70.7475 46.8883 71.2025 46.725L70.765 47.7225V43.995H68.84C68.5483 43.995 68.3208 43.9192 68.1575 43.7675C68.0058 43.6158 67.93 43.4117 67.93 43.155C67.93 42.8867 68.0058 42.6825 68.1575 42.5425C68.3208 42.4025 68.5483 42.3325 68.84 42.3325H71.7275C72.0192 42.3325 72.2408 42.4142 72.3925 42.5775C72.5558 42.7292 72.6375 42.9508 72.6375 43.2425V47.495C72.6375 47.7517 72.585 47.9675 72.48 48.1425C72.3867 48.3175 72.2292 48.4458 72.0075 48.5275C71.4942 48.7142 70.905 48.8717 70.24 49C69.575 49.1167 68.9217 49.175 68.28 49.175ZM76.3532 49.14C75.9916 49.14 75.7116 49.0408 75.5132 48.8425C75.3266 48.6325 75.2332 48.3467 75.2332 47.985V37.6775C75.2332 37.3042 75.3266 37.0183 75.5132 36.82C75.7116 36.6217 75.9916 36.5225 76.3532 36.5225C76.7149 36.5225 76.9891 36.6217 77.1757 36.82C77.3741 37.0183 77.4732 37.3042 77.4732 37.6775V41.8075H83.8257V37.6775C83.8257 37.3042 83.9191 37.0183 84.1057 36.82C84.3041 36.6217 84.5841 36.5225 84.9457 36.5225C85.3074 36.5225 85.5816 36.6217 85.7682 36.82C85.9666 37.0183 86.0657 37.3042 86.0657 37.6775V47.985C86.0657 48.3467 85.9666 48.6325 85.7682 48.8425C85.5816 49.0408 85.3074 49.14 84.9457 49.14C84.5841 49.14 84.3041 49.0408 84.1057 48.8425C83.9191 48.6325 83.8257 48.3467 83.8257 47.985V43.68H77.4732V47.985C77.4732 48.3467 77.3799 48.6325 77.1932 48.8425C77.0066 49.0408 76.7266 49.14 76.3532 49.14ZM94.7009 49.175C93.3359 49.175 92.1809 48.9183 91.2359 48.405C90.3026 47.8917 89.5909 47.1625 89.1009 46.2175C88.6109 45.2725 88.3659 44.1525 88.3659 42.8575C88.3659 41.8775 88.5059 40.9967 88.7859 40.215C89.0776 39.4333 89.4917 38.7683 90.0284 38.22C90.5767 37.66 91.2417 37.2342 92.0234 36.9425C92.8051 36.6392 93.6917 36.4875 94.6834 36.4875C95.3367 36.4875 95.9901 36.5692 96.6434 36.7325C97.3084 36.8842 97.9326 37.1467 98.5159 37.52C98.7142 37.6483 98.8426 37.8058 98.9009 37.9925C98.9709 38.1792 98.9826 38.3717 98.9359 38.57C98.8892 38.7567 98.8017 38.92 98.6734 39.06C98.5451 39.2 98.3817 39.2875 98.1834 39.3225C97.9967 39.3575 97.7867 39.3108 97.5534 39.1825C97.1101 38.9258 96.6609 38.7392 96.2059 38.6225C95.7509 38.5058 95.2434 38.4475 94.6834 38.4475C93.8201 38.4475 93.0909 38.6225 92.4959 38.9725C91.9009 39.3108 91.4517 39.8067 91.1484 40.46C90.8567 41.1133 90.7109 41.9125 90.7109 42.8575C90.7109 44.2925 91.0551 45.3833 91.7434 46.13C92.4317 46.8767 93.4526 47.25 94.8059 47.25C95.2726 47.25 95.7451 47.2033 96.2234 47.11C96.7017 47.0167 97.1684 46.8883 97.6234 46.725L97.1859 47.7225V43.995H95.2609C94.9692 43.995 94.7417 43.9192 94.5784 43.7675C94.4267 43.6158 94.3509 43.4117 94.3509 43.155C94.3509 42.8867 94.4267 42.6825 94.5784 42.5425C94.7417 42.4025 94.9692 42.3325 95.2609 42.3325H98.1484C98.4401 42.3325 98.6617 42.4142 98.8134 42.5775C98.9767 42.7292 99.0584 42.9508 99.0584 43.2425V47.495C99.0584 47.7517 99.0059 47.9675 98.9009 48.1425C98.8076 48.3175 98.6501 48.4458 98.4284 48.5275C97.9151 48.7142 97.3259 48.8717 96.6609 49C95.9959 49.1167 95.3426 49.175 94.7009 49.175ZM107.595 49C107.21 49 106.913 48.9008 106.703 48.7025C106.504 48.4925 106.405 48.195 106.405 47.81V37.8525C106.405 37.4675 106.504 37.1758 106.703 36.9775C106.913 36.7675 107.21 36.6625 107.595 36.6625H113.843C114.134 36.6625 114.356 36.7383 114.508 36.89C114.671 37.0417 114.753 37.2575 114.753 37.5375C114.753 37.8292 114.671 38.0567 114.508 38.22C114.356 38.3717 114.134 38.4475 113.843 38.4475H108.558V41.8425H113.458C113.761 41.8425 113.988 41.9183 114.14 42.07C114.292 42.2217 114.368 42.4433 114.368 42.735C114.368 43.0267 114.292 43.2483 114.14 43.4C113.988 43.5517 113.761 43.6275 113.458 43.6275H108.558V47.215H113.843C114.134 47.215 114.356 47.2908 114.508 47.4425C114.671 47.5942 114.753 47.8158 114.753 48.1075C114.753 48.3992 114.671 48.6208 114.508 48.7725C114.356 48.9242 114.134 49 113.843 49H107.595ZM117.757 49.14C117.407 49.14 117.139 49.0467 116.952 48.86C116.765 48.6617 116.672 48.3817 116.672 48.02V41.405C116.672 41.0433 116.765 40.7692 116.952 40.5825C117.139 40.3958 117.401 40.3025 117.74 40.3025C118.078 40.3025 118.34 40.3958 118.527 40.5825C118.714 40.7692 118.807 41.0433 118.807 41.405V42.6825L118.615 42.1575C118.848 41.5742 119.21 41.1133 119.7 40.775C120.19 40.4367 120.773 40.2675 121.45 40.2675C122.138 40.2675 122.704 40.4308 123.147 40.7575C123.59 41.0842 123.9 41.5858 124.075 42.2625H123.83C124.063 41.6442 124.448 41.16 124.985 40.81C125.521 40.4483 126.14 40.2675 126.84 40.2675C127.493 40.2675 128.03 40.3958 128.45 40.6525C128.881 40.9092 129.202 41.3 129.412 41.825C129.622 42.3383 129.727 42.9917 129.727 43.785V48.02C129.727 48.3817 129.628 48.6617 129.43 48.86C129.243 49.0467 128.975 49.14 128.625 49.14C128.275 49.14 128.006 49.0467 127.82 48.86C127.633 48.6617 127.54 48.3817 127.54 48.02V43.8725C127.54 43.2192 127.429 42.7408 127.207 42.4375C126.997 42.1342 126.635 41.9825 126.122 41.9825C125.55 41.9825 125.101 42.1867 124.775 42.595C124.448 42.9917 124.285 43.5458 124.285 44.2575V48.02C124.285 48.3817 124.191 48.6617 124.005 48.86C123.818 49.0467 123.55 49.14 123.2 49.14C122.85 49.14 122.575 49.0467 122.377 48.86C122.19 48.6617 122.097 48.3817 122.097 48.02V43.8725C122.097 43.2192 121.986 42.7408 121.765 42.4375C121.555 42.1342 121.199 41.9825 120.697 41.9825C120.125 41.9825 119.676 42.1867 119.35 42.595C119.023 42.9917 118.86 43.5458 118.86 44.2575V48.02C118.86 48.7667 118.492 49.14 117.757 49.14ZM133.069 49.1225C132.719 49.1225 132.45 49.0175 132.264 48.8075C132.077 48.5975 131.984 48.3058 131.984 47.9325V41.51C131.984 41.125 132.077 40.8333 132.264 40.635C132.45 40.425 132.719 40.32 133.069 40.32C133.419 40.32 133.687 40.425 133.874 40.635C134.072 40.8333 134.171 41.125 134.171 41.51V47.9325C134.171 48.3058 134.078 48.5975 133.891 48.8075C133.705 49.0175 133.43 49.1225 133.069 49.1225ZM133.069 38.6925C132.66 38.6925 132.34 38.5933 132.106 38.395C131.885 38.185 131.774 37.8992 131.774 37.5375C131.774 37.1642 131.885 36.8783 132.106 36.68C132.34 36.4817 132.66 36.3825 133.069 36.3825C133.489 36.3825 133.81 36.4817 134.031 36.68C134.253 36.8783 134.364 37.1642 134.364 37.5375C134.364 37.8992 134.253 38.185 134.031 38.395C133.81 38.5933 133.489 38.6925 133.069 38.6925ZM139.577 49.175C139.075 49.175 138.544 49.1225 137.984 49.0175C137.424 48.9125 136.922 48.7317 136.479 48.475C136.292 48.3583 136.158 48.2242 136.077 48.0725C136.007 47.9092 135.977 47.7517 135.989 47.6C136.012 47.4367 136.071 47.2967 136.164 47.18C136.269 47.0633 136.397 46.9875 136.549 46.9525C136.712 46.9175 136.887 46.9467 137.074 47.04C137.541 47.2617 137.978 47.4192 138.387 47.5125C138.795 47.5942 139.197 47.635 139.594 47.635C140.154 47.635 140.568 47.5417 140.837 47.355C141.117 47.1567 141.257 46.9 141.257 46.585C141.257 46.3167 141.163 46.1125 140.977 45.9725C140.802 45.8208 140.533 45.71 140.172 45.64L138.422 45.3075C137.698 45.1675 137.144 44.905 136.759 44.52C136.386 44.1233 136.199 43.6158 136.199 42.9975C136.199 42.4375 136.351 41.9533 136.654 41.545C136.969 41.1367 137.401 40.8217 137.949 40.6C138.497 40.3783 139.127 40.2675 139.839 40.2675C140.352 40.2675 140.831 40.3258 141.274 40.4425C141.729 40.5475 142.167 40.7167 142.587 40.95C142.762 41.0433 142.878 41.1658 142.937 41.3175C143.007 41.4692 143.024 41.6267 142.989 41.79C142.954 41.9417 142.884 42.0817 142.779 42.21C142.674 42.3267 142.54 42.4025 142.377 42.4375C142.225 42.4608 142.05 42.4258 141.852 42.3325C141.49 42.1458 141.14 42.0117 140.802 41.93C140.475 41.8483 140.16 41.8075 139.857 41.8075C139.285 41.8075 138.859 41.9067 138.579 42.105C138.311 42.3033 138.177 42.5658 138.177 42.8925C138.177 43.1375 138.258 43.3417 138.422 43.505C138.585 43.6683 138.836 43.7792 139.174 43.8375L140.924 44.17C141.682 44.31 142.254 44.5667 142.639 44.94C143.036 45.3133 143.234 45.815 143.234 46.445C143.234 47.2967 142.902 47.9675 142.237 48.4575C141.572 48.9358 140.685 49.175 139.577 49.175ZM148.122 49.175C147.62 49.175 147.089 49.1225 146.529 49.0175C145.969 48.9125 145.467 48.7317 145.024 48.475C144.837 48.3583 144.703 48.2242 144.622 48.0725C144.552 47.9092 144.522 47.7517 144.534 47.6C144.557 47.4367 144.616 47.2967 144.709 47.18C144.814 47.0633 144.942 46.9875 145.094 46.9525C145.257 46.9175 145.432 46.9467 145.619 47.04C146.086 47.2617 146.523 47.4192 146.932 47.5125C147.34 47.5942 147.742 47.635 148.139 47.635C148.699 47.635 149.113 47.5417 149.382 47.355C149.662 47.1567 149.802 46.9 149.802 46.585C149.802 46.3167 149.708 46.1125 149.522 45.9725C149.347 45.8208 149.078 45.71 148.717 45.64L146.967 45.3075C146.243 45.1675 145.689 44.905 145.304 44.52C144.931 44.1233 144.744 43.6158 144.744 42.9975C144.744 42.4375 144.896 41.9533 145.199 41.545C145.514 41.1367 145.946 40.8217 146.494 40.6C147.042 40.3783 147.672 40.2675 148.384 40.2675C148.897 40.2675 149.376 40.3258 149.819 40.4425C150.274 40.5475 150.712 40.7167 151.132 40.95C151.307 41.0433 151.423 41.1658 151.482 41.3175C151.552 41.4692 151.569 41.6267 151.534 41.79C151.499 41.9417 151.429 42.0817 151.324 42.21C151.219 42.3267 151.085 42.4025 150.922 42.4375C150.77 42.4608 150.595 42.4258 150.397 42.3325C150.035 42.1458 149.685 42.0117 149.347 41.93C149.02 41.8483 148.705 41.8075 148.402 41.8075C147.83 41.8075 147.404 41.9067 147.124 42.105C146.856 42.3033 146.722 42.5658 146.722 42.8925C146.722 43.1375 146.803 43.3417 146.967 43.505C147.13 43.6683 147.381 43.7792 147.719 43.8375L149.469 44.17C150.227 44.31 150.799 44.5667 151.184 44.94C151.581 45.3133 151.779 45.815 151.779 46.445C151.779 47.2967 151.447 47.9675 150.782 48.4575C150.117 48.9358 149.23 49.175 148.122 49.175ZM154.619 49.1225C154.269 49.1225 154.001 49.0175 153.814 48.8075C153.627 48.5975 153.534 48.3058 153.534 47.9325V41.51C153.534 41.125 153.627 40.8333 153.814 40.635C154.001 40.425 154.269 40.32 154.619 40.32C154.969 40.32 155.237 40.425 155.424 40.635C155.622 40.8333 155.721 41.125 155.721 41.51V47.9325C155.721 48.3058 155.628 48.5975 155.441 48.8075C155.255 49.0175 154.981 49.1225 154.619 49.1225ZM154.619 38.6925C154.211 38.6925 153.89 38.5933 153.656 38.395C153.435 38.185 153.324 37.8992 153.324 37.5375C153.324 37.1642 153.435 36.8783 153.656 36.68C153.89 36.4817 154.211 36.3825 154.619 36.3825C155.039 36.3825 155.36 36.4817 155.581 36.68C155.803 36.8783 155.914 37.1642 155.914 37.5375C155.914 37.8992 155.803 38.185 155.581 38.395C155.36 38.5933 155.039 38.6925 154.619 38.6925ZM161.897 49.175C161.01 49.175 160.24 48.9942 159.587 48.6325C158.934 48.2708 158.426 47.7575 158.064 47.0925C157.703 46.4158 157.522 45.6225 157.522 44.7125C157.522 44.0242 157.621 43.4117 157.819 42.875C158.029 42.3267 158.327 41.86 158.712 41.475C159.097 41.0783 159.558 40.7808 160.094 40.5825C160.631 40.3725 161.232 40.2675 161.897 40.2675C162.784 40.2675 163.554 40.4483 164.207 40.81C164.86 41.1717 165.368 41.685 165.729 42.35C166.091 43.015 166.272 43.8025 166.272 44.7125C166.272 45.4008 166.167 46.0192 165.957 46.5675C165.759 47.1158 165.467 47.5883 165.082 47.985C164.697 48.37 164.236 48.6675 163.699 48.8775C163.163 49.0758 162.562 49.175 161.897 49.175ZM161.897 47.5125C162.329 47.5125 162.708 47.4075 163.034 47.1975C163.361 46.9875 163.612 46.6783 163.787 46.27C163.974 45.85 164.067 45.3308 164.067 44.7125C164.067 43.7792 163.869 43.085 163.472 42.63C163.075 42.1633 162.55 41.93 161.897 41.93C161.465 41.93 161.086 42.035 160.759 42.245C160.433 42.4433 160.176 42.7525 159.989 43.1725C159.814 43.5808 159.727 44.0942 159.727 44.7125C159.727 45.6342 159.925 46.3342 160.322 46.8125C160.719 47.2792 161.244 47.5125 161.897 47.5125ZM169.162 49.14C168.812 49.14 168.544 49.0467 168.357 48.86C168.171 48.6617 168.077 48.3817 168.077 48.02V41.405C168.077 41.0433 168.171 40.7692 168.357 40.5825C168.544 40.3958 168.807 40.3025 169.145 40.3025C169.483 40.3025 169.746 40.3958 169.932 40.5825C170.119 40.7692 170.212 41.0433 170.212 41.405V42.595L170.02 42.1575C170.277 41.5392 170.673 41.0725 171.21 40.7575C171.758 40.4308 172.377 40.2675 173.065 40.2675C173.753 40.2675 174.319 40.3958 174.762 40.6525C175.206 40.9092 175.538 41.3 175.76 41.825C175.982 42.3383 176.092 42.9917 176.092 43.785V48.02C176.092 48.3817 175.999 48.6617 175.812 48.86C175.626 49.0467 175.357 49.14 175.007 49.14C174.657 49.14 174.383 49.0467 174.185 48.86C173.998 48.6617 173.905 48.3817 173.905 48.02V43.89C173.905 43.225 173.777 42.7408 173.52 42.4375C173.275 42.1342 172.89 41.9825 172.365 41.9825C171.723 41.9825 171.21 42.1867 170.825 42.595C170.452 42.9917 170.265 43.5225 170.265 44.1875V48.02C170.265 48.7667 169.897 49.14 169.162 49.14ZM181.447 49.175C180.945 49.175 180.414 49.1225 179.854 49.0175C179.294 48.9125 178.793 48.7317 178.349 48.475C178.163 48.3583 178.028 48.2242 177.947 48.0725C177.877 47.9092 177.848 47.7517 177.859 47.6C177.883 47.4367 177.941 47.2967 178.034 47.18C178.139 47.0633 178.268 46.9875 178.419 46.9525C178.583 46.9175 178.758 46.9467 178.944 47.04C179.411 47.2617 179.848 47.4192 180.257 47.5125C180.665 47.5942 181.068 47.635 181.464 47.635C182.024 47.635 182.438 47.5417 182.707 47.355C182.987 47.1567 183.127 46.9 183.127 46.585C183.127 46.3167 183.033 46.1125 182.847 45.9725C182.672 45.8208 182.403 45.71 182.042 45.64L180.292 45.3075C179.568 45.1675 179.014 44.905 178.629 44.52C178.256 44.1233 178.069 43.6158 178.069 42.9975C178.069 42.4375 178.221 41.9533 178.524 41.545C178.839 41.1367 179.271 40.8217 179.819 40.6C180.368 40.3783 180.998 40.2675 181.709 40.2675C182.223 40.2675 182.701 40.3258 183.144 40.4425C183.599 40.5475 184.037 40.7167 184.457 40.95C184.632 41.0433 184.748 41.1658 184.807 41.3175C184.877 41.4692 184.894 41.6267 184.859 41.79C184.824 41.9417 184.754 42.0817 184.649 42.21C184.544 42.3267 184.41 42.4025 184.247 42.4375C184.095 42.4608 183.92 42.4258 183.722 42.3325C183.36 42.1458 183.01 42.0117 182.672 41.93C182.345 41.8483 182.03 41.8075 181.727 41.8075C181.155 41.8075 180.729 41.9067 180.449 42.105C180.181 42.3033 180.047 42.5658 180.047 42.8925C180.047 43.1375 180.128 43.3417 180.292 43.505C180.455 43.6683 180.706 43.7792 181.044 43.8375L182.794 44.17C183.553 44.31 184.124 44.5667 184.509 44.94C184.906 45.3133 185.104 45.815 185.104 46.445C185.104 47.2967 184.772 47.9675 184.107 48.4575C183.442 48.9358 182.555 49.175 181.447 49.175ZM192.87 49.14C192.543 49.14 192.293 49.0467 192.118 48.86C191.943 48.6733 191.855 48.4167 191.855 48.09V37.5725C191.855 37.2342 191.948 36.9775 192.135 36.8025C192.322 36.6158 192.578 36.5225 192.905 36.5225C193.197 36.5225 193.424 36.5808 193.588 36.6975C193.763 36.8025 193.92 36.9892 194.06 37.2575L198.383 45.255H197.823L202.145 37.2575C202.285 36.9892 202.437 36.8025 202.6 36.6975C202.763 36.5808 202.991 36.5225 203.283 36.5225C203.609 36.5225 203.86 36.6158 204.035 36.8025C204.21 36.9775 204.298 37.2342 204.298 37.5725V48.09C204.298 48.4167 204.21 48.6733 204.035 48.86C203.872 49.0467 203.621 49.14 203.283 49.14C202.956 49.14 202.705 49.0467 202.53 48.86C202.355 48.6733 202.268 48.4167 202.268 48.09V39.9875H202.653L198.978 46.69C198.861 46.8883 198.738 47.0342 198.61 47.1275C198.482 47.2208 198.307 47.2675 198.085 47.2675C197.863 47.2675 197.683 47.2208 197.543 47.1275C197.403 47.0225 197.28 46.8767 197.175 46.69L193.465 39.97H193.885V48.09C193.885 48.4167 193.798 48.6733 193.623 48.86C193.459 49.0467 193.208 49.14 192.87 49.14ZM209.621 49.175C209.002 49.175 208.448 49.0583 207.958 48.825C207.48 48.58 207.101 48.2533 206.821 47.845C206.552 47.4367 206.418 46.9758 206.418 46.4625C206.418 45.8325 206.581 45.3367 206.908 44.975C207.235 44.6017 207.766 44.3333 208.501 44.17C209.236 44.0067 210.221 43.925 211.458 43.925H212.333V45.185H211.476C210.752 45.185 210.175 45.22 209.743 45.29C209.311 45.36 209.002 45.4825 208.816 45.6575C208.641 45.8208 208.553 46.0542 208.553 46.3575C208.553 46.7425 208.687 47.0575 208.956 47.3025C209.224 47.5475 209.597 47.67 210.076 47.67C210.461 47.67 210.799 47.5825 211.091 47.4075C211.394 47.2208 211.633 46.97 211.808 46.655C211.983 46.34 212.071 45.9783 212.071 45.57V43.5575C212.071 42.9742 211.942 42.5542 211.686 42.2975C211.429 42.0408 210.997 41.9125 210.391 41.9125C210.052 41.9125 209.685 41.9533 209.288 42.035C208.903 42.1167 208.495 42.2567 208.063 42.455C207.841 42.56 207.643 42.5892 207.468 42.5425C207.305 42.4958 207.176 42.4025 207.083 42.2625C206.99 42.1108 206.943 41.9475 206.943 41.7725C206.943 41.5975 206.99 41.4283 207.083 41.265C207.176 41.09 207.334 40.9617 207.556 40.88C208.092 40.6583 208.606 40.5008 209.096 40.4075C209.597 40.3142 210.052 40.2675 210.461 40.2675C211.301 40.2675 211.989 40.3958 212.526 40.6525C213.074 40.9092 213.482 41.3 213.751 41.825C214.019 42.3383 214.153 43.0033 214.153 43.82V48.02C214.153 48.3817 214.066 48.6617 213.891 48.86C213.716 49.0467 213.465 49.14 213.138 49.14C212.811 49.14 212.555 49.0467 212.368 48.86C212.193 48.6617 212.106 48.3817 212.106 48.02V47.18H212.246C212.164 47.5883 212.001 47.9442 211.756 48.2475C211.522 48.5392 211.225 48.7667 210.863 48.93C210.501 49.0933 210.087 49.175 209.621 49.175ZM217.458 49.14C217.108 49.14 216.84 49.0467 216.653 48.86C216.467 48.6617 216.373 48.3817 216.373 48.02V41.405C216.373 41.0433 216.467 40.7692 216.653 40.5825C216.84 40.3958 217.103 40.3025 217.441 40.3025C217.779 40.3025 218.042 40.3958 218.228 40.5825C218.415 40.7692 218.508 41.0433 218.508 41.405V42.595L218.316 42.1575C218.573 41.5392 218.969 41.0725 219.506 40.7575C220.054 40.4308 220.673 40.2675 221.361 40.2675C222.049 40.2675 222.615 40.3958 223.058 40.6525C223.502 40.9092 223.834 41.3 224.056 41.825C224.278 42.3383 224.388 42.9917 224.388 43.785V48.02C224.388 48.3817 224.295 48.6617 224.108 48.86C223.922 49.0467 223.653 49.14 223.303 49.14C222.953 49.14 222.679 49.0467 222.481 48.86C222.294 48.6617 222.201 48.3817 222.201 48.02V43.89C222.201 43.225 222.073 42.7408 221.816 42.4375C221.571 42.1342 221.186 41.9825 220.661 41.9825C220.019 41.9825 219.506 42.1867 219.121 42.595C218.748 42.9917 218.561 43.5225 218.561 44.1875V48.02C218.561 48.7667 218.193 49.14 217.458 49.14ZM229.428 49.175C228.809 49.175 228.255 49.0583 227.765 48.825C227.287 48.58 226.908 48.2533 226.628 47.845C226.359 47.4367 226.225 46.9758 226.225 46.4625C226.225 45.8325 226.388 45.3367 226.715 44.975C227.042 44.6017 227.573 44.3333 228.308 44.17C229.043 44.0067 230.028 43.925 231.265 43.925H232.14V45.185H231.283C230.559 45.185 229.982 45.22 229.55 45.29C229.118 45.36 228.809 45.4825 228.623 45.6575C228.448 45.8208 228.36 46.0542 228.36 46.3575C228.36 46.7425 228.494 47.0575 228.763 47.3025C229.031 47.5475 229.404 47.67 229.883 47.67C230.268 47.67 230.606 47.5825 230.898 47.4075C231.201 47.2208 231.44 46.97 231.615 46.655C231.79 46.34 231.878 45.9783 231.878 45.57V43.5575C231.878 42.9742 231.749 42.5542 231.493 42.2975C231.236 42.0408 230.804 41.9125 230.198 41.9125C229.859 41.9125 229.492 41.9533 229.095 42.035C228.71 42.1167 228.302 42.2567 227.87 42.455C227.648 42.56 227.45 42.5892 227.275 42.5425C227.112 42.4958 226.983 42.4025 226.89 42.2625C226.797 42.1108 226.75 41.9475 226.75 41.7725C226.75 41.5975 226.797 41.4283 226.89 41.265C226.983 41.09 227.141 40.9617 227.363 40.88C227.899 40.6583 228.413 40.5008 228.903 40.4075C229.404 40.3142 229.859 40.2675 230.268 40.2675C231.108 40.2675 231.796 40.3958 232.333 40.6525C232.881 40.9092 233.289 41.3 233.558 41.825C233.826 42.3383 233.96 43.0033 233.96 43.82V48.02C233.96 48.3817 233.873 48.6617 233.698 48.86C233.523 49.0467 233.272 49.14 232.945 49.14C232.618 49.14 232.362 49.0467 232.175 48.86C232 48.6617 231.913 48.3817 231.913 48.02V47.18H232.053C231.971 47.5883 231.808 47.9442 231.563 48.2475C231.329 48.5392 231.032 48.7667 230.67 48.93C230.308 49.0933 229.894 49.175 229.428 49.175ZM240.17 52.325C239.54 52.325 238.928 52.2667 238.333 52.15C237.75 52.0333 237.219 51.8525 236.74 51.6075C236.519 51.4908 236.367 51.3508 236.285 51.1875C236.215 51.0242 236.192 50.855 236.215 50.68C236.25 50.5167 236.32 50.3708 236.425 50.2425C236.542 50.1142 236.682 50.0267 236.845 49.98C237.009 49.9333 237.178 49.9567 237.353 50.05C237.866 50.3067 238.35 50.47 238.805 50.54C239.272 50.6217 239.669 50.6625 239.995 50.6625C240.777 50.6625 241.36 50.47 241.745 50.085C242.142 49.7117 242.34 49.1517 242.34 48.405V46.83H242.498C242.323 47.425 241.955 47.9033 241.395 48.265C240.847 48.615 240.223 48.79 239.523 48.79C238.753 48.79 238.082 48.615 237.51 48.265C236.939 47.9033 236.495 47.4017 236.18 46.76C235.865 46.1183 235.708 45.3717 235.708 44.52C235.708 43.8783 235.795 43.3008 235.97 42.7875C236.157 42.2625 236.414 41.8133 236.74 41.44C237.079 41.0667 237.481 40.7808 237.948 40.5825C238.426 40.3725 238.951 40.2675 239.523 40.2675C240.246 40.2675 240.876 40.4483 241.413 40.81C241.961 41.16 242.317 41.6267 242.48 42.21L242.305 42.6475V41.405C242.305 41.0433 242.399 40.7692 242.585 40.5825C242.784 40.3958 243.052 40.3025 243.39 40.3025C243.74 40.3025 244.009 40.3958 244.195 40.5825C244.382 40.7692 244.475 41.0433 244.475 41.405V48.1425C244.475 49.5308 244.108 50.575 243.373 51.275C242.638 51.975 241.57 52.325 240.17 52.325ZM240.118 47.1275C240.573 47.1275 240.964 47.0225 241.29 46.8125C241.617 46.6025 241.868 46.305 242.043 45.92C242.23 45.5233 242.323 45.0567 242.323 44.52C242.323 43.715 242.125 43.085 241.728 42.63C241.331 42.1633 240.795 41.93 240.118 41.93C239.663 41.93 239.272 42.035 238.945 42.245C238.619 42.455 238.362 42.7525 238.175 43.1375C238 43.5225 237.913 43.9833 237.913 44.52C237.913 45.325 238.111 45.9608 238.508 46.4275C238.905 46.8942 239.441 47.1275 240.118 47.1275ZM250.959 49.175C249.991 49.175 249.157 48.9942 248.457 48.6325C247.757 48.2708 247.214 47.7575 246.829 47.0925C246.456 46.4275 246.269 45.64 246.269 44.73C246.269 43.8433 246.45 43.0675 246.812 42.4025C247.185 41.7375 247.693 41.2183 248.334 40.845C248.988 40.46 249.729 40.2675 250.557 40.2675C251.164 40.2675 251.706 40.3667 252.184 40.565C252.674 40.7633 253.089 41.0492 253.427 41.4225C253.777 41.7958 254.039 42.2508 254.214 42.7875C254.401 43.3125 254.494 43.9075 254.494 44.5725C254.494 44.7825 254.419 44.9458 254.267 45.0625C254.127 45.1675 253.923 45.22 253.654 45.22H248.037V43.96H252.954L252.674 44.2225C252.674 43.6858 252.593 43.2367 252.429 42.875C252.278 42.5133 252.05 42.2392 251.747 42.0525C251.455 41.8542 251.088 41.755 250.644 41.755C250.154 41.755 249.734 41.8717 249.384 42.105C249.046 42.3267 248.784 42.6475 248.597 43.0675C248.422 43.4758 248.334 43.9658 248.334 44.5375V44.66C248.334 45.6167 248.556 46.3342 248.999 46.8125C249.454 47.2792 250.119 47.5125 250.994 47.5125C251.298 47.5125 251.636 47.4775 252.009 47.4075C252.394 47.3258 252.756 47.1917 253.094 47.005C253.339 46.865 253.555 46.8067 253.742 46.83C253.929 46.8417 254.074 46.9058 254.179 47.0225C254.296 47.1392 254.366 47.285 254.389 47.46C254.413 47.6233 254.378 47.7925 254.284 47.9675C254.203 48.1425 254.057 48.2942 253.847 48.4225C253.439 48.6792 252.966 48.8717 252.429 49C251.904 49.1167 251.414 49.175 250.959 49.175ZM257.347 49.14C256.997 49.14 256.729 49.0467 256.542 48.86C256.355 48.6617 256.262 48.3817 256.262 48.02V41.405C256.262 41.0433 256.355 40.7692 256.542 40.5825C256.729 40.3958 256.991 40.3025 257.329 40.3025C257.668 40.3025 257.93 40.3958 258.117 40.5825C258.304 40.7692 258.397 41.0433 258.397 41.405V42.6825L258.204 42.1575C258.438 41.5742 258.799 41.1133 259.289 40.775C259.779 40.4367 260.363 40.2675 261.039 40.2675C261.728 40.2675 262.294 40.4308 262.737 40.7575C263.18 41.0842 263.489 41.5858 263.664 42.2625H263.419C263.653 41.6442 264.038 41.16 264.574 40.81C265.111 40.4483 265.729 40.2675 266.429 40.2675C267.083 40.2675 267.619 40.3958 268.039 40.6525C268.471 40.9092 268.792 41.3 269.002 41.825C269.212 42.3383 269.317 42.9917 269.317 43.785V48.02C269.317 48.3817 269.218 48.6617 269.019 48.86C268.833 49.0467 268.564 49.14 268.214 49.14C267.864 49.14 267.596 49.0467 267.409 48.86C267.223 48.6617 267.129 48.3817 267.129 48.02V43.8725C267.129 43.2192 267.019 42.7408 266.797 42.4375C266.587 42.1342 266.225 41.9825 265.712 41.9825C265.14 41.9825 264.691 42.1867 264.364 42.595C264.038 42.9917 263.874 43.5458 263.874 44.2575V48.02C263.874 48.3817 263.781 48.6617 263.594 48.86C263.408 49.0467 263.139 49.14 262.789 49.14C262.439 49.14 262.165 49.0467 261.967 48.86C261.78 48.6617 261.687 48.3817 261.687 48.02V43.8725C261.687 43.2192 261.576 42.7408 261.354 42.4375C261.144 42.1342 260.789 41.9825 260.287 41.9825C259.715 41.9825 259.266 42.1867 258.939 42.595C258.613 42.9917 258.449 43.5458 258.449 44.2575V48.02C258.449 48.7667 258.082 49.14 257.347 49.14ZM275.791 49.175C274.823 49.175 273.989 48.9942 273.289 48.6325C272.589 48.2708 272.046 47.7575 271.661 47.0925C271.288 46.4275 271.101 45.64 271.101 44.73C271.101 43.8433 271.282 43.0675 271.644 42.4025C272.017 41.7375 272.524 41.2183 273.166 40.845C273.819 40.46 274.56 40.2675 275.389 40.2675C275.995 40.2675 276.538 40.3667 277.016 40.565C277.506 40.7633 277.92 41.0492 278.259 41.4225C278.609 41.7958 278.871 42.2508 279.046 42.7875C279.233 43.3125 279.326 43.9075 279.326 44.5725C279.326 44.7825 279.25 44.9458 279.099 45.0625C278.959 45.1675 278.754 45.22 278.486 45.22H272.869V43.96H277.786L277.506 44.2225C277.506 43.6858 277.424 43.2367 277.261 42.875C277.109 42.5133 276.882 42.2392 276.579 42.0525C276.287 41.8542 275.919 41.755 275.476 41.755C274.986 41.755 274.566 41.8717 274.216 42.105C273.878 42.3267 273.615 42.6475 273.429 43.0675C273.254 43.4758 273.166 43.9658 273.166 44.5375V44.66C273.166 45.6167 273.388 46.3342 273.831 46.8125C274.286 47.2792 274.951 47.5125 275.826 47.5125C276.129 47.5125 276.468 47.4775 276.841 47.4075C277.226 47.3258 277.588 47.1917 277.926 47.005C278.171 46.865 278.387 46.8067 278.574 46.83C278.76 46.8417 278.906 46.9058 279.011 47.0225C279.128 47.1392 279.198 47.285 279.221 47.46C279.244 47.6233 279.209 47.7925 279.116 47.9675C279.034 48.1425 278.889 48.2942 278.679 48.4225C278.27 48.6792 277.798 48.8717 277.261 49C276.736 49.1167 276.246 49.175 275.791 49.175ZM282.143 49.14C281.793 49.14 281.525 49.0467 281.338 48.86C281.152 48.6617 281.058 48.3817 281.058 48.02V41.405C281.058 41.0433 281.152 40.7692 281.338 40.5825C281.525 40.3958 281.788 40.3025 282.126 40.3025C282.464 40.3025 282.727 40.3958 282.913 40.5825C283.1 40.7692 283.193 41.0433 283.193 41.405V42.595L283.001 42.1575C283.258 41.5392 283.654 41.0725 284.191 40.7575C284.739 40.4308 285.358 40.2675 286.046 40.2675C286.734 40.2675 287.3 40.3958 287.743 40.6525C288.187 40.9092 288.519 41.3 288.741 41.825C288.963 42.3383 289.073 42.9917 289.073 43.785V48.02C289.073 48.3817 288.98 48.6617 288.793 48.86C288.607 49.0467 288.338 49.14 287.988 49.14C287.638 49.14 287.364 49.0467 287.166 48.86C286.979 48.6617 286.886 48.3817 286.886 48.02V43.89C286.886 43.225 286.758 42.7408 286.501 42.4375C286.256 42.1342 285.871 41.9825 285.346 41.9825C284.704 41.9825 284.191 42.1867 283.806 42.595C283.433 42.9917 283.246 43.5225 283.246 44.1875V48.02C283.246 48.7667 282.878 49.14 282.143 49.14ZM295.215 49.175C294.457 49.175 293.821 49.0467 293.308 48.79C292.806 48.5333 292.433 48.16 292.188 47.67C291.943 47.1683 291.82 46.55 291.82 45.815V42.0875H290.91C290.63 42.0875 290.414 42.0175 290.263 41.8775C290.111 41.7258 290.035 41.5217 290.035 41.265C290.035 40.9967 290.111 40.7925 290.263 40.6525C290.414 40.5125 290.63 40.4425 290.91 40.4425H291.82V38.85C291.82 38.4883 291.914 38.2142 292.1 38.0275C292.299 37.8408 292.573 37.7475 292.923 37.7475C293.273 37.7475 293.541 37.8408 293.728 38.0275C293.914 38.2142 294.008 38.4883 294.008 38.85V40.4425H295.863C296.143 40.4425 296.359 40.5125 296.51 40.6525C296.662 40.7925 296.738 40.9967 296.738 41.265C296.738 41.5217 296.662 41.7258 296.51 41.8775C296.359 42.0175 296.143 42.0875 295.863 42.0875H294.008V45.6925C294.008 46.2525 294.13 46.6725 294.375 46.9525C294.62 47.2325 295.017 47.3725 295.565 47.3725C295.764 47.3725 295.939 47.355 296.09 47.32C296.242 47.285 296.376 47.2617 296.493 47.25C296.633 47.2383 296.749 47.285 296.843 47.39C296.936 47.4833 296.983 47.6817 296.983 47.985C296.983 48.2183 296.942 48.4283 296.86 48.615C296.79 48.79 296.656 48.9125 296.458 48.9825C296.306 49.0292 296.108 49.07 295.863 49.105C295.618 49.1517 295.402 49.175 295.215 49.175Z" fill="#424242"/>
<g filter="url(#filter1_d_11543_10158)">
<rect x="8" y="120" width="321" height="227.822" rx="16.4196" fill="white"/>
<rect x="8.51311" y="120.513" width="319.974" height="226.796" rx="15.9065" stroke="#ECEAF6" stroke-width="1.02623"/>
</g>
<rect x="167.766" y="143.578" width="142.17" height="116.205" rx="3.79446" fill="#A7D6DC"/>
<rect x="174.51" y="149.27" width="62.5694" height="7.19189" rx="3.59594" fill="#E0E0E0"/>
<rect x="174.51" y="158.359" width="47" height="4" rx="2" fill="#EEEEEE"/>
<rect x="21.6621" y="269.742" width="141.608" height="28.4585" rx="3.79446" fill="#E3ADCB"/>
<rect x="28.4062" y="275.434" width="62.5694" height="7.19189" rx="3.59594" fill="#E0E0E0"/>
<rect x="28.4062" y="284.523" width="47" height="4" rx="2" fill="#EEEEEE"/>
<rect x="21.6621" y="143.578" width="141.608" height="68.3003" rx="3.79446" fill="#E3ADCB"/>
<rect x="28.4062" y="149.27" width="38.117" height="7.19189" rx="3.59594" fill="#E0E0E0"/>
<rect x="28.4062" y="158.359" width="47" height="4" rx="2" fill="#EEEEEE"/>
<rect x="21.6621" y="215.668" width="141.608" height="50.2766" rx="3.79446" fill="#E3ADCB"/>
<rect x="28.4062" y="221.359" width="55.3775" height="7.19189" rx="3.59594" fill="#E0E0E0"/>
<rect x="28.4062" y="230.449" width="47" height="4" rx="2" fill="#EEEEEE"/>
<rect x="167.766" y="263.574" width="142.17" height="34.6245" rx="3.79446" fill="#A7D6DC"/>
<rect x="174.51" y="269.266" width="62.5694" height="7.19189" rx="3.59594" fill="#E0E0E0"/>
<rect x="174.51" y="278.355" width="47" height="4" rx="2" fill="#EEEEEE"/>
<rect x="46.3438" y="319.773" width="8.91246" height="24.6806" rx="2.74229" transform="rotate(90 46.3438 319.773)" fill="#E3ADCB"/>
<rect x="49.9648" y="322.07" width="30.2059" height="4.31513" rx="2.15757" fill="#EEEEEE"/>
<rect x="117.52" y="319.773" width="8.91246" height="24.6806" rx="2.74229" transform="rotate(90 117.52 319.773)" fill="#A7D6DC"/>
<rect x="121.141" y="322.07" width="30.2059" height="4.31513" rx="2.15757" fill="#EEEEEE"/>
<g filter="url(#filter2_d_11543_10158)">
<rect x="344" y="49" width="298" height="134.429" rx="9.68858" fill="white"/>
<rect x="344.303" y="49.3028" width="297.394" height="133.824" rx="9.38581" stroke="#ECEAF6" stroke-width="0.605536"/>
</g>
<rect x="379.252" y="167.684" width="5.28417" height="14.6331" rx="1.6259" transform="rotate(90 379.252 167.684)" fill="#C0CC77"/>
<rect x="381.398" y="168.723" width="22.4551" height="3.20787" rx="1.60393" fill="#EEEEEE"/>
<rect x="425.998" y="167.684" width="5.28417" height="14.6331" rx="1.6259" transform="rotate(90 425.998 167.684)" fill="#A4C7B3"/>
<rect x="428.145" y="168.723" width="22.4551" height="3.20787" rx="1.60393" fill="#EEEEEE"/>
<rect x="379" y="150" width="23" height="5" rx="2.5" fill="#EEEEEE"/>
<rect x="431" y="150" width="23" height="5" rx="2.5" fill="#EEEEEE"/>
<rect x="483" y="150" width="23" height="5" rx="2.5" fill="#EEEEEE"/>
<rect x="535" y="150" width="23" height="5" rx="2.5" fill="#EEEEEE"/>
<rect x="587" y="150" width="23" height="5" rx="2.5" fill="#EEEEEE"/>
<path d="M372.143 120.075C372.143 117.399 374.311 115.23 376.987 115.23H384.253C386.929 115.23 389.098 117.399 389.098 120.075V147.324H372.143V120.075Z" fill="#A4C7B3"/>
<path d="M391.52 135.817C391.52 133.142 393.688 130.973 396.364 130.973H403.63C406.306 130.973 408.475 133.142 408.475 135.817V147.322H391.52V135.817Z" fill="#C0CC77"/>
<path d="M424.254 111.169C424.254 108.493 426.423 106.324 429.098 106.324H436.41C439.085 106.324 441.254 108.493 441.254 111.169V147.324H424.254V111.169Z" fill="#A4C7B3"/>
<path d="M443.676 75.1685C443.676 72.4931 445.845 70.3242 448.52 70.3242H455.831C458.507 70.3242 460.676 72.4931 460.676 75.1685V147.324H443.676V75.1685Z" fill="#C0CC77"/>
<path d="M476.453 122.169C476.453 119.493 478.622 117.324 481.297 117.324H488.609C491.284 117.324 493.453 119.493 493.453 122.169V147.324H476.453V122.169Z" fill="#A4C7B3"/>
<path d="M495.875 106.149C495.875 103.474 498.044 101.305 500.719 101.305H507.986C510.661 101.305 512.83 103.474 512.83 106.149V147.325H495.875V106.149Z" fill="#C0CC77"/>
<path d="M528.609 118.169C528.609 115.493 530.778 113.324 533.454 113.324H540.765C543.441 113.324 545.609 115.493 545.609 118.169V147.324H528.609V118.169Z" fill="#A4C7B3"/>
<path d="M548.031 131.169C548.031 128.493 550.2 126.324 552.876 126.324H560.187C562.862 126.324 565.031 128.493 565.031 131.169V147.324H548.031V131.169Z" fill="#C0CC77"/>
<path d="M580.811 72.8443C580.811 70.1689 582.979 68 585.655 68H592.921C595.597 68 597.766 70.1689 597.766 72.8443V147.325H580.811V72.8443Z" fill="#A4C7B3"/>
<path d="M600.188 96.4615C600.188 93.786 602.356 91.6172 605.032 91.6172H612.298C614.974 91.6172 617.143 93.7861 617.143 96.4615V147.327H600.188V96.4615Z" fill="#C0CC77"/>
<path d="M363 147.336H617.692" stroke="#E0E0E0" stroke-width="0.605536" stroke-linecap="round"/>
<g filter="url(#filter3_d_11543_10158)">
<rect x="344" y="203" width="313" height="222" rx="16" fill="white"/>
<rect x="344.5" y="203.5" width="312" height="221" rx="15.5" stroke="#ECEAF6"/>
</g>
<rect x="584" y="261" width="30.2059" height="4.31513" rx="2.15757" fill="#EEEEEE"/>
<rect x="584" y="287" width="30.2059" height="4.31513" rx="2.15757" fill="#EEEEEE"/>
<rect x="584" y="312" width="30.2059" height="4.31513" rx="2.15757" fill="#EEEEEE"/>
<rect x="584" y="337" width="30.2059" height="4.31513" rx="2.15757" fill="#EEEEEE"/>
<rect x="584" y="363" width="30.2059" height="4.31513" rx="2.15757" fill="#EEEEEE"/>
<path d="M512.644 314C513.327 314 513.882 313.446 513.87 312.763C513.699 302.657 511.431 292.692 507.204 283.501C502.805 273.935 496.389 265.433 488.395 258.58C480.402 251.727 471.021 246.684 460.895 243.797C450.77 240.911 440.139 240.248 429.734 241.856C419.328 243.464 409.394 247.304 400.612 253.112C391.829 258.92 384.408 266.559 378.855 275.505C373.303 284.451 369.752 294.493 368.445 304.94C367.19 314.978 368.035 325.163 370.922 334.85C371.117 335.505 371.813 335.865 372.465 335.659L404.207 325.61C404.859 325.404 405.218 324.709 405.033 324.051C403.697 319.286 403.323 314.298 403.939 309.379C404.605 304.051 406.416 298.93 409.248 294.368C412.08 289.805 415.865 285.909 420.344 282.947C424.822 279.985 429.889 278.027 435.196 277.207C440.503 276.387 445.924 276.724 451.088 278.197C456.252 279.669 461.037 282.241 465.113 285.736C469.19 289.231 472.462 293.567 474.706 298.445C476.777 302.949 477.926 307.817 478.09 312.763C478.113 313.446 478.665 314 479.348 314H512.644Z" fill="#EEBE93"/>
<path d="M484.037 371.336C484.448 371.882 485.224 371.992 485.763 371.572C494.006 365.147 500.776 357.023 505.612 347.747C510.448 338.472 513.231 328.269 513.78 317.833C513.816 317.15 513.281 316.577 512.598 316.553L479.324 315.368C478.641 315.344 478.07 315.878 478.023 316.56C477.67 321.671 476.266 326.66 473.894 331.211C471.521 335.762 468.235 339.77 464.246 342.985C463.714 343.414 463.603 344.188 464.014 344.734L484.037 371.336Z" fill="#A4C7B3"/>
<path d="M373.192 337.835C372.548 338.062 372.208 338.769 372.446 339.41C378.323 355.238 389.511 368.553 404.119 377.068C418.727 385.583 435.827 388.757 452.495 386.07C453.17 385.961 453.618 385.318 453.498 384.645L447.644 351.868C447.524 351.195 446.881 350.75 446.205 350.847C437.894 352.048 429.408 350.405 422.132 346.165C414.857 341.924 409.245 335.349 406.195 327.526C405.947 326.889 405.242 326.55 404.597 326.777L373.192 337.835Z" fill="#C0CC77"/>
<path d="M456.884 383.956C457.037 384.622 457.701 385.039 458.364 384.876C464.483 383.366 470.38 381.071 475.909 378.047C476.508 377.719 476.715 376.963 476.377 376.369L459.908 347.432C459.57 346.838 458.816 346.633 458.211 346.951C455.725 348.258 453.1 349.28 450.385 349.997C449.724 350.171 449.307 350.832 449.459 351.499L456.884 383.956Z" fill="#E3ADCB"/>
<path d="M478.528 375.095C478.886 375.677 479.649 375.859 480.225 375.49C480.807 375.118 481.384 374.737 481.955 374.348C482.52 373.963 482.653 373.191 482.259 372.632L463.016 345.366C462.647 344.842 461.924 344.719 461.39 345.072C460.855 345.425 460.684 346.138 461.02 346.683L478.528 375.095Z" fill="#7BC5CE"/>
<rect x="579.684" y="259" width="8.55263" height="23.6842" rx="2.63158" transform="rotate(90 579.684 259)" fill="#EEBE93"/>
<rect x="579.684" y="284.363" width="8.55263" height="23.6842" rx="2.63158" transform="rotate(90 579.684 284.363)" fill="#C0CC77"/>
<rect x="579.684" y="309.723" width="8.55263" height="23.6842" rx="2.63158" transform="rotate(90 579.684 309.723)" fill="#E3ADCB"/>
<rect x="579.684" y="335.086" width="8.55263" height="23.6842" rx="2.63158" transform="rotate(90 579.684 335.086)" fill="#7BC5CE"/>
<rect x="579.684" y="360.449" width="8.55263" height="23.6842" rx="2.63158" transform="rotate(90 579.684 360.449)" fill="#A4C7B3"/>
<defs>
<filter id="filter0_d_11543_10158" x="30" y="0" width="646" height="412" filterUnits="userSpaceOnUse" color-interpolation-filters="sRGB">
<feFlood flood-opacity="0" result="BackgroundImageFix"/>
<feColorMatrix in="SourceAlpha" type="matrix" values="0 0 0 0 0 0 0 0 0 0 0 0 0 0 0 0 0 0 127 0" result="hardAlpha"/>
<feOffset dy="2"/>
<feGaussianBlur stdDeviation="4.5"/>
<feComposite in2="hardAlpha" operator="out"/>
<feColorMatrix type="matrix" values="0 0 0 0 0 0 0 0 0 0 0 0 0 0 0 0 0 0 0.12 0"/>
<feBlend mode="normal" in2="BackgroundImageFix" result="effect1_dropShadow_11543_10158"/>
<feBlend mode="normal" in="SourceGraphic" in2="effect1_dropShadow_11543_10158" result="shape"/>
</filter>
<filter id="filter1_d_11543_10158" x="0.816411" y="114.869" width="335.367" height="242.191" filterUnits="userSpaceOnUse" color-interpolation-filters="sRGB">
<feFlood flood-opacity="0" result="BackgroundImageFix"/>
<feColorMatrix in="SourceAlpha" type="matrix" values="0 0 0 0 0 0 0 0 0 0 0 0 0 0 0 0 0 0 127 0" result="hardAlpha"/>
<feOffset dy="2.05245"/>
<feGaussianBlur stdDeviation="3.59179"/>
<feComposite in2="hardAlpha" operator="out"/>
<feColorMatrix type="matrix" values="0 0 0 0 0 0 0 0 0 0 0 0 0 0 0 0 0 0 0.1 0"/>
<feBlend mode="normal" in2="BackgroundImageFix" result="effect1_dropShadow_11543_10158"/>
<feBlend mode="normal" in="SourceGraphic" in2="effect1_dropShadow_11543_10158" result="shape"/>
</filter>
<filter id="filter2_d_11543_10158" x="339.761" y="45.9723" width="306.478" height="142.907" filterUnits="userSpaceOnUse" color-interpolation-filters="sRGB">
<feFlood flood-opacity="0" result="BackgroundImageFix"/>
<feColorMatrix in="SourceAlpha" type="matrix" values="0 0 0 0 0 0 0 0 0 0 0 0 0 0 0 0 0 0 127 0" result="hardAlpha"/>
<feOffset dy="1.21107"/>
<feGaussianBlur stdDeviation="2.11938"/>
<feComposite in2="hardAlpha" operator="out"/>
<feColorMatrix type="matrix" values="0 0 0 0 0 0 0 0 0 0 0 0 0 0 0 0 0 0 0.1 0"/>
<feBlend mode="normal" in2="BackgroundImageFix" result="effect1_dropShadow_11543_10158"/>
<feBlend mode="normal" in="SourceGraphic" in2="effect1_dropShadow_11543_10158" result="shape"/>
</filter>
<filter id="filter3_d_11543_10158" x="337" y="198" width="327" height="236" filterUnits="userSpaceOnUse" color-interpolation-filters="sRGB">
<feFlood flood-opacity="0" result="BackgroundImageFix"/>
<feColorMatrix in="SourceAlpha" type="matrix" values="0 0 0 0 0 0 0 0 0 0 0 0 0 0 0 0 0 0 127 0" result="hardAlpha"/>
<feOffset dy="2"/>
<feGaussianBlur stdDeviation="3.5"/>
<feComposite in2="hardAlpha" operator="out"/>
<feColorMatrix type="matrix" values="0 0 0 0 0 0 0 0 0 0 0 0 0 0 0 0 0 0 0.1 0"/>
<feBlend mode="normal" in2="BackgroundImageFix" result="effect1_dropShadow_11543_10158"/>
<feBlend mode="normal" in="SourceGraphic" in2="effect1_dropShadow_11543_10158" result="shape"/>
</filter>
</defs>
</svg>
