<svg width="32" height="32" viewBox="0 0 32 32" fill="none" xmlns="http://www.w3.org/2000/svg">
<rect width="32" height="32" rx="8" fill="#ECEAF6"/>
<path fill-rule="evenodd" clip-rule="evenodd" d="M9.11893 6.78404C8.67062 6.78404 8.24067 6.96213 7.92367 7.27913C7.60666 7.59614 7.42857 8.02609 7.42857 8.4744V21.8069C7.42857 22.2552 7.60666 22.6852 7.92367 23.0022C8.24067 23.3192 8.67062 23.4973 9.11893 23.4973H15.309C15.4274 23.4973 15.5233 23.5932 15.5233 23.7115C15.5233 23.8299 15.4274 23.9258 15.309 23.9258H9.11893C8.55695 23.9258 8.018 23.7026 7.62062 23.3052C7.22324 22.9078 7 22.3689 7 21.8069V8.4744C7 7.91242 7.22324 7.37346 7.62062 6.97609C8.018 6.57871 8.55695 6.35547 9.11893 6.35547H15.7857C15.8495 6.35547 15.9068 6.38333 15.946 6.42754L20.6895 11.1711C20.7337 11.2103 20.7616 11.2676 20.7616 11.3314C20.7616 11.3365 20.7614 11.3416 20.7611 11.3467V13.236C20.7611 13.3544 20.6651 13.4503 20.5468 13.4503C20.4284 13.4503 20.3325 13.3544 20.3325 13.236V11.5456H16.738C16.4286 11.5456 16.1319 11.4227 15.9131 11.204C15.6943 10.9852 15.5714 10.6884 15.5714 10.379V6.78404H9.11893ZM16 10.379V7.08762L20.0295 11.1171H16.738C16.5423 11.1171 16.3546 11.0393 16.2162 10.9009C16.0778 10.7625 16 10.5748 16 10.379Z" fill="#4129A8"/>
<path d="M21.036 17.0822C21.15 17.1141 21.2682 17.0477 21.3002 16.9337C21.3322 16.8198 21.2657 16.7015 21.1518 16.6695C20.4005 16.4588 19.6022 16.4874 18.8679 16.7516C18.1337 17.0157 17.5 17.5021 17.0551 18.1432C16.6102 18.7842 16.3763 19.548 16.3857 20.3283C16.3952 21.1085 16.6477 21.8664 17.108 22.4965C17.5683 23.1266 18.2136 23.5975 18.954 23.8437C19.6945 24.0899 20.4932 24.0992 21.2392 23.8702C21.9852 23.6413 22.6412 23.1855 23.116 22.5663C23.1881 22.4724 23.1703 22.3379 23.0764 22.2659C22.9825 22.1938 22.848 22.2116 22.776 22.3055C22.3554 22.854 21.7742 23.2577 21.1135 23.4605C20.4527 23.6633 19.7451 23.6551 19.0893 23.437C18.4334 23.2189 17.8618 22.8018 17.454 22.2437C17.0463 21.6856 16.8227 21.0142 16.8143 20.3231C16.8059 19.6319 17.0131 18.9554 17.4072 18.3875C17.8013 17.8197 18.3626 17.3888 19.013 17.1548C19.6634 16.9209 20.3705 16.8955 21.036 17.0822Z" fill="#4129A8"/>
<path fill-rule="evenodd" clip-rule="evenodd" d="M7.91071 15.1412C7.91071 14.6974 8.27049 14.3376 8.71429 14.3376C8.8217 14.3376 8.92419 14.3587 9.01786 14.3969L11.2583 11.303C11.0483 11.158 10.9107 10.9157 10.9107 10.6412C10.9107 10.1974 11.2705 9.83761 11.7143 9.83761C12.1581 9.83761 12.5179 10.1974 12.5179 10.6412C12.5179 11.0277 12.2449 11.3505 11.8813 11.4274L13.048 20.1247C13.0878 20.1271 13.1269 20.1323 13.1649 20.1403C13.1691 20.1224 13.1764 20.105 13.1871 20.0887L15.4064 16.7069C15.1539 16.5714 14.9821 16.3049 14.9821 15.9983C14.9821 15.5545 15.3419 15.1948 15.7857 15.1948C16.2295 15.1948 16.5893 15.5545 16.5893 15.9983C16.5893 16.4421 16.2295 16.8019 15.7857 16.8019C15.7649 16.8019 15.7442 16.8011 15.7238 16.7995C15.7195 16.8123 15.7135 16.8247 15.7058 16.8365L13.4558 20.265C13.6659 20.41 13.8036 20.6524 13.8036 20.9269C13.8036 21.3707 13.4438 21.7305 13 21.7305C12.5562 21.7305 12.1964 21.3707 12.1964 20.9269C12.1964 20.5779 12.4189 20.2809 12.7298 20.1699L11.5573 11.4294L11.5494 11.4278C11.5447 11.448 11.5359 11.4676 11.523 11.4854L9.28524 14.5757C9.42904 14.7209 9.51786 14.9207 9.51786 15.1412C9.51786 15.585 9.15809 15.9448 8.71429 15.9448C8.27049 15.9448 7.91071 15.585 7.91071 15.1412ZM8.71429 14.659C8.44801 14.659 8.23214 14.8749 8.23214 15.1412C8.23214 15.4075 8.44801 15.6233 8.71429 15.6233C8.98057 15.6233 9.19643 15.4075 9.19643 15.1412C9.19643 14.8749 8.98057 14.659 8.71429 14.659ZM11.2321 10.6412C11.2321 10.3749 11.448 10.159 11.7143 10.159C11.9806 10.159 12.1964 10.3749 12.1964 10.6412C12.1964 10.9075 11.9806 11.1233 11.7143 11.1233C11.448 11.1233 11.2321 10.9075 11.2321 10.6412ZM13 20.4448C12.7337 20.4448 12.5179 20.6606 12.5179 20.9269C12.5179 21.1932 12.7337 21.409 13 21.409C13.2663 21.409 13.4821 21.1932 13.4821 20.9269C13.4821 20.6606 13.2663 20.4448 13 20.4448ZM15.3036 15.9983C15.3036 15.732 15.5194 15.5162 15.7857 15.5162C16.052 15.5162 16.2679 15.732 16.2679 15.9983C16.2679 16.2646 16.052 16.4805 15.7857 16.4805C15.5194 16.4805 15.3036 16.2646 15.3036 15.9983Z" fill="#4129A8"/>
<path d="M22.799 18.7289C22.8805 18.6393 22.8757 18.4988 22.7885 18.4152C22.7012 18.3315 22.5645 18.3364 22.4831 18.426L19.9238 21.2426L18.7261 20.0123C18.6417 19.9256 18.5048 19.9256 18.4204 20.0123C18.336 20.099 18.336 20.2395 18.4204 20.3262L19.7764 21.719C19.8178 21.7616 19.8743 21.785 19.9329 21.784C19.9915 21.783 20.0472 21.7575 20.0872 21.7135L22.799 18.7289Z" fill="#4129A8"/>
</svg>
