<svg width="32" height="32" viewBox="0 0 32 32" fill="none" xmlns="http://www.w3.org/2000/svg">
<rect width="32" height="32" rx="8" fill="#ECEAF6"/>
<mask id="path-2-outside-1_11562_10313" maskUnits="userSpaceOnUse" x="5" y="5" width="23" height="22" fill="black">
<rect fill="white" x="5" y="5" width="23" height="22"/>
<path fill-rule="evenodd" clip-rule="evenodd" d="M22.8398 7.53235C23.263 7.53235 23.606 7.18932 23.606 6.76617C23.606 6.34303 23.263 6 22.8398 6C22.4167 6 22.0737 6.34303 22.0737 6.76617C22.0737 7.18932 22.4167 7.53235 22.8398 7.53235ZM22.8398 7.22588C23.0937 7.22588 23.2996 7.02006 23.2996 6.76617C23.2996 6.51229 23.0937 6.30647 22.8398 6.30647C22.586 6.30647 22.3801 6.51229 22.3801 6.76617C22.3801 7.02006 22.586 7.22588 22.8398 7.22588Z"/>
<path d="M18.2545 7.35348C17.6853 7.30786 17.1127 7.3748 16.5694 7.55047C16.026 7.72615 15.5226 8.00712 15.0879 8.37734C14.6531 8.74757 14.2956 9.1998 14.0356 9.70821C13.8575 10.0564 13.7277 10.4263 13.6488 10.8077C13.3507 10.699 13.0094 10.6021 12.6735 10.5231C12.1285 10.3948 11.5589 10.3043 11.1506 10.2888C10.3439 10.2583 9.54033 10.408 8.81046 10.7262C8.08053 11.0444 7.44493 11.5222 6.96217 12.1201C6.47921 12.7182 6.16442 13.418 6.04914 14.1579C5.93384 14.898 6.02229 15.6519 6.30542 16.3518C6.58844 17.0514 7.05623 17.6733 7.6638 18.1643C8.2712 18.6552 9.0003 19.0009 9.78566 19.1734C10.571 19.3459 11.3909 19.3406 12.1735 19.1578C12.3599 19.1142 12.4758 18.9277 12.4322 18.7413C12.3887 18.5548 12.2022 18.439 12.0158 18.4825C11.334 18.6418 10.6188 18.6465 9.93444 18.4962C9.25009 18.3458 8.62016 18.0457 8.09963 17.625C7.57925 17.2045 7.18499 16.6771 6.94821 16.0918C6.71153 15.5067 6.63847 14.8795 6.73426 14.2646C6.83008 13.6496 7.09247 13.0624 7.50165 12.5557C7.91102 12.0487 8.45498 11.6376 9.08755 11.3618C9.72019 11.086 10.4199 10.955 11.1244 10.9817C11.4717 10.9949 11.9938 11.0755 12.5147 11.198C12.9353 11.297 13.3301 11.4177 13.6171 11.54C13.6721 11.6361 13.772 11.7042 13.8906 11.7138C13.9942 11.7221 14.0908 11.6839 14.1599 11.6168C14.2082 11.5858 14.2495 11.5424 14.2785 11.4882C14.3315 11.3888 14.3312 11.2753 14.2876 11.1803C14.3441 10.7777 14.4674 10.3868 14.653 10.0239C14.8715 9.59655 15.172 9.21643 15.5374 8.90525C15.9029 8.59406 16.326 8.35789 16.7827 8.21023C17.2394 8.06257 17.7207 8.0063 18.1991 8.04465C18.6776 8.083 19.1437 8.2152 19.5711 8.43372L19.8868 7.81636C19.3784 7.55639 18.8237 7.3991 18.2545 7.35348Z"/>
<path d="M25.8834 13.9898C25.6476 13.5875 25.3237 13.244 24.9361 12.9851L25.3213 12.4085C25.7961 12.7257 26.1928 13.1465 26.4816 13.6391C26.7703 14.1318 26.9436 14.6835 26.9884 15.2528C27.0331 15.8221 26.9482 16.3941 26.74 16.9259C26.5318 17.4576 26.2057 17.9352 25.7863 18.3227C25.3669 18.7103 24.865 18.9976 24.3185 19.1632C23.772 19.3288 23.1951 19.3683 22.6311 19.2788C22.442 19.2487 22.313 19.0711 22.3431 18.882C22.3731 18.6929 22.5507 18.5639 22.7398 18.594C23.2003 18.6671 23.6713 18.6348 24.1174 18.4996C24.5636 18.3644 24.9733 18.1298 25.3157 17.8134C25.6582 17.4971 25.9244 17.1072 26.0944 16.673C26.2643 16.2389 26.3337 15.7719 26.2971 15.3072C26.2606 14.8424 26.1191 14.392 25.8834 13.9898Z"/>
<path d="M12.0281 15.2962C12.0281 14.9289 12.1121 14.5994 12.28 14.3077C12.4479 14.0123 12.676 13.7819 12.9644 13.6162C13.2564 13.4505 13.5795 13.3677 13.9336 13.3677C14.3497 13.3677 14.7129 13.4667 15.0232 13.6648C15.3334 13.8629 15.5598 14.1438 15.7021 14.5075H15.1053C14.9994 14.2806 14.8461 14.106 14.6454 13.9835C14.4482 13.8611 14.211 13.7999 13.9336 13.7999C13.6671 13.7999 13.428 13.8611 13.2163 13.9835C13.0046 14.106 12.8385 14.2806 12.718 14.5075C12.5976 14.7308 12.5373 14.9937 12.5373 15.2962C12.5373 15.5951 12.5976 15.858 12.718 16.0849C12.8385 16.3082 13.0046 16.4811 13.2163 16.6035C13.428 16.726 13.6671 16.7872 13.9336 16.7872C14.211 16.7872 14.4482 16.7278 14.6454 16.6089C14.8461 16.4865 14.9994 16.3118 15.1053 16.0849H15.7021C15.5598 16.4451 15.3334 16.7242 15.0232 16.9222C14.7129 17.1167 14.3497 17.214 13.9336 17.214C13.5795 17.214 13.2564 17.1329 12.9644 16.9709C12.676 16.8052 12.4479 16.5765 12.28 16.2848C12.1121 15.9931 12.0281 15.6636 12.0281 15.2962Z"/>
<path fill-rule="evenodd" clip-rule="evenodd" d="M18.1741 17.2194C17.82 17.2194 17.4969 17.1383 17.2049 16.9763C16.9129 16.8106 16.6811 16.5819 16.5095 16.2902C16.3416 15.9949 16.2577 15.6636 16.2577 15.2962C16.2577 14.9289 16.3416 14.5994 16.5095 14.3077C16.6811 14.0123 16.9129 13.7837 17.2049 13.6216C17.4969 13.4559 17.82 13.3731 18.1741 13.3731C18.5318 13.3731 18.8567 13.4559 19.1487 13.6216C19.4407 13.7837 19.6707 14.0105 19.8386 14.3022C20.0065 14.594 20.0905 14.9253 20.0905 15.2962C20.0905 15.6672 20.0065 15.9985 19.8386 16.2902C19.6707 16.5819 19.4407 16.8106 19.1487 16.9763C18.8567 17.1383 18.5318 17.2194 18.1741 17.2194ZM18.1741 16.7926C18.4405 16.7926 18.6796 16.7314 18.8913 16.6089C19.1067 16.4865 19.2746 16.3118 19.3951 16.0849C19.5192 15.858 19.5812 15.5951 19.5812 15.2962C19.5812 14.9937 19.5192 14.7308 19.3951 14.5075C19.2746 14.2806 19.1085 14.106 18.8968 13.9835C18.6851 13.8611 18.4442 13.7999 18.1741 13.7999C17.9039 13.7999 17.663 13.8611 17.4513 13.9835C17.2396 14.106 17.0717 14.2806 16.9476 14.5075C16.8271 14.7308 16.7669 14.9937 16.7669 15.2962C16.7669 15.5951 16.8271 15.858 16.9476 16.0849C17.0717 16.3118 17.2396 16.4865 17.4513 16.6089C17.6667 16.7314 17.9076 16.7926 18.1741 16.7926Z"/>
<path d="M21.1479 17.304C20.9902 17.4444 20.7723 17.6249 20.4942 17.8453V18.0559H22.0744V17.8096H20.9442C21.1589 17.6389 21.3352 17.4898 21.4732 17.3623C21.6112 17.2327 21.7338 17.0836 21.8411 16.915C21.9506 16.7443 22.0054 16.5693 22.0054 16.39C22.0054 16.1739 21.9386 16.0043 21.805 15.8811C21.6736 15.7579 21.4951 15.6963 21.2695 15.6963C21.0483 15.6963 20.8676 15.7622 20.7274 15.8941C20.5872 16.0259 20.5128 16.2128 20.504 16.4548H20.7931C20.7997 16.3014 20.8435 16.1793 20.9245 16.0885C21.0078 15.9956 21.1238 15.9492 21.2728 15.9492C21.4261 15.9492 21.5367 15.9902 21.6046 16.0723C21.6747 16.1523 21.7097 16.2625 21.7097 16.4029C21.7097 16.552 21.655 16.7044 21.5454 16.8599C21.4381 17.0134 21.3056 17.1614 21.1479 17.304Z"/>
<path fill-rule="evenodd" clip-rule="evenodd" d="M24.0832 10.3535C24.0832 11.2783 23.3336 12.0279 22.4088 12.0279C21.4841 12.0279 20.7344 11.2783 20.7344 10.3535C20.7344 9.42881 21.4841 8.67916 22.4088 8.67916C23.3336 8.67916 24.0832 9.42881 24.0832 10.3535ZM23.5724 10.3535C23.5724 10.9962 23.0515 11.5171 22.4088 11.5171C21.7662 11.5171 21.2452 10.9962 21.2452 10.3535C21.2452 9.7109 21.7662 9.18994 22.4088 9.18994C23.0515 9.18994 23.5724 9.7109 23.5724 10.3535Z"/>
<path fill-rule="evenodd" clip-rule="evenodd" d="M25.0885 8.9969C25.6433 8.9969 26.0931 8.54711 26.0931 7.99227C26.0931 7.43743 25.6433 6.98765 25.0885 6.98765C24.5337 6.98765 24.0839 7.43743 24.0839 7.99227C24.0839 8.54711 24.5337 8.9969 25.0885 8.9969ZM25.0885 8.58827C25.4177 8.58827 25.6845 8.32143 25.6845 7.99227C25.6845 7.66311 25.4177 7.39627 25.0885 7.39627C24.7593 7.39627 24.4925 7.66311 24.4925 7.99227C24.4925 8.32143 24.7593 8.58827 25.0885 8.58827Z"/>
<path d="M14.2171 23.594L15.8424 21.9687C15.9422 21.8689 15.9422 21.7072 15.8424 21.6075C15.7427 21.5077 15.581 21.5077 15.4812 21.6075L14.2919 22.7968V19.3949C14.2919 19.2538 14.1776 19.1395 14.0365 19.1395C13.8955 19.1395 13.7811 19.2538 13.7811 19.3949V22.7968L12.5918 21.6075C12.4921 21.5077 12.3304 21.5077 12.2307 21.6075C12.1309 21.7072 12.1309 21.8689 12.2307 21.9687L13.856 23.594C13.9557 23.6937 14.1174 23.6937 14.2171 23.594Z"/>
<path d="M22.5403 21.9687L20.915 23.594C20.8153 23.6937 20.6536 23.6937 20.5539 23.594L18.9286 21.9687C18.8288 21.8689 18.8288 21.7072 18.9286 21.6075C19.0283 21.5077 19.19 21.5077 19.2897 21.6075L20.4791 22.7968V19.3949C20.4791 19.2538 20.5934 19.1395 20.7344 19.1395C20.8755 19.1395 20.9898 19.2538 20.9898 19.3949V22.7968L22.1792 21.6075C22.2789 21.5077 22.4406 21.5077 22.5403 21.6075C22.6401 21.7072 22.6401 21.8689 22.5403 21.9687Z"/>
<path d="M17.5661 26.273L19.1914 24.6477C19.2911 24.5479 19.2911 24.3862 19.1914 24.2865C19.0916 24.1867 18.9299 24.1867 18.8302 24.2865L17.6409 25.4758V19.3949C17.6409 19.2538 17.5265 19.1395 17.3855 19.1395C17.2444 19.1395 17.1301 19.2538 17.1301 19.3949V25.4758L15.9408 24.2865C15.841 24.1867 15.6793 24.1867 15.5796 24.2865C15.4799 24.3862 15.4799 24.5479 15.5796 24.6477L17.2049 26.273C17.3046 26.3727 17.4663 26.3727 17.5661 26.273Z"/>
</mask>
<path fill-rule="evenodd" clip-rule="evenodd" d="M22.8398 7.53235C23.263 7.53235 23.606 7.18932 23.606 6.76617C23.606 6.34303 23.263 6 22.8398 6C22.4167 6 22.0737 6.34303 22.0737 6.76617C22.0737 7.18932 22.4167 7.53235 22.8398 7.53235ZM22.8398 7.22588C23.0937 7.22588 23.2996 7.02006 23.2996 6.76617C23.2996 6.51229 23.0937 6.30647 22.8398 6.30647C22.586 6.30647 22.3801 6.51229 22.3801 6.76617C22.3801 7.02006 22.586 7.22588 22.8398 7.22588Z" fill="#4129A8"/>
<path d="M18.2545 7.35348C17.6853 7.30786 17.1127 7.3748 16.5694 7.55047C16.026 7.72615 15.5226 8.00712 15.0879 8.37734C14.6531 8.74757 14.2956 9.1998 14.0356 9.70821C13.8575 10.0564 13.7277 10.4263 13.6488 10.8077C13.3507 10.699 13.0094 10.6021 12.6735 10.5231C12.1285 10.3948 11.5589 10.3043 11.1506 10.2888C10.3439 10.2583 9.54033 10.408 8.81046 10.7262C8.08053 11.0444 7.44493 11.5222 6.96217 12.1201C6.47921 12.7182 6.16442 13.418 6.04914 14.1579C5.93384 14.898 6.02229 15.6519 6.30542 16.3518C6.58844 17.0514 7.05623 17.6733 7.6638 18.1643C8.2712 18.6552 9.0003 19.0009 9.78566 19.1734C10.571 19.3459 11.3909 19.3406 12.1735 19.1578C12.3599 19.1142 12.4758 18.9277 12.4322 18.7413C12.3887 18.5548 12.2022 18.439 12.0158 18.4825C11.334 18.6418 10.6188 18.6465 9.93444 18.4962C9.25009 18.3458 8.62016 18.0457 8.09963 17.625C7.57925 17.2045 7.18499 16.6771 6.94821 16.0918C6.71153 15.5067 6.63847 14.8795 6.73426 14.2646C6.83008 13.6496 7.09247 13.0624 7.50165 12.5557C7.91102 12.0487 8.45498 11.6376 9.08755 11.3618C9.72019 11.086 10.4199 10.955 11.1244 10.9817C11.4717 10.9949 11.9938 11.0755 12.5147 11.198C12.9353 11.297 13.3301 11.4177 13.6171 11.54C13.6721 11.6361 13.772 11.7042 13.8906 11.7138C13.9942 11.7221 14.0908 11.6839 14.1599 11.6168C14.2082 11.5858 14.2495 11.5424 14.2785 11.4882C14.3315 11.3888 14.3312 11.2753 14.2876 11.1803C14.3441 10.7777 14.4674 10.3868 14.653 10.0239C14.8715 9.59655 15.172 9.21643 15.5374 8.90525C15.9029 8.59406 16.326 8.35789 16.7827 8.21023C17.2394 8.06257 17.7207 8.0063 18.1991 8.04465C18.6776 8.083 19.1437 8.2152 19.5711 8.43372L19.8868 7.81636C19.3784 7.55639 18.8237 7.3991 18.2545 7.35348Z" fill="#4129A8"/>
<path d="M25.8834 13.9898C25.6476 13.5875 25.3237 13.244 24.9361 12.9851L25.3213 12.4085C25.7961 12.7257 26.1928 13.1465 26.4816 13.6391C26.7703 14.1318 26.9436 14.6835 26.9884 15.2528C27.0331 15.8221 26.9482 16.3941 26.74 16.9259C26.5318 17.4576 26.2057 17.9352 25.7863 18.3227C25.3669 18.7103 24.865 18.9976 24.3185 19.1632C23.772 19.3288 23.1951 19.3683 22.6311 19.2788C22.442 19.2487 22.313 19.0711 22.3431 18.882C22.3731 18.6929 22.5507 18.5639 22.7398 18.594C23.2003 18.6671 23.6713 18.6348 24.1174 18.4996C24.5636 18.3644 24.9733 18.1298 25.3157 17.8134C25.6582 17.4971 25.9244 17.1072 26.0944 16.673C26.2643 16.2389 26.3337 15.7719 26.2971 15.3072C26.2606 14.8424 26.1191 14.392 25.8834 13.9898Z" fill="#4129A8"/>
<path d="M12.0281 15.2962C12.0281 14.9289 12.1121 14.5994 12.28 14.3077C12.4479 14.0123 12.676 13.7819 12.9644 13.6162C13.2564 13.4505 13.5795 13.3677 13.9336 13.3677C14.3497 13.3677 14.7129 13.4667 15.0232 13.6648C15.3334 13.8629 15.5598 14.1438 15.7021 14.5075H15.1053C14.9994 14.2806 14.8461 14.106 14.6454 13.9835C14.4482 13.8611 14.211 13.7999 13.9336 13.7999C13.6671 13.7999 13.428 13.8611 13.2163 13.9835C13.0046 14.106 12.8385 14.2806 12.718 14.5075C12.5976 14.7308 12.5373 14.9937 12.5373 15.2962C12.5373 15.5951 12.5976 15.858 12.718 16.0849C12.8385 16.3082 13.0046 16.4811 13.2163 16.6035C13.428 16.726 13.6671 16.7872 13.9336 16.7872C14.211 16.7872 14.4482 16.7278 14.6454 16.6089C14.8461 16.4865 14.9994 16.3118 15.1053 16.0849H15.7021C15.5598 16.4451 15.3334 16.7242 15.0232 16.9222C14.7129 17.1167 14.3497 17.214 13.9336 17.214C13.5795 17.214 13.2564 17.1329 12.9644 16.9709C12.676 16.8052 12.4479 16.5765 12.28 16.2848C12.1121 15.9931 12.0281 15.6636 12.0281 15.2962Z" fill="#4129A8"/>
<path fill-rule="evenodd" clip-rule="evenodd" d="M18.1741 17.2194C17.82 17.2194 17.4969 17.1383 17.2049 16.9763C16.9129 16.8106 16.6811 16.5819 16.5095 16.2902C16.3416 15.9949 16.2577 15.6636 16.2577 15.2962C16.2577 14.9289 16.3416 14.5994 16.5095 14.3077C16.6811 14.0123 16.9129 13.7837 17.2049 13.6216C17.4969 13.4559 17.82 13.3731 18.1741 13.3731C18.5318 13.3731 18.8567 13.4559 19.1487 13.6216C19.4407 13.7837 19.6707 14.0105 19.8386 14.3022C20.0065 14.594 20.0905 14.9253 20.0905 15.2962C20.0905 15.6672 20.0065 15.9985 19.8386 16.2902C19.6707 16.5819 19.4407 16.8106 19.1487 16.9763C18.8567 17.1383 18.5318 17.2194 18.1741 17.2194ZM18.1741 16.7926C18.4405 16.7926 18.6796 16.7314 18.8913 16.6089C19.1067 16.4865 19.2746 16.3118 19.3951 16.0849C19.5192 15.858 19.5812 15.5951 19.5812 15.2962C19.5812 14.9937 19.5192 14.7308 19.3951 14.5075C19.2746 14.2806 19.1085 14.106 18.8968 13.9835C18.6851 13.8611 18.4442 13.7999 18.1741 13.7999C17.9039 13.7999 17.663 13.8611 17.4513 13.9835C17.2396 14.106 17.0717 14.2806 16.9476 14.5075C16.8271 14.7308 16.7669 14.9937 16.7669 15.2962C16.7669 15.5951 16.8271 15.858 16.9476 16.0849C17.0717 16.3118 17.2396 16.4865 17.4513 16.6089C17.6667 16.7314 17.9076 16.7926 18.1741 16.7926Z" fill="#4129A8"/>
<path d="M21.1479 17.304C20.9902 17.4444 20.7723 17.6249 20.4942 17.8453V18.0559H22.0744V17.8096H20.9442C21.1589 17.6389 21.3352 17.4898 21.4732 17.3623C21.6112 17.2327 21.7338 17.0836 21.8411 16.915C21.9506 16.7443 22.0054 16.5693 22.0054 16.39C22.0054 16.1739 21.9386 16.0043 21.805 15.8811C21.6736 15.7579 21.4951 15.6963 21.2695 15.6963C21.0483 15.6963 20.8676 15.7622 20.7274 15.8941C20.5872 16.0259 20.5128 16.2128 20.504 16.4548H20.7931C20.7997 16.3014 20.8435 16.1793 20.9245 16.0885C21.0078 15.9956 21.1238 15.9492 21.2728 15.9492C21.4261 15.9492 21.5367 15.9902 21.6046 16.0723C21.6747 16.1523 21.7097 16.2625 21.7097 16.4029C21.7097 16.552 21.655 16.7044 21.5454 16.8599C21.4381 17.0134 21.3056 17.1614 21.1479 17.304Z" fill="#4129A8"/>
<path fill-rule="evenodd" clip-rule="evenodd" d="M24.0832 10.3535C24.0832 11.2783 23.3336 12.0279 22.4088 12.0279C21.4841 12.0279 20.7344 11.2783 20.7344 10.3535C20.7344 9.42881 21.4841 8.67916 22.4088 8.67916C23.3336 8.67916 24.0832 9.42881 24.0832 10.3535ZM23.5724 10.3535C23.5724 10.9962 23.0515 11.5171 22.4088 11.5171C21.7662 11.5171 21.2452 10.9962 21.2452 10.3535C21.2452 9.7109 21.7662 9.18994 22.4088 9.18994C23.0515 9.18994 23.5724 9.7109 23.5724 10.3535Z" fill="#4129A8"/>
<path fill-rule="evenodd" clip-rule="evenodd" d="M25.0885 8.9969C25.6433 8.9969 26.0931 8.54711 26.0931 7.99227C26.0931 7.43743 25.6433 6.98765 25.0885 6.98765C24.5337 6.98765 24.0839 7.43743 24.0839 7.99227C24.0839 8.54711 24.5337 8.9969 25.0885 8.9969ZM25.0885 8.58827C25.4177 8.58827 25.6845 8.32143 25.6845 7.99227C25.6845 7.66311 25.4177 7.39627 25.0885 7.39627C24.7593 7.39627 24.4925 7.66311 24.4925 7.99227C24.4925 8.32143 24.7593 8.58827 25.0885 8.58827Z" fill="#4129A8"/>
<path d="M14.2171 23.594L15.8424 21.9687C15.9422 21.8689 15.9422 21.7072 15.8424 21.6075C15.7427 21.5077 15.581 21.5077 15.4812 21.6075L14.2919 22.7968V19.3949C14.2919 19.2538 14.1776 19.1395 14.0365 19.1395C13.8955 19.1395 13.7811 19.2538 13.7811 19.3949V22.7968L12.5918 21.6075C12.4921 21.5077 12.3304 21.5077 12.2307 21.6075C12.1309 21.7072 12.1309 21.8689 12.2307 21.9687L13.856 23.594C13.9557 23.6937 14.1174 23.6937 14.2171 23.594Z" fill="#4129A8"/>
<path d="M22.5403 21.9687L20.915 23.594C20.8153 23.6937 20.6536 23.6937 20.5539 23.594L18.9286 21.9687C18.8288 21.8689 18.8288 21.7072 18.9286 21.6075C19.0283 21.5077 19.19 21.5077 19.2897 21.6075L20.4791 22.7968V19.3949C20.4791 19.2538 20.5934 19.1395 20.7344 19.1395C20.8755 19.1395 20.9898 19.2538 20.9898 19.3949V22.7968L22.1792 21.6075C22.2789 21.5077 22.4406 21.5077 22.5403 21.6075C22.6401 21.7072 22.6401 21.8689 22.5403 21.9687Z" fill="#4129A8"/>
<path d="M17.5661 26.273L19.1914 24.6477C19.2911 24.5479 19.2911 24.3862 19.1914 24.2865C19.0916 24.1867 18.9299 24.1867 18.8302 24.2865L17.6409 25.4758V19.3949C17.6409 19.2538 17.5265 19.1395 17.3855 19.1395C17.2444 19.1395 17.1301 19.2538 17.1301 19.3949V25.4758L15.9408 24.2865C15.841 24.1867 15.6793 24.1867 15.5796 24.2865C15.4799 24.3862 15.4799 24.5479 15.5796 24.6477L17.2049 26.273C17.3046 26.3727 17.4663 26.3727 17.5661 26.273Z" fill="#4129A8"/>
<path fill-rule="evenodd" clip-rule="evenodd" d="M22.8398 7.53235C23.263 7.53235 23.606 7.18932 23.606 6.76617C23.606 6.34303 23.263 6 22.8398 6C22.4167 6 22.0737 6.34303 22.0737 6.76617C22.0737 7.18932 22.4167 7.53235 22.8398 7.53235ZM22.8398 7.22588C23.0937 7.22588 23.2996 7.02006 23.2996 6.76617C23.2996 6.51229 23.0937 6.30647 22.8398 6.30647C22.586 6.30647 22.3801 6.51229 22.3801 6.76617C22.3801 7.02006 22.586 7.22588 22.8398 7.22588Z" stroke="#4129A8" stroke-width="0.204313" mask="url(#path-2-outside-1_11562_10313)"/>
<path d="M18.2545 7.35348C17.6853 7.30786 17.1127 7.3748 16.5694 7.55047C16.026 7.72615 15.5226 8.00712 15.0879 8.37734C14.6531 8.74757 14.2956 9.1998 14.0356 9.70821C13.8575 10.0564 13.7277 10.4263 13.6488 10.8077C13.3507 10.699 13.0094 10.6021 12.6735 10.5231C12.1285 10.3948 11.5589 10.3043 11.1506 10.2888C10.3439 10.2583 9.54033 10.408 8.81046 10.7262C8.08053 11.0444 7.44493 11.5222 6.96217 12.1201C6.47921 12.7182 6.16442 13.418 6.04914 14.1579C5.93384 14.898 6.02229 15.6519 6.30542 16.3518C6.58844 17.0514 7.05623 17.6733 7.6638 18.1643C8.2712 18.6552 9.0003 19.0009 9.78566 19.1734C10.571 19.3459 11.3909 19.3406 12.1735 19.1578C12.3599 19.1142 12.4758 18.9277 12.4322 18.7413C12.3887 18.5548 12.2022 18.439 12.0158 18.4825C11.334 18.6418 10.6188 18.6465 9.93444 18.4962C9.25009 18.3458 8.62016 18.0457 8.09963 17.625C7.57925 17.2045 7.18499 16.6771 6.94821 16.0918C6.71153 15.5067 6.63847 14.8795 6.73426 14.2646C6.83008 13.6496 7.09247 13.0624 7.50165 12.5557C7.91102 12.0487 8.45498 11.6376 9.08755 11.3618C9.72019 11.086 10.4199 10.955 11.1244 10.9817C11.4717 10.9949 11.9938 11.0755 12.5147 11.198C12.9353 11.297 13.3301 11.4177 13.6171 11.54C13.6721 11.6361 13.772 11.7042 13.8906 11.7138C13.9942 11.7221 14.0908 11.6839 14.1599 11.6168C14.2082 11.5858 14.2495 11.5424 14.2785 11.4882C14.3315 11.3888 14.3312 11.2753 14.2876 11.1803C14.3441 10.7777 14.4674 10.3868 14.653 10.0239C14.8715 9.59655 15.172 9.21643 15.5374 8.90525C15.9029 8.59406 16.326 8.35789 16.7827 8.21023C17.2394 8.06257 17.7207 8.0063 18.1991 8.04465C18.6776 8.083 19.1437 8.2152 19.5711 8.43372L19.8868 7.81636C19.3784 7.55639 18.8237 7.3991 18.2545 7.35348Z" stroke="#4129A8" stroke-width="0.204313" mask="url(#path-2-outside-1_11562_10313)"/>
<path d="M25.8834 13.9898C25.6476 13.5875 25.3237 13.244 24.9361 12.9851L25.3213 12.4085C25.7961 12.7257 26.1928 13.1465 26.4816 13.6391C26.7703 14.1318 26.9436 14.6835 26.9884 15.2528C27.0331 15.8221 26.9482 16.3941 26.74 16.9259C26.5318 17.4576 26.2057 17.9352 25.7863 18.3227C25.3669 18.7103 24.865 18.9976 24.3185 19.1632C23.772 19.3288 23.1951 19.3683 22.6311 19.2788C22.442 19.2487 22.313 19.0711 22.3431 18.882C22.3731 18.6929 22.5507 18.5639 22.7398 18.594C23.2003 18.6671 23.6713 18.6348 24.1174 18.4996C24.5636 18.3644 24.9733 18.1298 25.3157 17.8134C25.6582 17.4971 25.9244 17.1072 26.0944 16.673C26.2643 16.2389 26.3337 15.7719 26.2971 15.3072C26.2606 14.8424 26.1191 14.392 25.8834 13.9898Z" stroke="#4129A8" stroke-width="0.204313" mask="url(#path-2-outside-1_11562_10313)"/>
<path d="M12.0281 15.2962C12.0281 14.9289 12.1121 14.5994 12.28 14.3077C12.4479 14.0123 12.676 13.7819 12.9644 13.6162C13.2564 13.4505 13.5795 13.3677 13.9336 13.3677C14.3497 13.3677 14.7129 13.4667 15.0232 13.6648C15.3334 13.8629 15.5598 14.1438 15.7021 14.5075H15.1053C14.9994 14.2806 14.8461 14.106 14.6454 13.9835C14.4482 13.8611 14.211 13.7999 13.9336 13.7999C13.6671 13.7999 13.428 13.8611 13.2163 13.9835C13.0046 14.106 12.8385 14.2806 12.718 14.5075C12.5976 14.7308 12.5373 14.9937 12.5373 15.2962C12.5373 15.5951 12.5976 15.858 12.718 16.0849C12.8385 16.3082 13.0046 16.4811 13.2163 16.6035C13.428 16.726 13.6671 16.7872 13.9336 16.7872C14.211 16.7872 14.4482 16.7278 14.6454 16.6089C14.8461 16.4865 14.9994 16.3118 15.1053 16.0849H15.7021C15.5598 16.4451 15.3334 16.7242 15.0232 16.9222C14.7129 17.1167 14.3497 17.214 13.9336 17.214C13.5795 17.214 13.2564 17.1329 12.9644 16.9709C12.676 16.8052 12.4479 16.5765 12.28 16.2848C12.1121 15.9931 12.0281 15.6636 12.0281 15.2962Z" stroke="#4129A8" stroke-width="0.204313" mask="url(#path-2-outside-1_11562_10313)"/>
<path fill-rule="evenodd" clip-rule="evenodd" d="M18.1741 17.2194C17.82 17.2194 17.4969 17.1383 17.2049 16.9763C16.9129 16.8106 16.6811 16.5819 16.5095 16.2902C16.3416 15.9949 16.2577 15.6636 16.2577 15.2962C16.2577 14.9289 16.3416 14.5994 16.5095 14.3077C16.6811 14.0123 16.9129 13.7837 17.2049 13.6216C17.4969 13.4559 17.82 13.3731 18.1741 13.3731C18.5318 13.3731 18.8567 13.4559 19.1487 13.6216C19.4407 13.7837 19.6707 14.0105 19.8386 14.3022C20.0065 14.594 20.0905 14.9253 20.0905 15.2962C20.0905 15.6672 20.0065 15.9985 19.8386 16.2902C19.6707 16.5819 19.4407 16.8106 19.1487 16.9763C18.8567 17.1383 18.5318 17.2194 18.1741 17.2194ZM18.1741 16.7926C18.4405 16.7926 18.6796 16.7314 18.8913 16.6089C19.1067 16.4865 19.2746 16.3118 19.3951 16.0849C19.5192 15.858 19.5812 15.5951 19.5812 15.2962C19.5812 14.9937 19.5192 14.7308 19.3951 14.5075C19.2746 14.2806 19.1085 14.106 18.8968 13.9835C18.6851 13.8611 18.4442 13.7999 18.1741 13.7999C17.9039 13.7999 17.663 13.8611 17.4513 13.9835C17.2396 14.106 17.0717 14.2806 16.9476 14.5075C16.8271 14.7308 16.7669 14.9937 16.7669 15.2962C16.7669 15.5951 16.8271 15.858 16.9476 16.0849C17.0717 16.3118 17.2396 16.4865 17.4513 16.6089C17.6667 16.7314 17.9076 16.7926 18.1741 16.7926Z" stroke="#4129A8" stroke-width="0.204313" mask="url(#path-2-outside-1_11562_10313)"/>
<path d="M21.1479 17.304C20.9902 17.4444 20.7723 17.6249 20.4942 17.8453V18.0559H22.0744V17.8096H20.9442C21.1589 17.6389 21.3352 17.4898 21.4732 17.3623C21.6112 17.2327 21.7338 17.0836 21.8411 16.915C21.9506 16.7443 22.0054 16.5693 22.0054 16.39C22.0054 16.1739 21.9386 16.0043 21.805 15.8811C21.6736 15.7579 21.4951 15.6963 21.2695 15.6963C21.0483 15.6963 20.8676 15.7622 20.7274 15.8941C20.5872 16.0259 20.5128 16.2128 20.504 16.4548H20.7931C20.7997 16.3014 20.8435 16.1793 20.9245 16.0885C21.0078 15.9956 21.1238 15.9492 21.2728 15.9492C21.4261 15.9492 21.5367 15.9902 21.6046 16.0723C21.6747 16.1523 21.7097 16.2625 21.7097 16.4029C21.7097 16.552 21.655 16.7044 21.5454 16.8599C21.4381 17.0134 21.3056 17.1614 21.1479 17.304Z" stroke="#4129A8" stroke-width="0.204313" mask="url(#path-2-outside-1_11562_10313)"/>
<path fill-rule="evenodd" clip-rule="evenodd" d="M24.0832 10.3535C24.0832 11.2783 23.3336 12.0279 22.4088 12.0279C21.4841 12.0279 20.7344 11.2783 20.7344 10.3535C20.7344 9.42881 21.4841 8.67916 22.4088 8.67916C23.3336 8.67916 24.0832 9.42881 24.0832 10.3535ZM23.5724 10.3535C23.5724 10.9962 23.0515 11.5171 22.4088 11.5171C21.7662 11.5171 21.2452 10.9962 21.2452 10.3535C21.2452 9.7109 21.7662 9.18994 22.4088 9.18994C23.0515 9.18994 23.5724 9.7109 23.5724 10.3535Z" stroke="#4129A8" stroke-width="0.204313" mask="url(#path-2-outside-1_11562_10313)"/>
<path fill-rule="evenodd" clip-rule="evenodd" d="M25.0885 8.9969C25.6433 8.9969 26.0931 8.54711 26.0931 7.99227C26.0931 7.43743 25.6433 6.98765 25.0885 6.98765C24.5337 6.98765 24.0839 7.43743 24.0839 7.99227C24.0839 8.54711 24.5337 8.9969 25.0885 8.9969ZM25.0885 8.58827C25.4177 8.58827 25.6845 8.32143 25.6845 7.99227C25.6845 7.66311 25.4177 7.39627 25.0885 7.39627C24.7593 7.39627 24.4925 7.66311 24.4925 7.99227C24.4925 8.32143 24.7593 8.58827 25.0885 8.58827Z" stroke="#4129A8" stroke-width="0.204313" mask="url(#path-2-outside-1_11562_10313)"/>
<path d="M14.2171 23.594L15.8424 21.9687C15.9422 21.8689 15.9422 21.7072 15.8424 21.6075C15.7427 21.5077 15.581 21.5077 15.4812 21.6075L14.2919 22.7968V19.3949C14.2919 19.2538 14.1776 19.1395 14.0365 19.1395C13.8955 19.1395 13.7811 19.2538 13.7811 19.3949V22.7968L12.5918 21.6075C12.4921 21.5077 12.3304 21.5077 12.2307 21.6075C12.1309 21.7072 12.1309 21.8689 12.2307 21.9687L13.856 23.594C13.9557 23.6937 14.1174 23.6937 14.2171 23.594Z" stroke="#4129A8" stroke-width="0.204313" mask="url(#path-2-outside-1_11562_10313)"/>
<path d="M22.5403 21.9687L20.915 23.594C20.8153 23.6937 20.6536 23.6937 20.5539 23.594L18.9286 21.9687C18.8288 21.8689 18.8288 21.7072 18.9286 21.6075C19.0283 21.5077 19.19 21.5077 19.2897 21.6075L20.4791 22.7968V19.3949C20.4791 19.2538 20.5934 19.1395 20.7344 19.1395C20.8755 19.1395 20.9898 19.2538 20.9898 19.3949V22.7968L22.1792 21.6075C22.2789 21.5077 22.4406 21.5077 22.5403 21.6075C22.6401 21.7072 22.6401 21.8689 22.5403 21.9687Z" stroke="#4129A8" stroke-width="0.204313" mask="url(#path-2-outside-1_11562_10313)"/>
<path d="M17.5661 26.273L19.1914 24.6477C19.2911 24.5479 19.2911 24.3862 19.1914 24.2865C19.0916 24.1867 18.9299 24.1867 18.8302 24.2865L17.6409 25.4758V19.3949C17.6409 19.2538 17.5265 19.1395 17.3855 19.1395C17.2444 19.1395 17.1301 19.2538 17.1301 19.3949V25.4758L15.9408 24.2865C15.841 24.1867 15.6793 24.1867 15.5796 24.2865C15.4799 24.3862 15.4799 24.5479 15.5796 24.6477L17.2049 26.273C17.3046 26.3727 17.4663 26.3727 17.5661 26.273Z" stroke="#4129A8" stroke-width="0.204313" mask="url(#path-2-outside-1_11562_10313)"/>
</svg>
