<svg width="32" height="32" viewBox="0 0 32 32" fill="none" xmlns="http://www.w3.org/2000/svg">
<rect width="32" height="32" rx="8" fill="#ECEAF6"/>
<path fill-rule="evenodd" clip-rule="evenodd" d="M8.00008 8.625C7.24069 8.625 6.62508 9.24061 6.62508 10V22C6.62508 22.7594 7.24069 23.375 8.00008 23.375H24.0001C24.7595 23.375 25.3751 22.7594 25.3751 22V10C25.3751 9.24061 24.7595 8.625 24.0001 8.625H8.00008ZM5.37508 10C5.37508 8.55025 6.55033 7.375 8.00008 7.375H24.0001C25.4498 7.375 26.6251 8.55025 26.6251 10V22C26.6251 23.4497 25.4498 24.625 24.0001 24.625H8.00008C6.55033 24.625 5.37508 23.4497 5.37508 22V10Z" fill="#4129A8"/>
<path fill-rule="evenodd" clip-rule="evenodd" d="M5.47257 10.6648C5.6577 10.3735 6.04395 10.2874 6.33528 10.4725L15.3019 16.1704L15.3035 16.1713C15.5124 16.3018 15.7538 16.371 16.0001 16.371C16.2464 16.371 16.4878 16.3018 16.6967 16.1713L16.6982 16.1704L25.6649 10.4725C25.9562 10.2874 26.3425 10.3735 26.5276 10.6648C26.7127 10.9561 26.6266 11.3424 26.3353 11.5275L17.3619 17.2296C16.9537 17.4854 16.4818 17.621 16.0001 17.621C15.5184 17.621 15.0464 17.4854 14.6382 17.2296L14.6349 17.2275L5.66487 11.5275C5.37354 11.3424 5.28744 10.9561 5.47257 10.6648Z" fill="#4129A8"/>
</svg>
