<svg width="32" height="32" viewBox="0 0 32 32" fill="none" xmlns="http://www.w3.org/2000/svg">
<rect width="32" height="32" rx="8" fill="#ECEAF6"/>
<path fill-rule="evenodd" clip-rule="evenodd" d="M10 6.625C9.24061 6.625 8.625 7.24061 8.625 8V24C8.625 24.7594 9.24061 25.375 10 25.375H22C22.7594 25.375 23.375 24.7594 23.375 24V8C23.375 7.24061 22.7594 6.625 22 6.625H10ZM7.375 8C7.375 6.55025 8.55025 5.375 10 5.375H22C23.4497 5.375 24.625 6.55025 24.625 8V24C24.625 25.4497 23.4497 26.625 22 26.625H10C8.55025 26.625 7.375 25.4497 7.375 24V8Z" fill="#4129A8"/>
<path fill-rule="evenodd" clip-rule="evenodd" d="M11.375 10C11.375 9.65482 11.6548 9.375 12 9.375H20C20.3452 9.375 20.625 9.65482 20.625 10C20.625 10.3452 20.3452 10.625 20 10.625H12C11.6548 10.625 11.375 10.3452 11.375 10Z" fill="#4129A8"/>
<path fill-rule="evenodd" clip-rule="evenodd" d="M20 17.375C20.3452 17.375 20.625 17.6548 20.625 18V22C20.625 22.3452 20.3452 22.625 20 22.625C19.6548 22.625 19.375 22.3452 19.375 22V18C19.375 17.6548 19.6548 17.375 20 17.375Z" fill="#4129A8"/>
<path fill-rule="evenodd" clip-rule="evenodd" d="M19.375 14C19.375 13.6548 19.6548 13.375 20 13.375H20.01C20.3552 13.375 20.635 13.6548 20.635 14C20.635 14.3452 20.3552 14.625 20.01 14.625H20C19.6548 14.625 19.375 14.3452 19.375 14Z" fill="#4129A8"/>
<path fill-rule="evenodd" clip-rule="evenodd" d="M15.375 14C15.375 13.6548 15.6548 13.375 16 13.375H16.01C16.3552 13.375 16.635 13.6548 16.635 14C16.635 14.3452 16.3552 14.625 16.01 14.625H16C15.6548 14.625 15.375 14.3452 15.375 14Z" fill="#4129A8"/>
<path fill-rule="evenodd" clip-rule="evenodd" d="M11.375 14C11.375 13.6548 11.6548 13.375 12 13.375H12.01C12.3552 13.375 12.635 13.6548 12.635 14C12.635 14.3452 12.3552 14.625 12.01 14.625H12C11.6548 14.625 11.375 14.3452 11.375 14Z" fill="#4129A8"/>
<path fill-rule="evenodd" clip-rule="evenodd" d="M15.375 18C15.375 17.6548 15.6548 17.375 16 17.375H16.01C16.3552 17.375 16.635 17.6548 16.635 18C16.635 18.3452 16.3552 18.625 16.01 18.625H16C15.6548 18.625 15.375 18.3452 15.375 18Z" fill="#4129A8"/>
<path fill-rule="evenodd" clip-rule="evenodd" d="M11.375 18C11.375 17.6548 11.6548 17.375 12 17.375H12.01C12.3552 17.375 12.635 17.6548 12.635 18C12.635 18.3452 12.3552 18.625 12.01 18.625H12C11.6548 18.625 11.375 18.3452 11.375 18Z" fill="#4129A8"/>
<path fill-rule="evenodd" clip-rule="evenodd" d="M15.375 22C15.375 21.6548 15.6548 21.375 16 21.375H16.01C16.3552 21.375 16.635 21.6548 16.635 22C16.635 22.3452 16.3552 22.625 16.01 22.625H16C15.6548 22.625 15.375 22.3452 15.375 22Z" fill="#4129A8"/>
<path fill-rule="evenodd" clip-rule="evenodd" d="M11.375 22C11.375 21.6548 11.6548 21.375 12 21.375H12.01C12.3552 21.375 12.635 21.6548 12.635 22C12.635 22.3452 12.3552 22.625 12.01 22.625H12C11.6548 22.625 11.375 22.3452 11.375 22Z" fill="#4129A8"/>
</svg>
