<svg width="32" height="32" viewBox="0 0 32 32" fill="none" xmlns="http://www.w3.org/2000/svg">
<rect width="32" height="32" rx="8" fill="#ECEAF6"/>
<path d="M7.1231 6.07003C7.26321 5.95847 7.46627 5.98282 7.57665 6.12441C8.79774 7.69076 11.1065 10.0111 14.0437 11.8508C16.8017 13.5784 20.0872 14.8659 23.531 14.7369L22.5501 13.8964C22.3906 13.8158 22.3259 13.6197 22.4057 13.4585C22.4854 13.2972 22.6794 13.2319 22.839 13.3125L24.762 14.6291C25.0793 14.7894 25.0793 15.2472 24.762 15.4076L22.839 16.5791C22.6794 16.6597 22.4854 16.5943 22.4057 16.4331C22.3259 16.2719 22.3906 16.0758 22.5501 15.9952L23.3414 15.3956C19.8042 15.4715 16.4691 14.1381 13.7034 12.4057C10.6967 10.5224 8.33273 8.14908 7.06929 6.52841C6.95891 6.38681 6.983 6.18159 7.1231 6.07003Z" fill="#4129A8"/>
<path fill-rule="evenodd" clip-rule="evenodd" d="M10.4766 12.9563C10.4766 12.9563 9.42824 12.1865 8.75652 11.5076C8.46635 11.2144 8.10589 10.796 7.79003 10.4154C7.3747 9.91486 7.03646 9.47954 7.03646 9.47954V25.1249H10.4766V12.9563ZM9.72301 24.3633V13.3372C9.62966 13.2651 9.51982 13.1791 9.40026 13.0833C9.04726 12.8004 8.59042 12.4168 8.22367 12.0462C8.08792 11.909 7.94008 11.7488 7.79003 11.5799V24.3633H9.72301Z" fill="#4129A8"/>
<path fill-rule="evenodd" clip-rule="evenodd" d="M15.0634 15.8536C15.0634 15.8536 14.0151 15.437 13.3434 14.9844C13.0532 14.7889 12.6928 14.492 12.3769 14.2178C11.9616 13.8572 11.6233 13.5358 11.6233 13.5358V25.125H15.0634V15.8536ZM14.3099 24.3634V16.3581C14.2563 16.334 14.1996 16.3082 14.1406 16.2808C13.7843 16.1152 13.3113 15.8781 12.9254 15.6181C12.7532 15.5021 12.5644 15.3585 12.3769 15.2075V24.3634H14.3099Z" fill="#4129A8"/>
<path fill-rule="evenodd" clip-rule="evenodd" d="M18.5033 17.3023C19.175 17.5286 20.2233 17.592 20.2233 17.592V25.125H16.7832V16.4331C16.7832 16.4331 17.1215 16.6405 17.5368 16.8612C17.8527 17.029 18.2131 17.2045 18.5033 17.3023ZM19.4698 18.281V24.3634H17.5368V17.7149C17.7788 17.8336 18.0344 17.9471 18.265 18.0248C18.6543 18.156 19.1176 18.2344 19.4698 18.281Z" fill="#4129A8"/>
<path fill-rule="evenodd" clip-rule="evenodd" d="M24.0566 17.697C24.4729 17.6485 24.8102 17.592 24.8102 17.592V25.125H21.3701V17.592C21.3701 17.592 21.7074 17.6485 22.1237 17.697C22.4379 17.7337 22.7972 17.7659 23.0901 17.7659C23.3831 17.7659 23.7424 17.7337 24.0566 17.697ZM24.0566 18.4635C23.749 18.4977 23.3953 18.5275 23.0901 18.5275C22.7849 18.5275 22.4313 18.4977 22.1237 18.4635V24.3634H24.0566V18.4635Z" fill="#4129A8"/>
<path d="M7.1231 6.07003C7.26321 5.95847 7.46627 5.98282 7.57665 6.12441C8.79774 7.69076 11.1065 10.0111 14.0437 11.8508C16.8017 13.5784 20.0872 14.8659 23.531 14.7369L22.5501 13.8964C22.3906 13.8158 22.3259 13.6197 22.4057 13.4585C22.4854 13.2972 22.6794 13.2319 22.839 13.3125L24.762 14.6291C25.0793 14.7894 25.0793 15.2472 24.762 15.4076L22.839 16.5791C22.6794 16.6597 22.4854 16.5943 22.4057 16.4331C22.3259 16.2719 22.3906 16.0758 22.5501 15.9952L23.3414 15.3956C19.8042 15.4715 16.4691 14.1381 13.7034 12.4057C10.6967 10.5224 8.33273 8.14908 7.06929 6.52841C6.95891 6.38681 6.983 6.18159 7.1231 6.07003Z" stroke="#4129A8" stroke-width="0.225" stroke-linecap="round"/>
<path fill-rule="evenodd" clip-rule="evenodd" d="M10.4766 12.9563C10.4766 12.9563 9.42824 12.1865 8.75652 11.5076C8.46635 11.2144 8.10589 10.796 7.79003 10.4154C7.3747 9.91486 7.03646 9.47954 7.03646 9.47954V25.1249H10.4766V12.9563ZM9.72301 24.3633V13.3372C9.62966 13.2651 9.51982 13.1791 9.40026 13.0833C9.04726 12.8004 8.59042 12.4168 8.22367 12.0462C8.08792 11.909 7.94008 11.7488 7.79003 11.5799V24.3633H9.72301Z" stroke="#4129A8" stroke-width="0.225" stroke-linecap="round"/>
<path fill-rule="evenodd" clip-rule="evenodd" d="M15.0634 15.8536C15.0634 15.8536 14.0151 15.437 13.3434 14.9844C13.0532 14.7889 12.6928 14.492 12.3769 14.2178C11.9616 13.8572 11.6233 13.5358 11.6233 13.5358V25.125H15.0634V15.8536ZM14.3099 24.3634V16.3581C14.2563 16.334 14.1996 16.3082 14.1406 16.2808C13.7843 16.1152 13.3113 15.8781 12.9254 15.6181C12.7532 15.5021 12.5644 15.3585 12.3769 15.2075V24.3634H14.3099Z" stroke="#4129A8" stroke-width="0.225" stroke-linecap="round"/>
<path fill-rule="evenodd" clip-rule="evenodd" d="M18.5033 17.3023C19.175 17.5286 20.2233 17.592 20.2233 17.592V25.125H16.7832V16.4331C16.7832 16.4331 17.1215 16.6405 17.5368 16.8612C17.8527 17.029 18.2131 17.2045 18.5033 17.3023ZM19.4698 18.281V24.3634H17.5368V17.7149C17.7788 17.8336 18.0344 17.9471 18.265 18.0248C18.6543 18.156 19.1176 18.2344 19.4698 18.281Z" stroke="#4129A8" stroke-width="0.225" stroke-linecap="round"/>
<path fill-rule="evenodd" clip-rule="evenodd" d="M24.0566 17.697C24.4729 17.6485 24.8102 17.592 24.8102 17.592V25.125H21.3701V17.592C21.3701 17.592 21.7074 17.6485 22.1237 17.697C22.4379 17.7337 22.7972 17.7659 23.0901 17.7659C23.3831 17.7659 23.7424 17.7337 24.0566 17.697ZM24.0566 18.4635C23.749 18.4977 23.3953 18.5275 23.0901 18.5275C22.7849 18.5275 22.4313 18.4977 22.1237 18.4635V24.3634H24.0566V18.4635Z" stroke="#4129A8" stroke-width="0.225" stroke-linecap="round"/>
</svg>
