<svg width="32" height="32" viewBox="0 0 32 32" fill="none" xmlns="http://www.w3.org/2000/svg">
<rect width="32" height="32" rx="8" fill="#ECEAF6"/>
<path fill-rule="evenodd" clip-rule="evenodd" d="M8.09412 8.32315C7.70993 8.62592 7.625 8.85937 7.625 9C7.625 9.14063 7.70993 9.37408 8.09412 9.67685C8.47127 9.97408 9.05574 10.2691 9.83368 10.5284C11.383 11.0448 13.5632 11.375 16 11.375C18.4368 11.375 20.617 11.0448 22.1663 10.5284C22.9443 10.2691 23.5287 9.97408 23.9059 9.67685C24.2901 9.37408 24.375 9.14063 24.375 9C24.375 8.85937 24.2901 8.62592 23.9059 8.32315C23.5287 8.02592 22.9443 7.73092 22.1663 7.47161C20.617 6.95516 18.4368 6.625 16 6.625C13.5632 6.625 11.383 6.95516 9.83368 7.47161C9.05574 7.73092 8.47127 8.02592 8.09412 8.32315ZM9.4384 6.28575C11.1464 5.71642 13.4662 5.375 16 5.375C18.5338 5.375 20.8536 5.71642 22.5616 6.28575C23.4123 6.56933 24.1459 6.92078 24.6796 7.34138C25.2063 7.75644 25.625 8.3122 25.625 9C25.625 9.6878 25.2063 10.2436 24.6796 10.6586C24.1459 11.0792 23.4123 11.4307 22.5616 11.7142C20.8536 12.2836 18.5338 12.625 16 12.625C13.4662 12.625 11.1464 12.2836 9.4384 11.7142C8.58766 11.4307 7.85411 11.0792 7.32041 10.6586C6.79375 10.2436 6.375 9.6878 6.375 9C6.375 8.3122 6.79375 7.75644 7.32041 7.34138C7.85411 6.92078 8.58766 6.56933 9.4384 6.28575Z" fill="#4129A8"/>
<path fill-rule="evenodd" clip-rule="evenodd" d="M7 8.375C7.34518 8.375 7.625 8.65482 7.625 9V23C7.625 23.1307 7.70247 23.3598 8.07692 23.6611C8.44561 23.9578 9.02836 24.26 9.83368 24.5284C11.4402 25.0639 13.6588 25.375 16 25.375C18.3412 25.375 20.5598 25.0639 22.1663 24.5284C22.9716 24.26 23.5544 23.9578 23.9231 23.6611C24.2975 23.3598 24.375 23.1307 24.375 23V9C24.375 8.65482 24.6548 8.375 25 8.375C25.3452 8.375 25.625 8.65482 25.625 9V23C25.625 23.665 25.2284 24.2152 24.7068 24.635C24.1794 25.0594 23.4441 25.4201 22.5616 25.7142C20.7925 26.304 18.4327 26.625 16 26.625C13.5673 26.625 11.2075 26.304 9.4384 25.7142C8.55589 25.4201 7.82062 25.0594 7.29324 24.635C6.77164 24.2152 6.375 23.665 6.375 23V9C6.375 8.65482 6.65482 8.375 7 8.375Z" fill="#4129A8"/>
<path fill-rule="evenodd" clip-rule="evenodd" d="M7 15.375C7.34518 15.375 7.625 15.6548 7.625 16C7.625 16.1307 7.70247 16.3598 8.07692 16.6611C8.44561 16.9578 9.02836 17.26 9.83368 17.5284C11.4402 18.0639 13.6588 18.375 16 18.375C18.3412 18.375 20.5598 18.0639 22.1663 17.5284C22.9716 17.26 23.5544 16.9578 23.9231 16.6611C24.2975 16.3598 24.375 16.1307 24.375 16C24.375 15.6548 24.6548 15.375 25 15.375C25.3452 15.375 25.625 15.6548 25.625 16C25.625 16.665 25.2284 17.2152 24.7068 17.635C24.1794 18.0594 23.4441 18.4201 22.5616 18.7142C20.7925 19.304 18.4327 19.625 16 19.625C13.5673 19.625 11.2075 19.304 9.4384 18.7142C8.55589 18.4201 7.82062 18.0594 7.29324 17.635C6.77164 17.2152 6.375 16.665 6.375 16C6.375 15.6548 6.65482 15.375 7 15.375Z" fill="#4129A8"/>
</svg>
