<svg width="520" height="323" viewBox="0 0 520 323" fill="none" xmlns="http://www.w3.org/2000/svg">
<path d="M10.64 4.34C11.0787 4.34 11.3027 4.564 11.312 5.012L11.69 14H10.024L9.688 5.726H9.422L7.616 12.208C7.532 12.5907 7.294 12.782 6.902 12.782H5.67C5.26867 12.782 5.02133 12.5907 4.928 12.208L3.122 5.726H2.856L2.548 14H0.882L1.26 5.012C1.27867 4.564 1.50267 4.34 1.932 4.34H3.682C4.05533 4.34 4.28867 4.53133 4.382 4.914L5.866 10.206C5.93133 10.43 5.98267 10.654 6.02 10.878C6.06667 11.102 6.118 11.326 6.174 11.55H6.384C6.44 11.326 6.49133 11.102 6.538 10.878C6.58467 10.654 6.636 10.4253 6.692 10.192L8.176 4.914C8.26 4.53133 8.498 4.34 8.89 4.34H10.64ZM16.6098 6.958C17.7205 6.958 18.5185 7.154 19.0038 7.546C19.4891 7.92867 19.7365 8.498 19.7458 9.254C19.7551 9.87933 19.6058 10.3553 19.2978 10.682C18.9991 10.9993 18.4998 11.158 17.7998 11.158H13.8798V10.108H17.3378C17.6551 10.108 17.8558 10.024 17.9398 9.856C18.0331 9.688 18.0798 9.48267 18.0798 9.24C18.0705 8.85733 17.9585 8.59133 17.7438 8.442C17.5385 8.29267 17.1838 8.218 16.6798 8.218C16.2411 8.218 15.9005 8.27867 15.6578 8.4C15.4151 8.52133 15.2425 8.74067 15.1398 9.058C15.0465 9.37533 14.9998 9.83267 14.9998 10.43C14.9998 11.0647 15.0605 11.5547 15.1818 11.9C15.3031 12.2453 15.5038 12.4833 15.7838 12.614C16.0638 12.7353 16.4371 12.796 16.9038 12.796C17.2491 12.796 17.6458 12.782 18.0938 12.754C18.5511 12.726 18.9898 12.6887 19.4098 12.642L19.5778 13.72C19.3258 13.8227 19.0365 13.9067 18.7098 13.972C18.3831 14.0373 18.0425 14.084 17.6878 14.112C17.3425 14.1493 17.0158 14.168 16.7078 14.168C15.8678 14.168 15.1911 14.0467 14.6778 13.804C14.1738 13.552 13.8051 13.16 13.5718 12.628C13.3478 12.096 13.2358 11.41 13.2358 10.57C13.2358 9.66467 13.3478 8.95067 13.5718 8.428C13.8051 7.896 14.1691 7.518 14.6638 7.294C15.1678 7.07 15.8165 6.958 16.6098 6.958ZM24.7264 6.958C25.2771 6.958 25.7391 7.03267 26.1124 7.182C26.4951 7.322 26.7844 7.56467 26.9804 7.91C27.1764 8.25533 27.2744 8.73133 27.2744 9.338V14H25.9304L25.6924 12.516L25.5664 12.32V9.324C25.5664 8.96 25.4824 8.69867 25.3144 8.54C25.1464 8.372 24.8244 8.288 24.3484 8.288C23.9937 8.288 23.5457 8.302 23.0044 8.33C22.4724 8.358 21.9357 8.39533 21.3944 8.442L21.2404 7.28C21.5671 7.21467 21.9357 7.15867 22.3464 7.112C22.7571 7.06533 23.1724 7.028 23.5924 7C24.0124 6.972 24.3904 6.958 24.7264 6.958ZM26.5464 9.772L26.5324 10.822H23.3824C23.1024 10.8313 22.9017 10.906 22.7804 11.046C22.6591 11.186 22.5984 11.3773 22.5984 11.62V11.998C22.5984 12.278 22.6731 12.4927 22.8224 12.642C22.9717 12.782 23.2051 12.852 23.5224 12.852C23.7744 12.852 24.0544 12.8007 24.3624 12.698C24.6704 12.5953 24.9737 12.446 25.2724 12.25C25.5804 12.054 25.8557 11.8207 26.0984 11.55V12.432C26.0051 12.572 25.8697 12.74 25.6924 12.936C25.5151 13.1227 25.2957 13.3093 25.0344 13.496C24.7824 13.6827 24.4884 13.8367 24.1524 13.958C23.8257 14.0793 23.4617 14.14 23.0604 14.14C22.6497 14.14 22.2811 14.07 21.9544 13.93C21.6277 13.7807 21.3711 13.566 21.1844 13.286C20.9977 12.9967 20.9044 12.642 20.9044 12.222V11.494C20.9044 10.9527 21.0817 10.5327 21.4364 10.234C21.8004 9.926 22.2951 9.772 22.9204 9.772H26.5464ZM31.5941 6.958C31.9114 6.958 32.2521 6.96733 32.6161 6.986C32.9894 7.00467 33.3534 7.03267 33.7081 7.07C34.0627 7.098 34.3801 7.14 34.6601 7.196L34.5481 8.302C34.1001 8.29267 33.6521 8.28333 33.2041 8.274C32.7654 8.25533 32.3314 8.246 31.9021 8.246C31.5194 8.246 31.2161 8.25533 30.9921 8.274C30.7774 8.29267 30.6234 8.34867 30.5301 8.442C30.4461 8.53533 30.4041 8.694 30.4041 8.918C30.4041 9.18867 30.4787 9.37067 30.6281 9.464C30.7774 9.548 31.0201 9.632 31.3561 9.716L33.2321 10.15C33.7921 10.29 34.2074 10.5047 34.4781 10.794C34.7487 11.074 34.8841 11.508 34.8841 12.096C34.8841 12.6653 34.7767 13.0993 34.5621 13.398C34.3567 13.6873 34.0254 13.888 33.5681 14C33.1201 14.1027 32.5461 14.154 31.8461 14.154C31.5754 14.154 31.1741 14.14 30.6421 14.112C30.1101 14.0933 29.5267 14.0327 28.8921 13.93L29.0041 12.824C29.1907 12.824 29.4101 12.8287 29.6621 12.838C29.9234 12.8473 30.1987 12.852 30.4881 12.852C30.7867 12.852 31.0901 12.852 31.3981 12.852C31.8927 12.852 32.2707 12.838 32.5321 12.81C32.8027 12.7727 32.9894 12.7027 33.0921 12.6C33.1947 12.488 33.2461 12.3293 33.2461 12.124C33.2461 11.8627 33.1574 11.69 32.9801 11.606C32.8121 11.5127 32.5601 11.424 32.2241 11.34L30.3901 10.892C29.9701 10.78 29.6434 10.64 29.4101 10.472C29.1767 10.2947 29.0087 10.08 28.9061 9.828C28.8034 9.56667 28.7521 9.24933 28.7521 8.876C28.7521 8.372 28.8454 7.98 29.0321 7.7C29.2281 7.42 29.5314 7.224 29.9421 7.112C30.3621 7 30.9127 6.94867 31.5941 6.958ZM38.0688 7.126V11.774C38.0595 12.1193 38.1248 12.3667 38.2648 12.516C38.4142 12.6653 38.6522 12.74 38.9788 12.74C39.3055 12.74 39.6322 12.67 39.9588 12.53C40.2855 12.39 40.6822 12.18 41.1488 11.9L41.3168 12.908C40.7942 13.328 40.2902 13.6453 39.8048 13.86C39.3195 14.0747 38.8155 14.182 38.2928 14.182C37.0142 14.182 36.3748 13.552 36.3748 12.292V7.126H38.0688ZM42.6748 7.126V14H41.3308L41.1488 12.67L40.9808 12.474V7.126H42.6748ZM45.895 7.126L46.119 8.47L46.273 8.666V14H44.579V7.126H45.895ZM49.255 6.958L49.087 8.526H48.597C48.233 8.526 47.8643 8.58667 47.491 8.708C47.1176 8.82933 46.651 9.01133 46.091 9.254L45.979 8.26C46.4643 7.84933 46.959 7.532 47.463 7.308C47.967 7.07467 48.4523 6.958 48.919 6.958H49.255ZM53.3325 6.958C54.4431 6.958 55.2411 7.154 55.7265 7.546C56.2118 7.92867 56.4591 8.498 56.4685 9.254C56.4778 9.87933 56.3285 10.3553 56.0205 10.682C55.7218 10.9993 55.2225 11.158 54.5225 11.158H50.6025V10.108H54.0605C54.3778 10.108 54.5785 10.024 54.6625 9.856C54.7558 9.688 54.8025 9.48267 54.8025 9.24C54.7931 8.85733 54.6811 8.59133 54.4665 8.442C54.2611 8.29267 53.9065 8.218 53.4025 8.218C52.9638 8.218 52.6231 8.27867 52.3805 8.4C52.1378 8.52133 51.9651 8.74067 51.8625 9.058C51.7691 9.37533 51.7225 9.83267 51.7225 10.43C51.7225 11.0647 51.7831 11.5547 51.9045 11.9C52.0258 12.2453 52.2265 12.4833 52.5065 12.614C52.7865 12.7353 53.1598 12.796 53.6265 12.796C53.9718 12.796 54.3685 12.782 54.8165 12.754C55.2738 12.726 55.7125 12.6887 56.1325 12.642L56.3005 13.72C56.0485 13.8227 55.7591 13.9067 55.4325 13.972C55.1058 14.0373 54.7651 14.084 54.4105 14.112C54.0651 14.1493 53.7385 14.168 53.4305 14.168C52.5905 14.168 51.9138 14.0467 51.4005 13.804C50.8965 13.552 50.5278 13.16 50.2945 12.628C50.0705 12.096 49.9585 11.41 49.9585 10.57C49.9585 9.66467 50.0705 8.95067 50.2945 8.428C50.5278 7.896 50.8918 7.518 51.3865 7.294C51.8905 7.07 52.5391 6.958 53.3325 6.958Z" fill="#4129A8"/>
<path d="M304.634 96.214C305.437 96.214 306.085 96.298 306.58 96.466C307.084 96.634 307.448 96.9233 307.672 97.334C307.905 97.7353 308.022 98.3047 308.022 99.042C308.022 99.5273 307.961 99.9427 307.84 100.288C307.728 100.624 307.537 100.895 307.266 101.1C307.005 101.296 306.65 101.422 306.202 101.478V101.548C306.361 101.585 306.524 101.66 306.692 101.772C306.869 101.875 307.028 102.024 307.168 102.22C307.317 102.416 307.429 102.668 307.504 102.976L308.386 106H306.538L305.74 103.018C305.637 102.682 305.497 102.449 305.32 102.318C305.143 102.178 304.9 102.108 304.592 102.108C303.985 102.108 303.467 102.108 303.038 102.108C302.609 102.099 302.249 102.089 301.96 102.08C301.68 102.071 301.433 102.066 301.218 102.066L301.26 100.736H304.592C305.012 100.727 305.343 100.68 305.586 100.596C305.829 100.503 306.001 100.344 306.104 100.12C306.207 99.8867 306.258 99.56 306.258 99.14C306.258 98.7293 306.207 98.412 306.104 98.188C306.001 97.964 305.829 97.81 305.586 97.726C305.343 97.6327 305.012 97.586 304.592 97.586C303.771 97.586 303.066 97.5907 302.478 97.6C301.89 97.6093 301.489 97.6187 301.274 97.628L301.078 96.34C301.451 96.3027 301.801 96.2747 302.128 96.256C302.464 96.2373 302.828 96.228 303.22 96.228C303.612 96.2187 304.083 96.214 304.634 96.214ZM302.8 96.34V106H301.078V96.34H302.8ZM312.836 98.958C313.947 98.958 314.745 99.154 315.23 99.546C315.716 99.9287 315.963 100.498 315.972 101.254C315.982 101.879 315.832 102.355 315.524 102.682C315.226 102.999 314.726 103.158 314.026 103.158H310.106V102.108H313.564C313.882 102.108 314.082 102.024 314.166 101.856C314.26 101.688 314.306 101.483 314.306 101.24C314.297 100.857 314.185 100.591 313.97 100.442C313.765 100.293 313.41 100.218 312.906 100.218C312.468 100.218 312.127 100.279 311.884 100.4C311.642 100.521 311.469 100.741 311.366 101.058C311.273 101.375 311.226 101.833 311.226 102.43C311.226 103.065 311.287 103.555 311.408 103.9C311.53 104.245 311.73 104.483 312.01 104.614C312.29 104.735 312.664 104.796 313.13 104.796C313.476 104.796 313.872 104.782 314.32 104.754C314.778 104.726 315.216 104.689 315.636 104.642L315.804 105.72C315.552 105.823 315.263 105.907 314.936 105.972C314.61 106.037 314.269 106.084 313.914 106.112C313.569 106.149 313.242 106.168 312.934 106.168C312.094 106.168 311.418 106.047 310.904 105.804C310.4 105.552 310.032 105.16 309.798 104.628C309.574 104.096 309.462 103.41 309.462 102.57C309.462 101.665 309.574 100.951 309.798 100.428C310.032 99.896 310.396 99.518 310.89 99.294C311.394 99.07 312.043 98.958 312.836 98.958ZM321.765 98.958C322.614 98.958 323.226 99.2707 323.599 99.896C323.972 100.521 324.159 101.427 324.159 102.612C324.159 103.517 324.061 104.231 323.865 104.754C323.678 105.267 323.394 105.636 323.011 105.86C322.628 106.075 322.143 106.182 321.555 106.182C321.088 106.182 320.631 106.117 320.183 105.986C319.744 105.846 319.338 105.631 318.965 105.342L319.077 104.502C319.441 104.605 319.768 104.693 320.057 104.768C320.346 104.843 320.664 104.88 321.009 104.88C321.354 104.88 321.625 104.824 321.821 104.712C322.026 104.591 322.176 104.367 322.269 104.04C322.362 103.713 322.409 103.242 322.409 102.626C322.409 102.019 322.367 101.548 322.283 101.212C322.199 100.876 322.059 100.643 321.863 100.512C321.676 100.372 321.429 100.302 321.121 100.302C320.785 100.302 320.468 100.377 320.169 100.526C319.87 100.666 319.525 100.876 319.133 101.156L318.937 100.26C319.152 100.008 319.408 99.784 319.707 99.588C320.015 99.392 320.346 99.238 320.701 99.126C321.056 99.014 321.41 98.958 321.765 98.958ZM318.867 99.126L319.035 100.456L319.189 100.652V105.09L319.119 105.258C319.147 105.529 319.166 105.799 319.175 106.07C319.184 106.35 319.189 106.635 319.189 106.924V108.73H317.495V99.126H318.867ZM328.888 98.958C329.728 98.958 330.395 99.0747 330.89 99.308C331.394 99.5413 331.753 99.924 331.968 100.456C332.192 100.988 332.304 101.693 332.304 102.57C332.304 103.447 332.192 104.152 331.968 104.684C331.753 105.207 331.394 105.589 330.89 105.832C330.395 106.065 329.728 106.182 328.888 106.182C328.067 106.182 327.404 106.065 326.9 105.832C326.405 105.589 326.046 105.207 325.822 104.684C325.598 104.152 325.486 103.447 325.486 102.57C325.486 101.693 325.598 100.988 325.822 100.456C326.046 99.924 326.405 99.5413 326.9 99.308C327.404 99.0747 328.067 98.958 328.888 98.958ZM328.888 100.246C328.477 100.246 328.151 100.316 327.908 100.456C327.675 100.587 327.507 100.82 327.404 101.156C327.301 101.492 327.25 101.963 327.25 102.57C327.25 103.177 327.301 103.648 327.404 103.984C327.507 104.32 327.675 104.553 327.908 104.684C328.151 104.815 328.477 104.88 328.888 104.88C329.308 104.88 329.639 104.815 329.882 104.684C330.125 104.553 330.293 104.32 330.386 103.984C330.489 103.648 330.54 103.177 330.54 102.57C330.54 101.963 330.489 101.492 330.386 101.156C330.293 100.82 330.125 100.587 329.882 100.456C329.639 100.316 329.308 100.246 328.888 100.246ZM335.217 99.126L335.441 100.47L335.595 100.666V106H333.901V99.126H335.217ZM338.577 98.958L338.409 100.526H337.919C337.555 100.526 337.187 100.587 336.813 100.708C336.44 100.829 335.973 101.011 335.413 101.254L335.301 100.26C335.787 99.8493 336.281 99.532 336.785 99.308C337.289 99.0747 337.775 98.958 338.241 98.958H338.577ZM341.993 97.166V103.928C341.993 104.217 342.054 104.423 342.175 104.544C342.306 104.665 342.525 104.726 342.833 104.726H343.785L343.967 105.916C343.809 105.963 343.617 106.005 343.393 106.042C343.169 106.079 342.95 106.103 342.735 106.112C342.521 106.131 342.339 106.14 342.189 106.14C341.592 106.14 341.125 105.981 340.789 105.664C340.463 105.337 340.299 104.871 340.299 104.264V97.166H341.993ZM344.037 99.126V100.302H339.081V99.196L340.425 99.126H344.037Z" fill="#4129A8"/>
<path d="M99.334 214.059C99.4833 214.059 99.614 214.101 99.726 214.185C99.838 214.269 99.9173 214.381 99.964 214.521L102.89 223.719H101.098L98.886 216.271C98.8487 216.121 98.8113 215.972 98.774 215.823C98.7367 215.673 98.704 215.529 98.676 215.389H98.284C98.256 215.529 98.2233 215.673 98.186 215.823C98.1487 215.972 98.1067 216.121 98.06 216.271L95.862 223.719H94.07L96.996 214.521C97.0333 214.381 97.108 214.269 97.22 214.185C97.3413 214.101 97.4767 214.059 97.626 214.059H99.334ZM100.958 219.589V220.961H95.988V219.589H100.958ZM108.429 216.677C109.708 216.677 110.347 217.307 110.347 218.567V223.719H108.653V219.085C108.653 218.711 108.588 218.455 108.457 218.315C108.326 218.175 108.107 218.105 107.799 218.105C107.454 218.105 107.099 218.184 106.735 218.343C106.371 218.492 105.932 218.711 105.419 219.001L105.349 217.979C105.853 217.559 106.366 217.237 106.889 217.013C107.412 216.789 107.925 216.677 108.429 216.677ZM105.293 216.845L105.461 218.189L105.601 218.385V223.719H103.907V216.845H105.293ZM115.664 216.677C116.215 216.677 116.677 216.751 117.05 216.901C117.433 217.041 117.722 217.283 117.918 217.629C118.114 217.974 118.212 218.45 118.212 219.057V223.719H116.868L116.63 222.235L116.504 222.039V219.043C116.504 218.679 116.42 218.417 116.252 218.259C116.084 218.091 115.762 218.007 115.286 218.007C114.931 218.007 114.483 218.021 113.942 218.049C113.41 218.077 112.873 218.114 112.332 218.161L112.178 216.999C112.505 216.933 112.873 216.877 113.284 216.831C113.695 216.784 114.11 216.747 114.53 216.719C114.95 216.691 115.328 216.677 115.664 216.677ZM117.484 219.491L117.47 220.541H114.32C114.04 220.55 113.839 220.625 113.718 220.765C113.597 220.905 113.536 221.096 113.536 221.339V221.717C113.536 221.997 113.611 222.211 113.76 222.361C113.909 222.501 114.143 222.571 114.46 222.571C114.712 222.571 114.992 222.519 115.3 222.417C115.608 222.314 115.911 222.165 116.21 221.969C116.518 221.773 116.793 221.539 117.036 221.269V222.151C116.943 222.291 116.807 222.459 116.63 222.655C116.453 222.841 116.233 223.028 115.972 223.215C115.72 223.401 115.426 223.555 115.09 223.677C114.763 223.798 114.399 223.859 113.998 223.859C113.587 223.859 113.219 223.789 112.892 223.649C112.565 223.499 112.309 223.285 112.122 223.005C111.935 222.715 111.842 222.361 111.842 221.941V221.213C111.842 220.671 112.019 220.251 112.374 219.953C112.738 219.645 113.233 219.491 113.858 219.491H117.484ZM121.762 213.919L121.748 221.647C121.748 221.908 121.822 222.109 121.972 222.249C122.121 222.379 122.336 222.445 122.616 222.445H123.218L123.414 223.635C123.311 223.681 123.166 223.723 122.98 223.761C122.802 223.798 122.616 223.821 122.42 223.831C122.233 223.849 122.07 223.859 121.93 223.859C121.36 223.859 120.908 223.705 120.572 223.397C120.236 223.089 120.068 222.645 120.068 222.067V213.919H121.762ZM130.694 216.845L128.118 223.929C127.996 224.255 127.842 224.577 127.656 224.895C127.478 225.221 127.25 225.515 126.97 225.777C126.69 226.038 126.358 226.243 125.976 226.393C125.593 226.542 125.15 226.598 124.646 226.561L124.506 225.553C125.066 225.394 125.5 225.179 125.808 224.909C126.125 224.638 126.372 224.293 126.55 223.873L126.928 222.977C127.012 222.771 127.091 222.538 127.166 222.277C127.25 222.006 127.32 221.773 127.376 221.577L128.874 216.845H130.694ZM125.15 216.845L126.676 221.577C126.722 221.735 126.764 221.899 126.802 222.067C126.839 222.225 126.872 222.384 126.9 222.543H127.25L126.718 223.719H126.27C126.139 223.719 126.022 223.681 125.92 223.607C125.817 223.532 125.747 223.429 125.71 223.299L123.344 216.845H125.15ZM134.276 216.677C134.593 216.677 134.934 216.686 135.298 216.705C135.671 216.723 136.035 216.751 136.39 216.789C136.744 216.817 137.062 216.859 137.342 216.915L137.23 218.021C136.782 218.011 136.334 218.002 135.886 217.993C135.447 217.974 135.013 217.965 134.584 217.965C134.201 217.965 133.898 217.974 133.674 217.993C133.459 218.011 133.305 218.067 133.212 218.161C133.128 218.254 133.086 218.413 133.086 218.637C133.086 218.907 133.16 219.089 133.31 219.183C133.459 219.267 133.702 219.351 134.038 219.435L135.914 219.869C136.474 220.009 136.889 220.223 137.16 220.513C137.43 220.793 137.566 221.227 137.566 221.815C137.566 222.384 137.458 222.818 137.244 223.117C137.038 223.406 136.707 223.607 136.25 223.719C135.802 223.821 135.228 223.873 134.528 223.873C134.257 223.873 133.856 223.859 133.324 223.831C132.792 223.812 132.208 223.751 131.574 223.649L131.686 222.543C131.872 222.543 132.092 222.547 132.344 222.557C132.605 222.566 132.88 222.571 133.17 222.571C133.468 222.571 133.772 222.571 134.08 222.571C134.574 222.571 134.952 222.557 135.214 222.529C135.484 222.491 135.671 222.421 135.774 222.319C135.876 222.207 135.928 222.048 135.928 221.843C135.928 221.581 135.839 221.409 135.662 221.325C135.494 221.231 135.242 221.143 134.906 221.059L133.072 220.611C132.652 220.499 132.325 220.359 132.092 220.191C131.858 220.013 131.69 219.799 131.588 219.547C131.485 219.285 131.434 218.968 131.434 218.595C131.434 218.091 131.527 217.699 131.714 217.419C131.91 217.139 132.213 216.943 132.624 216.831C133.044 216.719 133.594 216.667 134.276 216.677ZM142.164 216.677C143.275 216.677 144.073 216.873 144.558 217.265C145.044 217.647 145.291 218.217 145.3 218.973C145.31 219.598 145.16 220.074 144.852 220.401C144.554 220.718 144.054 220.877 143.354 220.877H139.434V219.827H142.892C143.21 219.827 143.41 219.743 143.494 219.575C143.588 219.407 143.634 219.201 143.634 218.959C143.625 218.576 143.513 218.31 143.298 218.161C143.093 218.011 142.738 217.937 142.234 217.937C141.796 217.937 141.455 217.997 141.212 218.119C140.97 218.24 140.797 218.459 140.694 218.777C140.601 219.094 140.554 219.551 140.554 220.149C140.554 220.783 140.615 221.273 140.736 221.619C140.858 221.964 141.058 222.202 141.338 222.333C141.618 222.454 141.992 222.515 142.458 222.515C142.804 222.515 143.2 222.501 143.648 222.473C144.106 222.445 144.544 222.407 144.964 222.361L145.132 223.439C144.88 223.541 144.591 223.625 144.264 223.691C143.938 223.756 143.597 223.803 143.242 223.831C142.897 223.868 142.57 223.887 142.262 223.887C141.422 223.887 140.746 223.765 140.232 223.523C139.728 223.271 139.36 222.879 139.126 222.347C138.902 221.815 138.79 221.129 138.79 220.289C138.79 219.383 138.902 218.669 139.126 218.147C139.36 217.615 139.724 217.237 140.218 217.013C140.722 216.789 141.371 216.677 142.164 216.677Z" fill="#4129A8"/>
<path d="M475.634 309.933C476.437 309.933 477.085 310.017 477.58 310.185C478.084 310.353 478.448 310.642 478.672 311.053C478.905 311.454 479.022 312.023 479.022 312.761C479.022 313.246 478.961 313.661 478.84 314.007C478.728 314.343 478.537 314.613 478.266 314.819C478.005 315.015 477.65 315.141 477.202 315.197V315.267C477.361 315.304 477.524 315.379 477.692 315.491C477.869 315.593 478.028 315.743 478.168 315.939C478.317 316.135 478.429 316.387 478.504 316.695L479.386 319.719H477.538L476.74 316.737C476.637 316.401 476.497 316.167 476.32 316.037C476.143 315.897 475.9 315.827 475.592 315.827C474.985 315.827 474.467 315.827 474.038 315.827C473.609 315.817 473.249 315.808 472.96 315.799C472.68 315.789 472.433 315.785 472.218 315.785L472.26 314.455H475.592C476.012 314.445 476.343 314.399 476.586 314.315C476.829 314.221 477.001 314.063 477.104 313.839C477.207 313.605 477.258 313.279 477.258 312.859C477.258 312.448 477.207 312.131 477.104 311.907C477.001 311.683 476.829 311.529 476.586 311.445C476.343 311.351 476.012 311.305 475.592 311.305C474.771 311.305 474.066 311.309 473.478 311.319C472.89 311.328 472.489 311.337 472.274 311.347L472.078 310.059C472.451 310.021 472.801 309.993 473.128 309.975C473.464 309.956 473.828 309.947 474.22 309.947C474.612 309.937 475.083 309.933 475.634 309.933ZM473.8 310.059V319.719H472.078V310.059H473.8ZM483.836 312.677C484.947 312.677 485.745 312.873 486.23 313.265C486.716 313.647 486.963 314.217 486.972 314.973C486.982 315.598 486.832 316.074 486.524 316.401C486.226 316.718 485.726 316.877 485.026 316.877H481.106V315.827H484.564C484.882 315.827 485.082 315.743 485.166 315.575C485.26 315.407 485.306 315.201 485.306 314.959C485.297 314.576 485.185 314.31 484.97 314.161C484.765 314.011 484.41 313.937 483.906 313.937C483.468 313.937 483.127 313.997 482.884 314.119C482.642 314.24 482.469 314.459 482.366 314.777C482.273 315.094 482.226 315.551 482.226 316.149C482.226 316.783 482.287 317.273 482.408 317.619C482.53 317.964 482.73 318.202 483.01 318.333C483.29 318.454 483.664 318.515 484.13 318.515C484.476 318.515 484.872 318.501 485.32 318.473C485.778 318.445 486.216 318.407 486.636 318.361L486.804 319.439C486.552 319.541 486.263 319.625 485.936 319.691C485.61 319.756 485.269 319.803 484.914 319.831C484.569 319.868 484.242 319.887 483.934 319.887C483.094 319.887 482.418 319.765 481.904 319.523C481.4 319.271 481.032 318.879 480.798 318.347C480.574 317.815 480.462 317.129 480.462 316.289C480.462 315.383 480.574 314.669 480.798 314.147C481.032 313.615 481.396 313.237 481.89 313.013C482.394 312.789 483.043 312.677 483.836 312.677ZM490.819 312.677C491.286 312.677 491.743 312.742 492.191 312.873C492.639 312.994 493.045 313.199 493.409 313.489L493.297 314.343C492.933 314.24 492.606 314.151 492.317 314.077C492.028 314.002 491.706 313.965 491.351 313.965C491.015 313.965 490.744 314.025 490.539 314.147C490.343 314.259 490.194 314.478 490.091 314.805C489.998 315.131 489.951 315.607 489.951 316.233C489.951 316.83 489.998 317.292 490.091 317.619C490.184 317.936 490.329 318.16 490.525 318.291C490.721 318.412 490.978 318.473 491.295 318.473C491.547 318.473 491.771 318.445 491.967 318.389C492.163 318.323 492.364 318.23 492.569 318.109C492.774 317.978 493.012 317.815 493.283 317.619L493.423 318.571C493.106 318.935 492.714 319.247 492.247 319.509C491.79 319.761 491.258 319.887 490.651 319.887C489.774 319.887 489.148 319.579 488.775 318.963C488.402 318.337 488.215 317.432 488.215 316.247C488.215 315.341 488.308 314.632 488.495 314.119C488.691 313.596 488.98 313.227 489.363 313.013C489.755 312.789 490.24 312.677 490.819 312.677ZM494.795 309.919V319.719H493.465L493.283 318.487L493.101 318.347V313.755L493.185 313.559C493.148 313.288 493.124 313.017 493.115 312.747C493.106 312.467 493.101 312.182 493.101 311.893V309.919H494.795ZM498.364 312.845V317.493C498.354 317.838 498.42 318.085 498.56 318.235C498.709 318.384 498.947 318.459 499.274 318.459C499.6 318.459 499.927 318.389 500.254 318.249C500.58 318.109 500.977 317.899 501.444 317.619L501.612 318.627C501.089 319.047 500.585 319.364 500.1 319.579C499.614 319.793 499.11 319.901 498.588 319.901C497.309 319.901 496.67 319.271 496.67 318.011V312.845H498.364ZM502.97 312.845V319.719H501.626L501.444 318.389L501.276 318.193V312.845H502.97ZM507.954 312.677C508.187 312.677 508.444 312.686 508.724 312.705C509.004 312.723 509.289 312.761 509.578 312.817C509.867 312.873 510.129 312.952 510.362 313.055L510.166 314.119C509.821 314.1 509.475 314.086 509.13 314.077C508.794 314.067 508.5 314.063 508.248 314.063C507.772 314.063 507.394 314.128 507.114 314.259C506.843 314.38 506.647 314.604 506.526 314.931C506.405 315.248 506.344 315.696 506.344 316.275C506.344 316.853 506.405 317.306 506.526 317.633C506.647 317.95 506.843 318.174 507.114 318.305C507.394 318.435 507.772 318.501 508.248 318.501C508.388 318.501 508.57 318.496 508.794 318.487C509.027 318.477 509.275 318.463 509.536 318.445C509.807 318.426 510.068 318.403 510.32 318.375L510.488 319.467C510.124 319.616 509.718 319.723 509.27 319.789C508.822 319.854 508.379 319.887 507.94 319.887C507.119 319.887 506.461 319.77 505.966 319.537C505.471 319.303 505.112 318.925 504.888 318.403C504.673 317.871 504.566 317.161 504.566 316.275C504.566 315.388 504.678 314.683 504.902 314.161C505.126 313.629 505.485 313.251 505.98 313.027C506.475 312.793 507.133 312.677 507.954 312.677ZM514.844 312.677C515.955 312.677 516.753 312.873 517.238 313.265C517.724 313.647 517.971 314.217 517.98 314.973C517.99 315.598 517.84 316.074 517.532 316.401C517.234 316.718 516.734 316.877 516.034 316.877H512.114V315.827H515.572C515.89 315.827 516.09 315.743 516.174 315.575C516.268 315.407 516.314 315.201 516.314 314.959C516.305 314.576 516.193 314.31 515.978 314.161C515.773 314.011 515.418 313.937 514.914 313.937C514.476 313.937 514.135 313.997 513.892 314.119C513.65 314.24 513.477 314.459 513.374 314.777C513.281 315.094 513.234 315.551 513.234 316.149C513.234 316.783 513.295 317.273 513.416 317.619C513.538 317.964 513.738 318.202 514.018 318.333C514.298 318.454 514.672 318.515 515.138 318.515C515.484 318.515 515.88 318.501 516.328 318.473C516.786 318.445 517.224 318.407 517.644 318.361L517.812 319.439C517.56 319.541 517.271 319.625 516.944 319.691C516.618 319.756 516.277 319.803 515.922 319.831C515.577 319.868 515.25 319.887 514.942 319.887C514.102 319.887 513.426 319.765 512.912 319.523C512.408 319.271 512.04 318.879 511.806 318.347C511.582 317.815 511.47 317.129 511.47 316.289C511.47 315.383 511.582 314.669 511.806 314.147C512.04 313.615 512.404 313.237 512.898 313.013C513.402 312.789 514.051 312.677 514.844 312.677Z" fill="#4129A8"/>
<path d="M26.5 42C26.5 42 45 150.5 95.999 178C146.998 205.5 238 108.5 318.5 130C399 151.5 406.159 282.5 501.5 282.5" stroke="#C4BDE4" stroke-dasharray="5 5"/>
<g filter="url(#filter0_f_12013_13881)">
<circle cx="28.5" cy="38.7812" r="11.5" fill="#A89DD7"/>
</g>
<g filter="url(#filter1_f_12013_13881)">
<circle cx="119.5" cy="187.5" r="11.5" fill="#A89DD7"/>
</g>
<g filter="url(#filter2_f_12013_13881)">
<circle cx="498.164" cy="283.5" r="11.5" fill="#A89DD7"/>
</g>
<g filter="url(#filter3_f_12013_13881)">
<circle cx="322.5" cy="130.781" r="11.5" fill="#A89DD7"/>
</g>
<defs>
<filter id="filter0_f_12013_13881" x="7.6" y="17.8813" width="41.8" height="41.8" filterUnits="userSpaceOnUse" color-interpolation-filters="sRGB">
<feFlood flood-opacity="0" result="BackgroundImageFix"/>
<feBlend mode="normal" in="SourceGraphic" in2="BackgroundImageFix" result="shape"/>
<feGaussianBlur stdDeviation="4.7" result="effect1_foregroundBlur_12013_13881"/>
</filter>
<filter id="filter1_f_12013_13881" x="98.6" y="166.6" width="41.8" height="41.8" filterUnits="userSpaceOnUse" color-interpolation-filters="sRGB">
<feFlood flood-opacity="0" result="BackgroundImageFix"/>
<feBlend mode="normal" in="SourceGraphic" in2="BackgroundImageFix" result="shape"/>
<feGaussianBlur stdDeviation="4.7" result="effect1_foregroundBlur_12013_13881"/>
</filter>
<filter id="filter2_f_12013_13881" x="477.264" y="262.6" width="41.8" height="41.8" filterUnits="userSpaceOnUse" color-interpolation-filters="sRGB">
<feFlood flood-opacity="0" result="BackgroundImageFix"/>
<feBlend mode="normal" in="SourceGraphic" in2="BackgroundImageFix" result="shape"/>
<feGaussianBlur stdDeviation="4.7" result="effect1_foregroundBlur_12013_13881"/>
</filter>
<filter id="filter3_f_12013_13881" x="301.6" y="109.881" width="41.8" height="41.8" filterUnits="userSpaceOnUse" color-interpolation-filters="sRGB">
<feFlood flood-opacity="0" result="BackgroundImageFix"/>
<feBlend mode="normal" in="SourceGraphic" in2="BackgroundImageFix" result="shape"/>
<feGaussianBlur stdDeviation="4.7" result="effect1_foregroundBlur_12013_13881"/>
</filter>
</defs>
</svg>
